<?xml version="1.0" standalone="no"?>
<!DOCTYPE svg PUBLIC "-//W3C//DTD SVG 1.1//EN" "http://www.w3.org/Graphics/SVG/1.1/DTD/svg11.dtd" >
<svg xmlns="http://www.w3.org/2000/svg" xmlns:xlink="http://www.w3.org/1999/xlink" version="1.1">
<metadata>
Created by FontForge 20170731 at Wed Jan 25 15:07:04 2017
 By Aleksey,,,
Copyright 2016 The Didact Gothic Project Authors (il.basso.buffo@gmail.com)
</metadata>
<defs>
<font id="DidactGothic-Regular" horiz-adv-x="0" >
  <font-face 
    font-family="Didact Gothic"
    font-weight="400"
    font-stretch="normal"
    units-per-em="1000"
    panose-1="0 0 5 0 0 0 0 0 0 0"
    ascent="800"
    descent="-200"
    x-height="468"
    cap-height="682"
    bbox="-825 -267 994 1127"
    underline-thickness="50"
    underline-position="-150"
    unicode-range="U+000D-FB02"
  />
<missing-glyph horiz-adv-x="500" 
d="M50 0v533h400v-533h-400zM100 50h300v433h-300v-433z" />
    <glyph glyph-name="fi" unicode="fi" horiz-adv-x="506" 
d="M88 406h-60v62h60v127q0 65 41.5 106.5t106.5 41.5h28v-62h-28q-35 0 -57.5 -24t-22.5 -62v-127h250v-468h-68v406h-182v-406h-68v406zM333.5 575q-15.5 16 -15.5 39q0 22 15.5 37.5t38.5 15.5q22 0 38 -15.5t16 -38.5q0 -22 -16 -38t-38 -16q-23 0 -38.5 16z" />
    <glyph glyph-name="fl" unicode="fl" horiz-adv-x="478" 
d="M88 406h-60v62h60v127q0 65 47 106.5t121 41.5q62 0 155 -17v-726h-68v676q-44 6 -87 6q-44 0 -72 -24.5t-28 -62.5v-127h108v-62h-108v-406h-68v406z" />
    <glyph glyph-name="f_f" unicode="ff" horiz-adv-x="550" 
d="M88 406h-60v62h60v127q0 65 41.5 106.5t106.5 41.5h28v-62h-28q-35 0 -57.5 -24t-22.5 -62v-127h207v127q0 65 41.5 106.5t106.5 41.5h28v-62h-28q-35 0 -57.5 -24t-22.5 -62v-127h108v-62h-108v-406h-68v406h-207v-406h-68v406z" />
    <glyph glyph-name="f_f_i" unicode="ffi" horiz-adv-x="781" 
d="M681 0h-68v406h-182v-406h-68v406h-207v-406h-68v406h-60v62h60v127q0 65 41.5 106.5t106.5 41.5h28v-62h-28q-35 0 -57.5 -24t-22.5 -62v-127h207v127q0 65 41.5 106.5t106.5 41.5h28v-62h-28q-35 0 -57.5 -24t-22.5 -62v-127h250v-468zM685 651.5q16 -15.5 16 -38.5
q0 -22 -16 -38t-38 -16q-23 0 -38.5 16t-15.5 39q0 22 15.5 37.5t38.5 15.5q22 0 38 -15.5z" />
    <glyph glyph-name="f_f_l" unicode="ffl" horiz-adv-x="753" 
d="M88 406h-60v62h60v127q0 65 41.5 106.5t106.5 41.5h28v-62h-28q-35 0 -57.5 -24t-22.5 -62v-127h207v127q0 65 47 106.5t121 41.5q62 0 155 -17v-726h-68v676q-43 6 -87 6t-72 -24.5t-28 -62.5v-127h108v-62h-108v-406h-68v406h-207v-406h-68v406z" />
    <glyph glyph-name=".notdef" horiz-adv-x="500" 
d="M50 0v533h400v-533h-400zM100 50h300v433h-300v-433z" />
    <glyph glyph-name=".null" 
 />
    <glyph glyph-name="nonmarkingreturn" unicode="&#xd;" horiz-adv-x="223" 
 />
    <glyph glyph-name="NULL" 
 />
    <glyph glyph-name="NULL" 
 />
    <glyph glyph-name="space" unicode=" " horiz-adv-x="223" 
 />
    <glyph glyph-name="exclam" unicode="!" horiz-adv-x="232" 
d="M82 186v496h68v-496h-68zM79 8q-16 16 -16 39q0 22 16 38t38 16q23 0 38.5 -16t15.5 -39q0 -22 -15.5 -38t-38.5 -16q-22 0 -38 16z" />
    <glyph glyph-name="quotedbl" unicode="&#x22;" horiz-adv-x="288" 
d="M60 454l-10 228h68l-10 -228h-48zM180 454l-10 228h68l-10 -228h-48z" />
    <glyph glyph-name="numbersign" unicode="#" horiz-adv-x="612" 
d="M592 415h-110l-17 -142h97v-62h-105l-23 -181h-62l23 181h-169l-23 -181h-62l23 181h-104v62h112l17 142h-99v62h107l25 196h62l-25 -196h169l25 196h62l-25 -196h102v-62zM403 273l17 142h-169l-17 -142h169z" />
    <glyph glyph-name="dollar" unicode="$" horiz-adv-x="583" 
d="M499.5 307.5q51.5 -45.5 51.5 -127.5q0 -74 -55 -122t-149 -52v-94h-41v94q-68 4 -130.5 39t-104.5 91l59 51q31 -48 78 -78.5t102 -36.5v248q-202 49 -202 183q0 83 54.5 127.5t152.5 46.5v93h41v-95q120 -11 198 -105l-57 -48q-30 40 -64 61.5t-79 27.5v-232
q94 -26 145.5 -71.5zM211 437.5q30 -26.5 102 -47.5v223q-58 -2 -95 -30t-37 -74q0 -45 30 -71.5zM445.5 102q32.5 29 32.5 78q0 51 -31.5 80.5t-95.5 48.5v-239q62 3 94.5 32z" />
    <glyph glyph-name="percent" unicode="%" horiz-adv-x="738" 
d="M175 -9l-56 28l430 683l54 -29zM95.5 365.5q-33.5 22.5 -52 62t-18.5 90.5q0 72 40.5 118t103.5 46t103.5 -46t40.5 -118q0 -50 -18 -90t-50.5 -62.5t-73.5 -22.5q-42 0 -75.5 22.5zM229.5 434.5q24.5 31.5 24.5 81.5q0 47 -24.5 77t-62.5 30q-37 0 -60 -29.5t-23 -75.5
q0 -51 23 -83t60 -32q38 0 62.5 31.5zM495.5 22.5q-33.5 22.5 -52 62t-18.5 90.5q0 72 40.5 118t103.5 46t103.5 -46t40.5 -118q0 -50 -18 -90t-50.5 -62.5t-73.5 -22.5q-42 0 -75.5 22.5zM629.5 91.5q24.5 31.5 24.5 81.5q0 47 -24.5 77t-62.5 30q-37 0 -60 -29.5
t-23 -75.5q0 -51 23 -83t60 -32q38 0 62.5 31.5z" />
    <glyph glyph-name="ampersand" unicode="&#x26;" horiz-adv-x="532" 
d="M462 0l-55 66q-74 -83 -189 -83q-84 0 -128.5 44t-44.5 119q0 60 28.5 104.5t91.5 102.5l-19 23q-41 49 -56 86.5t-15 75.5q0 70 37.5 110t107.5 40q62 0 103 -33.5t42 -104.5q0 -57 -30 -104t-84 -96l151 -182q17 39 25 79l59 -8q-15 -71 -43 -121l99 -118h-80z
M154.5 479q11.5 -28 42.5 -65l15 -18q45 45 64.5 77.5t19.5 67.5q0 42 -20 63.5t-55 21.5q-36 0 -57 -22t-21 -62q0 -35 11.5 -63zM368 112l-165 196q-45 -41 -67 -80.5t-22 -79.5q0 -47 29.5 -75t84.5 -28q85 0 140 67z" />
    <glyph glyph-name="quotesingle" unicode="'" horiz-adv-x="186" 
d="M69 454l-10 228h68l-10 -228h-48z" />
    <glyph glyph-name="parenleft" unicode="(" horiz-adv-x="234" 
d="M115 -2.5q-34 43.5 -53 130t-19 211.5t19 212.5t53 131.5t79 44v-62q-25 0 -44 -42.5t-30 -117t-11 -166.5q0 -91 11 -165t30.5 -116t43.5 -42v-62q-45 0 -79 43.5z" />
    <glyph glyph-name="parenright" unicode=")" horiz-adv-x="234" 
d="M43 16q24 0 43.5 42t30.5 116t11 165q0 92 -11 166.5t-30 117t-44 42.5v62q45 0 79 -44t53 -131.5t19 -212.5t-19 -211.5t-53 -130t-79 -43.5v62z" />
    <glyph glyph-name="asterisk" unicode="*" horiz-adv-x="356" 
d="M135 444l-41 24l44 76h-88v47h87l-43 75l41 23l44 -75l43 75l41 -23l-43 -75h86v-47h-87l44 -76l-41 -24l-43 75z" />
    <glyph glyph-name="plus" unicode="+" horiz-adv-x="500" 
d="M220 113v170h-170v55h170v180h60v-180h170v-55h-170v-170h-60z" />
    <glyph glyph-name="comma" unicode="," horiz-adv-x="204" 
d="M48 -108q56 37 56 100q-24 0 -40.5 15.5t-16.5 39.5q0 25 15 39.5t39 14.5q25 0 41 -18.5t16 -46.5q0 -49 -28 -94.5t-72 -68.5z" />
    <glyph glyph-name="hyphen" unicode="-" horiz-adv-x="340" 
d="M57 218v56h227v-56h-227z" />
    <glyph glyph-name="period" unicode="." horiz-adv-x="203" 
d="M63.5 8q-15.5 16 -15.5 39q0 22 15.5 38t37.5 16q23 0 39 -16t16 -39q0 -22 -16 -38t-39 -16q-22 0 -37.5 16z" />
    <glyph glyph-name="slash" unicode="/" horiz-adv-x="377" 
d="M34 0l248 682h62l-248 -682h-62z" />
    <glyph glyph-name="zero" unicode="0" horiz-adv-x="561" 
d="M149 30q-56 46 -88 127.5t-32 183.5t32 183.5t87.5 127t122.5 45.5t122.5 -45.5t87.5 -127t32 -183.5t-32 -183.5t-87 -127.5t-122 -46t-123 46zM356 86.5q37 36.5 58 103t21 151.5t-21 151t-58 102.5t-85 36.5t-85.5 -36.5t-58.5 -102.5t-21 -151t21 -151.5t58.5 -103
t85.5 -36.5t85 36.5z" />
    <glyph glyph-name="one" unicode="1" horiz-adv-x="414" 
d="M240 682h68v-682h-68v570l-162 -160l-38 38z" />
    <glyph glyph-name="two" unicode="2" horiz-adv-x="499" 
d="M39 43q0 44 20.5 81.5t50.5 67t82 72.5q32 26 34 28q65 55 101 108t36 122q0 48 -32.5 77.5t-85.5 29.5q-49 0 -89.5 -24.5t-75.5 -71.5l-55 47q40 55 98.5 86t121.5 31q89 0 142 -47.5t53 -127.5q0 -84 -48 -150t-132 -137q-21 -18 -20 -17q-62 -51 -92 -84t-30 -66h331
v-68h-410v43z" />
    <glyph glyph-name="three" unicode="3" horiz-adv-x="531" 
d="M437 298q34 -48 34 -111q0 -58 -28.5 -104.5t-78 -72.5t-108.5 -26q-74 0 -127 38t-79 102l60 35q24 -51 61.5 -80.5t87.5 -29.5q59 0 98.5 39t39.5 99q0 62 -40 102t-102 40h-48v62h44q55 0 88 35.5t33 91.5q0 51 -31.5 83.5t-80.5 32.5q-52 0 -88 -28.5t-62 -81.5
l-55 30q29 66 82 104.5t123 38.5q53 0 95 -23t65.5 -63.5t23.5 -92.5q0 -54 -25.5 -95.5t-70.5 -59.5q55 -17 89 -65z" />
    <glyph glyph-name="four" unicode="4" horiz-adv-x="574" 
d="M527 220v-68h-87v-152h-68v152h-342v68l342 462h68v-462h87zM102 220h270v356z" />
    <glyph glyph-name="five" unicode="5" horiz-adv-x="561" 
d="M441.5 382q55.5 -60 55.5 -167q0 -109 -58.5 -170t-163.5 -61q-68 0 -126 23.5t-93 66.5l53 37q25 -31 69.5 -48t98.5 -17q72 0 112.5 44.5t40.5 124.5q-1 78 -40 121.5t-109 43.5q-44 0 -93 -14.5t-92 -40.5v357h366v-70h-298v-192q63 22 123 22q99 0 154.5 -60z" />
    <glyph glyph-name="six" unicode="6" horiz-adv-x="551" 
d="M384 433q52 -31 82 -85.5t30 -123.5t-29.5 -123.5t-81 -85.5t-115.5 -31t-116.5 34.5t-82 96.5t-29.5 140q0 146 49.5 245.5t135 148t193.5 48.5v-64q-122 0 -201 -64t-101 -182q21 37 64 57t86 20q64 0 116 -31zM349.5 69q36.5 23 57.5 63.5t21 91.5t-21 91.5
t-57.5 63.5t-81.5 23q-73 0 -115.5 -47.5t-42.5 -119.5q0 -54 21 -97.5t57 -67.5t80 -24q45 0 81.5 23z" />
    <glyph glyph-name="seven" unicode="7" horiz-adv-x="467" 
d="M45 682h412l-244 -682h-69l220 612h-319v70z" />
    <glyph glyph-name="eight" unicode="8" horiz-adv-x="554" 
d="M160 10q-53 26 -84 74t-31 110q0 69 35.5 114t102.5 65q-109 39 -109 146q0 55 27.5 95t74 61.5t101.5 21.5q56 0 102.5 -21.5t73.5 -62t27 -94.5q0 -107 -108 -146q68 -23 102.5 -66.5t34.5 -112.5q0 -61 -30 -109t-83 -74.5t-118 -26.5t-118 26zM372.5 434
q33.5 28 33.5 84q0 57 -34.5 84.5t-94.5 27.5t-95 -28t-35 -83q0 -57 36 -85t95 -28q61 0 94.5 28zM393.5 88.5q42.5 37.5 42.5 106.5q0 70 -42 107t-117 37q-74 0 -117 -37t-43 -106q0 -70 42.5 -107.5t116.5 -37.5q75 0 117.5 37.5z" />
    <glyph glyph-name="nine" unicode="9" horiz-adv-x="561" 
d="M388.5 662.5q52.5 -34.5 82 -96.5t29.5 -140q0 -146 -49.5 -245.5t-135 -148t-193.5 -48.5v64q122 0 201 64t101 182q-21 -37 -64 -57t-86 -20q-64 0 -116 31t-82 85.5t-30 123.5t29.5 123.5t81 85.5t115.5 31t116.5 -34.5zM389.5 326.5q42.5 47.5 42.5 119.5
q0 54 -21 97.5t-57 67.5t-80 24q-45 0 -81.5 -23t-57.5 -63.5t-21 -91.5t21 -91.5t57.5 -63.5t81.5 -23q73 0 115.5 47.5z" />
    <glyph glyph-name="colon" unicode=":" horiz-adv-x="220" 
d="M72 379.5q-16 16.5 -16 38.5t16 38t38 16q23 0 38.5 -16t15.5 -38t-15.5 -38.5t-38.5 -16.5q-22 0 -38 16.5zM72 8q-16 16 -16 39q0 22 16 38t38 16q23 0 38.5 -16t15.5 -39q0 -22 -15.5 -38t-38.5 -16q-22 0 -38 16z" />
    <glyph glyph-name="semicolon" unicode=";" horiz-adv-x="220" 
d="M56 -108q56 37 56 100q-24 0 -40.5 15.5t-16.5 39.5q0 25 15 39.5t39 14.5q25 0 41 -18.5t16 -46.5q0 -49 -28 -94.5t-72 -68.5zM72 380q-16 16 -16 39q0 22 16 38t38 16q23 0 38.5 -16t15.5 -39q0 -22 -15.5 -38t-38.5 -16q-22 0 -38 16z" />
    <glyph glyph-name="less" unicode="&#x3c;" horiz-adv-x="500" 
d="M410 438l-284 -152l284 -155l-26 -47l-359 201l359 201z" />
    <glyph glyph-name="equal" unicode="=" horiz-adv-x="500" 
d="M50 346v55h400v-55h-400zM50 216v55h400v-55h-400z" />
    <glyph glyph-name="greater" unicode="&#x3e;" horiz-adv-x="500" 
d="M116 486l359 -201l-359 -201l-26 47l284 155l-284 152z" />
    <glyph glyph-name="question" unicode="?" horiz-adv-x="461" 
d="M197.5 274q12.5 34 34 55.5t64.5 52.5q32 23 45 51t13 64q0 64 -35.5 101t-93.5 37q-52 0 -86 -25.5t-47 -70.5l-63 20q23 61 74.5 99.5t123.5 38.5q51 0 96 -26t72 -70.5t27 -96.5q0 -64 -23 -99.5t-66 -68.5q-32 -25 -48.5 -40.5t-28.5 -42.5t-12 -67h-59q0 54 12.5 88
zM171.5 8q-16.5 16 -16.5 38t16.5 38.5t37.5 16.5q22 0 38.5 -16.5t16.5 -38.5q0 -21 -17 -37.5t-38 -16.5t-37.5 16z" />
    <glyph glyph-name="at" unicode="@" horiz-adv-x="742" 
d="M558.5 645.5q72.5 -49.5 111.5 -138.5t39 -204q0 -71 -18 -127.5t-50.5 -88t-73.5 -31.5q-36 0 -60.5 22t-34.5 65q-16 -44 -43 -66t-60 -22q-46 0 -83 28.5t-57.5 79t-20.5 115.5q0 63 20.5 112.5t56.5 77.5t82 28q65 0 97 -65v48h62v-302q0 -27 11 -40t30 -13
q33 0 54 51.5t21 131.5q0 96 -30.5 169.5t-88 115t-136.5 41.5q-77 0 -142.5 -44t-104 -121.5t-38.5 -175.5q0 -109 38.5 -194.5t107 -133.5t155.5 -48q25 0 62 7.5t70 18.5l27 -58q-37 -13 -81.5 -21.5t-77.5 -8.5q-107 0 -191 55.5t-131 154.5t-47 225q0 116 47 209
t128 145t178 52q99 0 171.5 -49.5zM439.5 159q24.5 43 24.5 116q0 70 -27 114.5t-70 44.5t-70.5 -44.5t-27.5 -114.5t27.5 -114.5t70.5 -44.5q48 0 72.5 43z" />
    <glyph glyph-name="A" unicode="A" horiz-adv-x="585" 
d="M503 0l-70 191h-283l-63 -191h-75l242 682h70l249 -682h-70zM173 253h237l-122 331z" />
    <glyph glyph-name="B" unicode="B" horiz-adv-x="574" 
d="M501 309q32 -43 32 -113q0 -91 -55 -143.5t-151 -52.5h-248v682h225q91 0 143 -47.5t52 -126.5q0 -51 -23 -87.5t-66 -53.5q59 -15 91 -58zM154 391h159q107 0 107 117q0 53 -31 82t-86 29h-149v-228zM417.5 98q36.5 36 36.5 98t-36.5 97.5t-100.5 35.5h-163v-267h163
q64 0 100.5 36z" />
    <glyph glyph-name="C" unicode="C" horiz-adv-x="605" 
d="M184.5 26.5q-62.5 42.5 -96 122t-33.5 190.5q0 112 32.5 192.5t93 123t143.5 42.5q85 0 145.5 -37.5t94.5 -105.5l-60 -35q-32 59 -75 84.5t-105 25.5q-89 0 -139.5 -76.5t-50.5 -212.5q0 -89 23 -154t66 -99.5t100 -34.5q71 0 110.5 31.5t73.5 98.5l63 -38
q-36 -78 -95.5 -119t-141.5 -41q-86 0 -148.5 42.5z" />
    <glyph glyph-name="D" unicode="D" horiz-adv-x="641" 
d="M80 682h169q105 0 181 -40.5t116 -117.5t40 -184q0 -160 -89 -250t-248 -90h-169v682zM247 68q122 0 191 67t69 205q0 139 -69 206t-191 67h-92v-545h92z" />
    <glyph glyph-name="E" unicode="E" horiz-adv-x="503" 
d="M79 0v682h382v-63h-307v-238h240v-61h-240v-258h310v-62h-385z" />
    <glyph glyph-name="F" unicode="F" horiz-adv-x="451" 
d="M79 0v682h372v-63h-297v-238h220v-61h-220v-320h-75z" />
    <glyph glyph-name="G" unicode="G" horiz-adv-x="606" 
d="M158.5 26.5q-62.5 42.5 -96 122t-33.5 190.5q0 112 33.5 192.5t96 123t148.5 42.5q79 0 136.5 -35.5t98.5 -104.5l-59 -42q-63 114 -176 114q-94 0 -146.5 -76.5t-52.5 -212.5q0 -135 53 -211.5t146 -76.5q52 0 93.5 25t65.5 74t24 120h-161v62h235v-62q0 -93 -33 -157.5
t-91.5 -97t-132.5 -32.5q-86 0 -148.5 42.5z" />
    <glyph glyph-name="H" unicode="H" horiz-adv-x="670" 
d="M80 0v682h75v-295h360v295h75v-682h-75v325h-360v-325h-75z" />
    <glyph glyph-name="I" unicode="I" horiz-adv-x="317" 
d="M55 0v66h66v550h-66v66h207v-66h-66v-550h66v-66h-207z" />
    <glyph glyph-name="J" unicode="J" horiz-adv-x="496" 
d="M92.5 21.5q-52.5 37.5 -80.5 105.5l63 30q15 -48 52.5 -75.5t83.5 -27.5q64 0 97 39.5t33 111.5v477h75v-477q0 -104 -54 -162.5t-147 -58.5q-70 0 -122.5 37.5z" />
    <glyph glyph-name="K" unicode="K" horiz-adv-x="545" 
d="M460 0l-234 328l-72 -85v-243h-75v682h75v-345l288 345h83l-255 -302l275 -380h-85z" />
    <glyph glyph-name="L" unicode="L" horiz-adv-x="476" 
d="M79 0v682h75v-620h307v-62h-382z" />
    <glyph glyph-name="M" unicode="M" horiz-adv-x="825" 
d="M661 682h84v-682h-74v545l-228 -545h-70l-218 543v-543h-75v682h92l239 -598z" />
    <glyph glyph-name="N" unicode="N" horiz-adv-x="662" 
d="M80 0v682h80l347 -569v569h75v-682h-80l-347 567v-567h-75z" />
    <glyph glyph-name="O" unicode="O" horiz-adv-x="696" 
d="M196.5 29.5q-66.5 45.5 -104 126.5t-37.5 184t37.5 184.5t104 127t151.5 45.5t151.5 -45.5t104 -127t37.5 -185.5q0 -103 -37.5 -183.5t-104 -126t-151.5 -45.5t-151.5 45.5zM459.5 89.5q49.5 36.5 77.5 102t28 148.5t-28 149t-77.5 103t-111.5 37t-111.5 -37t-77.5 -103
t-28 -149t28 -148.5t77.5 -102t111.5 -36.5t111.5 36.5z" />
    <glyph glyph-name="P" unicode="P" horiz-adv-x="535" 
d="M80 682h228q92 0 147 -56t55 -155q0 -98 -57.5 -154t-152.5 -56h-145v-261h-75v682zM298 323q67 0 102 37.5t35 110.5t-35 111t-102 38h-143v-297h143z" />
    <glyph glyph-name="Q" unicode="Q" horiz-adv-x="670" 
d="M617 189.5q-24 -68.5 -68 -117.5l59 -58l-44 -43l-61 61q-68 -48 -155 -48q-85 0 -151.5 45.5t-104 126.5t-37.5 184t37.5 184.5t104 127t151.5 45.5t151.5 -45.5t104 -127t37.5 -185.5q0 -81 -24 -149.5zM450 83l-84 84l44 44l87 -86q32 39 50 94.5t18 120.5
q0 83 -28 149t-77.5 103t-111.5 37t-111.5 -37t-77.5 -103t-28 -149t28 -148.5t77.5 -102t111.5 -36.5q55 0 102 30z" />
    <glyph glyph-name="R" unicode="R" horiz-adv-x="580" 
d="M462 0l-173 301h-135v-301h-75v682h228q62 0 109 -24t72 -67.5t25 -99.5q0 -68 -41 -116.5t-109 -65.5l178 -309h-79zM154 363h143q66 0 101.5 35t35.5 93t-35.5 93.5t-101.5 35.5h-143v-257z" />
    <glyph glyph-name="S" unicode="S" horiz-adv-x="583" 
d="M161 21.5q-71 37.5 -118 101.5l61 54q36 -57 92 -90.5t121 -33.5q71 0 108 31.5t37 85.5q0 59 -39.5 90.5t-125.5 55.5q-216 53 -216 196q0 89 58 137t161 48q75 0 134.5 -28t106.5 -86l-59 -50q-36 49 -79 72.5t-103 23.5q-63 0 -103 -29.5t-40 -80.5q0 -52 37 -82.5
t125 -51.5q104 -28 161.5 -77t57.5 -138q0 -55 -28 -97t-80.5 -65.5t-122.5 -23.5q-75 0 -146 37.5z" />
    <glyph glyph-name="T" unicode="T" horiz-adv-x="534" 
d="M230 0v620h-215v62h504v-62h-215v-620h-74z" />
    <glyph glyph-name="U" unicode="U" horiz-adv-x="660" 
d="M143 52.5q-63 68.5 -63 200.5v429h75v-429q0 -201 177 -201q80 0 126.5 52t46.5 149v429h75v-429q0 -130 -65.5 -199.5t-182.5 -69.5q-126 0 -189 68.5z" />
    <glyph glyph-name="V" unicode="V" horiz-adv-x="555" 
d="M482 682h73l-238 -682h-80l-237 682h75l202 -599z" />
    <glyph glyph-name="W" unicode="W" horiz-adv-x="851" 
d="M758 682h71l-182 -682h-78l-142 548l-146 -548h-77l-182 682h77l146 -574l152 574h61l153 -579z" />
    <glyph glyph-name="X" unicode="X" horiz-adv-x="516" 
d="M511 0h-84l-172 284l-161 -284h-84l197 337l-202 345h81l170 -291l174 291h78l-205 -338z" />
    <glyph glyph-name="Y" unicode="Y" horiz-adv-x="484" 
d="M430 682h69l-221 -403v-279h-74v282l-219 400h75l186 -340z" />
    <glyph glyph-name="Z" unicode="Z" horiz-adv-x="503" 
d="M38 0v63l362 557h-352v62h426v-75l-356 -545h346v-62h-426z" />
    <glyph glyph-name="bracketleft" unicode="[" horiz-adv-x="259" 
d="M67 -39v760h172v-39h-97v-682h97v-39h-172z" />
    <glyph glyph-name="backslash" unicode="\" horiz-adv-x="377" 
d="M281 0l-248 682h62l248 -682h-62z" />
    <glyph glyph-name="bracketright" unicode="]" horiz-adv-x="259" 
d="M20 -39v39h98v682h-98v39h172v-760h-172z" />
    <glyph glyph-name="asciicircum" unicode="^" horiz-adv-x="500" 
d="M466 369l-44 -36l-172 226l-173 -226l-42 36l216 287z" />
    <glyph glyph-name="underscore" unicode="_" horiz-adv-x="458" 
d="M0 -86v59h458v-59h-458z" />
    <glyph glyph-name="grave" unicode="`" horiz-adv-x="388" 
d="M289 567l-230 117l34 58l216 -141z" />
    <glyph glyph-name="a" unicode="a" horiz-adv-x="561" 
d="M498 468v-468h-68v69q-29 -40 -71 -62.5t-92 -22.5q-67 0 -120 32t-83 89t-30 130q0 72 29.5 128.5t82 88.5t119.5 32q51 0 93.5 -22.5t71.5 -63.5v70h68zM350.5 70q37.5 24 58.5 67t21 97t-21 97t-58.5 67t-85.5 24q-47 0 -84 -24t-58 -66.5t-21 -96.5q0 -55 21 -98
t58 -67t84 -24q48 0 85.5 24z" />
    <glyph glyph-name="b" unicode="b" horiz-adv-x="561" 
d="M416.5 452q52.5 -32 82 -88.5t29.5 -128.5q0 -73 -30 -130t-83 -89t-120 -32q-50 0 -92 22.5t-71 62.5v-69h-68v726h68v-328q29 41 71.5 63.5t93.5 22.5q67 0 119.5 -32zM381 70q37 24 58 67t21 98q0 54 -21 96.5t-58 66.5t-84 24q-48 0 -85.5 -24t-58.5 -67t-21 -97
t21 -97t58.5 -67t85.5 -24q47 0 84 24z" />
    <glyph glyph-name="c" unicode="c" horiz-adv-x="477" 
d="M145 16q-53 32 -83 89t-30 129t29.5 129t82.5 89t120 32q57 0 99.5 -24.5t77.5 -69.5l-50 -39q-49 71 -127 71q-47 0 -84.5 -24t-58.5 -67t-21 -97t21 -97t58.5 -67t84.5 -24q48 0 79 16.5t56 48.5l53 -37q-33 -41 -81.5 -65.5t-104.5 -24.5q-68 0 -121 32z" />
    <glyph glyph-name="d" unicode="d" horiz-adv-x="561" 
d="M498 726v-726h-68v69q-29 -40 -71 -62.5t-92 -22.5q-67 0 -120 32t-83 89t-30 130q0 72 29.5 128.5t82 88.5t119.5 32q51 0 93.5 -22.5t71.5 -63.5v328h68zM350.5 70q37.5 24 58.5 67t21 97t-21 97t-58.5 67t-85.5 24q-47 0 -84 -24t-58 -66.5t-21 -96.5q0 -55 21 -98
t58 -67t84 -24q48 0 85.5 24z" />
    <glyph glyph-name="e" unicode="e" horiz-adv-x="525" 
d="M379 453q51 -31 80 -84.5t29 -119.5q0 -19 -1 -29h-385q4 -72 47 -123t117 -51q60 0 99.5 22.5t63.5 62.5l54 -36q-33 -52 -87 -81.5t-128 -29.5q-68 0 -121 32t-83 89t-30 129t29.5 129t82 89t119.5 32q63 0 114 -31zM420 276q-10 73 -49 109.5t-106 36.5
q-65 0 -106.5 -41.5t-52.5 -104.5h314z" />
    <glyph glyph-name="f" unicode="f" horiz-adv-x="275" 
d="M178.5 657q-22.5 -24 -22.5 -62v-127h108v-62h-108v-406h-68v406h-60v62h60v127q0 65 41.5 106.5t106.5 41.5h28v-62h-28q-35 0 -57.5 -24z" />
    <glyph glyph-name="g" unicode="g" horiz-adv-x="561" 
d="M498 468v-450q0 -63 -26 -112.5t-73 -77.5t-107 -28h-194v62h194q61 0 99.5 44t38.5 112v51q-29 -40 -71 -62.5t-92 -22.5q-67 0 -120 32t-83 89t-30 130q0 72 29.5 128.5t82 88.5t119.5 32q51 0 93.5 -22.5t71.5 -63.5v70h68zM350.5 70q37.5 24 58.5 67t21 97t-21 97
t-58.5 67t-85.5 24q-47 0 -84 -24t-58 -66.5t-21 -96.5q0 -55 21 -98t58 -67t84 -24q48 0 85.5 24z" />
    <glyph glyph-name="h" unicode="h" horiz-adv-x="534" 
d="M376.5 464q41.5 -20 66 -59t24.5 -92v-313h-68v283q0 139 -124 139q-72 0 -108 -51t-36 -137v-234h-68v726h68v-336q24 45 63.5 69.5t91.5 24.5q49 0 90.5 -20z" />
    <glyph glyph-name="i" unicode="i" horiz-adv-x="268" 
d="M100 0v468h68v-468h-68zM95.5 575q-15.5 16 -15.5 39q0 22 15.5 37.5t38.5 15.5q22 0 38 -15.5t16 -38.5q0 -22 -16 -38t-38 -16q-23 0 -38.5 16z" />
    <glyph glyph-name="j" unicode="j" horiz-adv-x="193" 
d="M-45 -138h28q35 0 57.5 24t22.5 62v520h68v-520q0 -65 -41.5 -106.5t-106.5 -41.5h-28v62zM58.5 575q-15.5 16 -15.5 39q0 22 15.5 37.5t38.5 15.5q22 0 38 -15.5t16 -38.5q0 -22 -16 -38t-38 -16q-23 0 -38.5 16z" />
    <glyph glyph-name="k" unicode="k" horiz-adv-x="436" 
d="M352 0l-164 241l-57 -55v-186h-68v726h68v-454l205 196h88l-189 -182l193 -286h-76z" />
    <glyph glyph-name="l" unicode="l" horiz-adv-x="203" 
d="M68 0v726h68v-726h-68z" />
    <glyph glyph-name="m" unicode="m" horiz-adv-x="770" 
d="M669 438.5q43 -45.5 43 -125.5v-313h-68v283q0 74 -28 106.5t-73 32.5q-55 0 -85.5 -42.5t-35.5 -115.5v-264h-68v283q0 74 -28 106.5t-73 32.5q-61 0 -91.5 -51t-30.5 -137v-234h-68v468h68v-73q23 43 58.5 66t81.5 23q51 0 89 -27.5t53 -78.5q22 50 60 78t88 28
q65 0 108 -45.5z" />
    <glyph glyph-name="n" unicode="n" horiz-adv-x="537" 
d="M376.5 464q41.5 -20 66 -59t24.5 -92v-313h-68v283q0 139 -124 139q-72 0 -108 -51t-36 -137v-234h-68v468h68v-78q24 45 63.5 69.5t91.5 24.5q49 0 90.5 -20z" />
    <glyph glyph-name="o" unicode="o" horiz-adv-x="531" 
d="M147 16q-53 32 -83 89.5t-30 129.5t29.5 128.5t82 88.5t119.5 32t120 -32t83 -89t30 -129t-29.5 -129t-82 -89t-119.5 -32t-120 32zM350.5 70q37.5 24 58.5 67t21 97t-21 97t-58.5 67t-85.5 24q-47 0 -84 -24t-58 -66.5t-21 -96.5q0 -55 21 -98t58 -67t84 -24
q48 0 85.5 24z" />
    <glyph glyph-name="p" unicode="p" horiz-adv-x="561" 
d="M415 452q53 -32 83 -89t30 -130q0 -72 -29.5 -128.5t-82 -88.5t-119.5 -32q-51 0 -93.5 22.5t-71.5 63.5v-270h-68v668h68v-69q29 40 71 62.5t92 22.5q67 0 120 -32zM381 70q37 24 58 66.5t21 96.5q0 55 -21 98t-58 67t-84 24q-48 0 -85.5 -24t-58.5 -67t-21 -97t21 -97
t58.5 -67t85.5 -24q47 0 84 24z" />
    <glyph glyph-name="q" unicode="q" horiz-adv-x="561" 
d="M499 468v-668h-68v270q-29 -41 -71.5 -63.5t-93.5 -22.5q-67 0 -119.5 32t-82 88.5t-29.5 128.5q0 73 30 130t83 89t120 32q50 0 92 -22.5t71 -62.5v69h68zM351.5 70q37.5 24 58.5 67t21 97t-21 97t-58.5 67t-85.5 24q-47 0 -84 -24t-58 -67t-21 -98q0 -54 21 -96.5
t58 -66.5t84 -24q48 0 85.5 24z" />
    <glyph glyph-name="r" unicode="r" horiz-adv-x="339" 
d="M339 477v-62q-21 10 -46 10q-43 0 -80 -24t-59.5 -69.5t-22.5 -107.5v-224h-68v468h68v-94q27 52 68.5 81t93.5 29q24 0 46 -7z" />
    <glyph glyph-name="s" unicode="s" horiz-adv-x="464" 
d="M108.5 13q-51.5 29 -78.5 82l61 30q37 -79 145 -79q52 0 86 19t34 59q0 41 -27.5 61t-96.5 26q-96 8 -137.5 43t-41.5 93q0 65 47 101t129 36q139 0 189 -110l-61 -30q-17 40 -49.5 59t-83.5 19q-52 0 -79.5 -19t-27.5 -54q0 -33 29.5 -53.5t101.5 -26.5
q89 -8 132.5 -43.5t43.5 -93.5q0 -47 -27 -80.5t-72 -50.5t-97 -17q-68 0 -119.5 29z" />
    <glyph glyph-name="t" unicode="t" horiz-adv-x="275" 
d="M88 0v406h-80v62h80v155h68v-155h108v-62h-108v-406h-68z" />
    <glyph glyph-name="u" unicode="u" horiz-adv-x="537" 
d="M474 468v-468h-68v78q-24 -45 -63.5 -69.5t-91.5 -24.5q-49 0 -90.5 20t-66 59t-24.5 92v313h68v-283q0 -139 124 -139q72 0 108 51t36 137v234h68z" />
    <glyph glyph-name="v" unicode="v" horiz-adv-x="455" 
d="M366 468h69l-170 -468h-75l-169 468h71l138 -395z" />
    <glyph glyph-name="w" unicode="w" horiz-adv-x="719" 
d="M633 468h65l-152 -468h-71l-114 359l-123 -359h-68l-154 468h72l120 -372l122 372h66l118 -370z" />
    <glyph glyph-name="x" unicode="x" horiz-adv-x="462" 
d="M430 0h-78l-122 195l-122 -195h-76l150 240l-141 228h77l113 -184l119 184h75l-147 -227z" />
    <glyph glyph-name="y" unicode="y" horiz-adv-x="449" 
d="M385 468h64l-253 -668h-68l74 191l-192 477h71l155 -388z" />
    <glyph glyph-name="z" unicode="z" horiz-adv-x="420" 
d="M383 468v-62l-268 -344h268v-62h-346v62l268 344h-268v62h346z" />
    <glyph glyph-name="braceleft" unicode="{" horiz-adv-x="247" 
d="M112 -15.5q-37 35.5 -37 92.5q0 25 4 83q1 17 2 35.5t1 37.5q0 24 -24 51t-51 31v46q29 5 55.5 30.5t26.5 51.5q0 28 -7 75q-1 9 -4 35t-3 46q0 58 37 93t100 35v-46q-33 0 -55.5 -19.5t-22.5 -51.5q0 -22 1 -41t2 -34q4 -60 4 -91q0 -69 -69 -106q68 -38 68 -106
q0 -25 -4 -89q-1 -17 -2 -37t-1 -40q0 -35 23 -53t57 -18v-46q-64 0 -101 35.5z" />
    <glyph glyph-name="bar" unicode="|" horiz-adv-x="173" 
d="M66 -138v888h51v-888h-51z" />
    <glyph glyph-name="braceright" unicode="}" horiz-adv-x="247" 
d="M27 -5q34 0 57 18t23 53q0 20 -1 40t-2 37q-4 64 -4 89q0 68 68 106q-69 37 -69 106q0 31 4 91q1 15 2 34t1 41q0 32 -22.5 51.5t-55.5 19.5v46q63 0 100 -35t37 -93q0 -20 -3 -46t-4 -35q-7 -47 -7 -75q0 -26 26.5 -51.5t55.5 -30.5v-46q-27 -4 -51 -31t-24 -51
q0 -19 1 -37.5t2 -35.5q4 -58 4 -83q0 -57 -37 -92.5t-101 -35.5v46z" />
    <glyph glyph-name="asciitilde" unicode="~" horiz-adv-x="500" 
d="M293 264.5q-19 7.5 -48 22.5t-47.5 22t-41.5 7q-25 0 -44.5 -9t-38.5 -26l-23 37q45 53 113 53q29 0 49.5 -8t48.5 -23q25 -14 41.5 -21t39.5 -7q43 0 82 32l26 -33q-21 -26 -51 -40t-62 -14q-25 0 -44 7.5z" />
    <glyph glyph-name="uni00A0" unicode="&#xa0;" horiz-adv-x="223" 
 />
    <glyph glyph-name="exclamdown" unicode="&#xa1;" horiz-adv-x="230" 
d="M154.5 568q15.5 -16 15.5 -38q0 -23 -15.5 -39t-38.5 -16q-22 0 -38 16t-16 38q0 23 16 39t38 16q23 0 38.5 -16zM81 390h68v-496h-68v496z" />
    <glyph glyph-name="cent" unicode="&#xa2;" horiz-adv-x="477" 
d="M377.5 112q-44.5 -24 -96.5 -28v-92h-41v93q-61 6 -108 39.5t-73.5 87.5t-26.5 122t26.5 122.5t73.5 87.5t108 39v67h41v-67q51 -4 89 -27.5t71 -65.5l-50 -39q-43 63 -110 70v-374q41 3 68.5 19t49.5 45l53 -37q-30 -38 -74.5 -62zM138.5 208q38.5 -51 101.5 -60v372
q-63 -9 -101.5 -60t-38.5 -126t38.5 -126z" />
    <glyph glyph-name="sterling" unicode="&#xa3;" horiz-adv-x="470" 
d="M212.5 172.5q-29.5 -52.5 -84.5 -110.5h307v-62h-382v62q62 60 89.5 109t27.5 93q0 28 -10 54h-100v48h78q-2 4 -26 38q-27 35 -41.5 65t-14.5 71q0 50 28.5 85.5t75 53.5t97.5 18q54 0 98.5 -19t70 -52.5t25.5 -74.5h-79q0 37 -32 57.5t-83 20.5q-52 0 -87.5 -21.5
t-35.5 -61.5q0 -24 9.5 -44t30.5 -53q18 -27 33 -52l16 -31h149v-48h-134q4 -17 4 -39q0 -54 -29.5 -106.5z" />
    <glyph glyph-name="currency" unicode="&#xa4;" horiz-adv-x="488" 
d="M427 297q0 -61 -38 -110l54 -54l-36 -36l-54 54q-50 -38 -110 -38t-109 37l-53 -53l-36 36l53 53q-37 49 -37 110t37 110l-53 53l36 36l53 -53q50 38 110 38q61 0 111 -38l52 53l36 -36l-53 -52q37 -49 37 -110zM243 173q23 0 46 9.5t42 27.5q18 18 27 40.5t9 46.5
q0 43 -27 76l-19 19q-33 27 -77 27q-24 0 -46.5 -9t-40.5 -27q-36 -36 -36 -87q0 -24 9 -46.5t27 -40.5q36 -36 86 -36z" />
    <glyph glyph-name="yen" unicode="&#xa5;" horiz-adv-x="484" 
d="M499 682l-211 -385h84v-48h-94v-52h94v-48h-94v-149h-74v149h-94v48h94v52h-94v48h86l-211 385h75l186 -340l184 340h69z" />
    <glyph glyph-name="brokenbar" unicode="&#xa6;" horiz-adv-x="179" 
d="M69 389v361h41v-361h-41zM69 -68v361h41v-361h-41z" />
    <glyph glyph-name="section" unicode="&#xa7;" horiz-adv-x="438" 
d="M383 254.5q-15 -24.5 -47 -46.5q36 -39 36 -92q0 -55 -40.5 -93t-106.5 -38q-53 0 -101 20.5t-79 64.5l52 32q31 -55 119 -55q41 0 64.5 17t23.5 52q0 36 -23 56t-76 36q-77 22 -110 58t-33 84q0 32 17 60t49 41q-44 38 -44 96q0 57 41 94t104 37q89 0 145 -76l-47 -38
q-19 26 -41.5 39t-53.5 13q-36 0 -57.5 -17t-21.5 -51q0 -65 93 -91q81 -22 116.5 -55.5t35.5 -90.5q0 -32 -15 -56.5zM144.5 304.5q24.5 -22.5 76.5 -35.5q41 -10 74 -29q22 16 30 31.5t8 38.5q0 33 -23.5 53t-81.5 37q-33 9 -65 26q-43 -22 -43 -64q0 -35 24.5 -57.5z" />
    <glyph glyph-name="dieresis" unicode="&#xa8;" horiz-adv-x="464" 
d="M96 575q-16 16 -16 39q0 22 16 37.5t38 15.5q23 0 39 -15.5t16 -38.5q0 -22 -16 -38t-39 -16q-22 0 -38 16zM290.5 575q-15.5 16 -15.5 39q0 22 15.5 37.5t37.5 15.5q23 0 39.5 -15.5t16.5 -38.5q0 -22 -16.5 -38t-39.5 -16q-22 0 -37.5 16z" />
    <glyph glyph-name="copyright" unicode="&#xa9;" horiz-adv-x="702" 
d="M195 20.5q-70 41.5 -110 112t-40 153.5q0 85 41.5 155.5t112 111t152.5 40.5q85 0 155.5 -42t111 -112.5t40.5 -152.5q0 -86 -41.5 -156t-112 -110.5t-153.5 -40.5q-86 0 -156 41.5zM483.5 61.5q59.5 35.5 93.5 95t34 129.5q0 72 -35 132t-95 94t-130 34
q-74 0 -133.5 -35t-93 -94.5t-33.5 -130.5q0 -73 35 -132.5t94.5 -93.5t130.5 -34q73 0 132.5 35.5zM241 160q-45 48 -45 123q0 49 20.5 88t56.5 61t82 22q33 0 68 -19t57 -49l-45 -29q-15 20 -37.5 33t-42.5 13q-46 0 -75 -33.5t-29 -86.5t29 -87t75 -34q25 0 50 13t39 33
l43 -30q-22 -29 -58.5 -47.5t-72.5 -18.5q-70 0 -115 48z" />
    <glyph glyph-name="ordfeminine" unicode="&#xaa;" horiz-adv-x="408" 
d="M348 687v-291h-51v40q-17 -23 -41 -36t-52 -13q-63 0 -103.5 43.5t-40.5 111.5q0 67 40.5 110.5t103.5 43.5q28 0 52 -12.5t41 -35.5v39h51zM271 464.5q26 30.5 26 78.5q0 47 -26.5 76.5t-68.5 29.5q-40 0 -66 -30.5t-26 -77.5t26.5 -77t67.5 -30t67 30.5zM60 285v51h288
v-51h-288z" />
    <glyph glyph-name="guillemotleft" unicode="&#xab;" horiz-adv-x="504" 
d="M274 417l-142 -148l142 -150l-43 -37l-191 186l191 187zM444 417l-142 -148l142 -150l-43 -37l-191 186l191 187z" />
    <glyph glyph-name="logicalnot" unicode="&#xac;" horiz-adv-x="500" 
d="M382 160v123h-332v55h400v-178h-68z" />
    <glyph glyph-name="uni00AD" unicode="&#xad;" horiz-adv-x="332" 
d="M57 218v56h227v-56h-227z" />
    <glyph glyph-name="registered" unicode="&#xae;" horiz-adv-x="702" 
d="M506.5 551q70.5 -42 111 -112.5t40.5 -152.5q0 -86 -41.5 -156t-112 -110.5t-153.5 -40.5q-86 0 -156 41.5t-110 112t-40 153.5q0 85 41.5 155.5t112 111t152.5 40.5q85 0 155.5 -42zM483.5 61.5q59.5 35.5 93.5 95t34 129.5q0 72 -35 132t-95 94t-130 34
q-74 0 -133.5 -35t-93 -94.5t-33.5 -130.5q0 -73 35 -132.5t94.5 -93.5t130.5 -34q73 0 132.5 35.5zM457.5 291q-16.5 -24 -45.5 -34l83 -140l-62 -1l-81 134h-61v-133h-55v332h129q50 0 79.5 -25.5t29.5 -73.5q0 -35 -16.5 -59zM291 301h75q26 0 38 13.5t12 35.5
t-12.5 35.5t-37.5 13.5h-75v-98z" />
    <glyph glyph-name="macron" unicode="&#xaf;" horiz-adv-x="405" 
d="M59 586v45h267v-45h-267z" />
    <glyph glyph-name="degree" unicode="&#xb0;" horiz-adv-x="369" 
d="M87.5 466.5q-37.5 37.5 -37.5 95.5q0 59 37.5 97t96.5 38t97 -38t38 -98q0 -58 -38 -95t-97 -37t-96.5 37.5zM241.5 504.5q22.5 22.5 22.5 57.5q0 36 -22.5 59t-57.5 23t-57.5 -23t-22.5 -59q0 -35 22.5 -57.5t57.5 -22.5t57.5 22.5z" />
    <glyph glyph-name="plusminus" unicode="&#xb1;" horiz-adv-x="500" 
d="M220 216v130h-170v55h170v140h60v-140h170v-55h-170v-130h-60zM50 116v55h400v-55h-400z" />
    <glyph glyph-name="uni00B2" unicode="&#xb2;" horiz-adv-x="347" 
d="M47 290q0 43 25.5 74.5t76.5 74.5l18 15q37 32 56.5 59t19.5 58q0 33 -16 49.5t-52 16.5q-26 0 -52.5 -16.5t-47.5 -46.5l-40 37q30 42 63.5 60t81.5 18q53 0 87 -32t34 -87q0 -33 -13 -59t-32.5 -45t-54.5 -49q-85 -66 -93 -105h199v-54h-260v32z" />
    <glyph glyph-name="uni00B3" unicode="&#xb3;" horiz-adv-x="340" 
d="M277 445q23 -27 23 -65q0 -57 -37.5 -92t-97.5 -35q-49 0 -85.5 23.5t-52.5 69.5l45 27q13 -35 36.5 -50.5t61.5 -15.5q31 0 52.5 20.5t21.5 52.5q0 34 -21.5 55t-56.5 21h-37v53h35q30 0 49 18.5t19 48.5q0 27 -18 44t-45 17q-32 0 -55 -16.5t-39 -50.5l-45 25
q21 46 57 70t82 24q53 0 85.5 -30.5t32.5 -82.5q0 -32 -19.5 -56.5t-53.5 -36.5q40 -11 63 -38z" />
    <glyph glyph-name="acute" unicode="&#xb4;" horiz-adv-x="388" 
d="M78 567l-20 34l216 141l34 -58z" />
    <glyph glyph-name="uni00B5" unicode="&#xb5;" horiz-adv-x="576" 
d="M64 468h68v-276q0 -71 26 -108.5t97 -37.5q68 0 101.5 57t33.5 131v234h68v-309q0 -64 11.5 -89t39.5 -25q10 0 22.5 2.5t18.5 5.5l10 -49q-10 -10 -29 -15t-38 -5q-39 0 -63 24t-30 72q-23 -49 -58 -72.5t-86 -23.5q-44 0 -73.5 13.5t-50.5 41.5v-239h-68v668z" />
    <glyph glyph-name="paragraph" unicode="&#xb6;" horiz-adv-x="531" 
d="M245 282q-62 0 -110.5 25.5t-75.5 70.5t-27 103t30.5 104t85 71.5t124.5 25.5h189v-682h-75v619h-66v-619h-75v282zM245 617q-58 0 -94.5 -38t-36.5 -98q0 -59 36.5 -97t94.5 -38v271z" />
    <glyph glyph-name="periodcentered" unicode="&#xb7;" horiz-adv-x="220" 
d="M72 215q-16 16 -16 39q0 22 16 38t38 16q23 0 38.5 -16t15.5 -39q0 -22 -15.5 -38t-38.5 -16q-22 0 -38 16z" />
    <glyph glyph-name="cedilla" unicode="&#xb8;" horiz-adv-x="345" 
d="M58 -173q49 0 94 12q46 10 46 30q0 11 -8 16.5t-31 8.5t-69 3l48 103h51l-33 -68q51 0 79 -17t28 -40q0 -75 -205 -75v27z" />
    <glyph glyph-name="uni00B9" unicode="&#xb9;" horiz-adv-x="270" 
d="M156 682h54v-424h-57v330l-92 -89l-31 31z" />
    <glyph glyph-name="ordmasculine" unicode="&#xba;" horiz-adv-x="408" 
d="M100.5 430.5q-40.5 43.5 -40.5 111.5q0 67 40.5 110.5t103.5 43.5t103.5 -43.5t40.5 -110.5q0 -68 -40.5 -111.5t-103.5 -43.5t-103.5 43.5zM271 464.5q26 30.5 26 78.5q0 47 -26.5 76.5t-68.5 29.5q-40 0 -66 -30.5t-26 -77.5t26.5 -77t67.5 -30t67 30.5zM60 285v51h288
v-51h-288z" />
    <glyph glyph-name="guillemotright" unicode="&#xbb;" horiz-adv-x="504" 
d="M103 455l191 -187l-191 -186l-43 37l142 150l-142 148zM273 455l191 -187l-191 -186l-43 37l142 150l-142 148z" />
    <glyph glyph-name="onequarter" unicode="&#xbc;" horiz-adv-x="802" 
d="M156 682h54v-424h-57v330l-92 -89l-31 31zM220 0l248 682h62l-248 -682h-62zM762 133v-52h-60v-81h-57v81h-195v47l198 294h54v-289h60zM511 133h134v194z" />
    <glyph glyph-name="onehalf" unicode="&#xbd;" horiz-adv-x="796" 
d="M156 682h54v-424h-57v330l-92 -89l-31 31zM220 0l248 682h62l-248 -682h-62zM496 32q0 43 25.5 74.5t76.5 74.5l18 15q37 32 56.5 59t19.5 58q0 33 -16 49.5t-52 16.5q-26 0 -52.5 -16.5t-47.5 -46.5l-40 37q30 42 63.5 60t81.5 18q53 0 87 -32t34 -87q0 -33 -13 -59
t-32.5 -45t-54.5 -49q-85 -66 -93 -105h199v-54h-260v32z" />
    <glyph glyph-name="threequarters" unicode="&#xbe;" horiz-adv-x="842" 
d="M277 445q23 -27 23 -65q0 -57 -37.5 -92t-97.5 -35q-49 0 -85.5 23.5t-52.5 69.5l45 27q13 -35 36.5 -50.5t61.5 -15.5q31 0 52.5 20.5t21.5 52.5q0 34 -21.5 55t-56.5 21h-37v53h35q30 0 49 18.5t19 48.5q0 27 -18 44t-45 17q-32 0 -55 -16.5t-39 -50.5l-45 25
q21 46 57 70t82 24q53 0 85.5 -30.5t32.5 -82.5q0 -32 -19.5 -56.5t-53.5 -36.5q40 -11 63 -38zM290 0l248 682h62l-248 -682h-62zM802 133v-52h-60v-81h-57v81h-195v47l198 294h54v-289h60zM551 133h134v194z" />
    <glyph glyph-name="questiondown" unicode="&#xbf;" horiz-adv-x="461" 
d="M289.5 584q16.5 -16 16.5 -38t-16.5 -38.5t-37.5 -16.5q-22 0 -38.5 16.5t-16.5 38.5q0 21 17 37.5t38 16.5t37.5 -16zM263.5 318q-12.5 -34 -34 -55.5t-64.5 -52.5q-32 -23 -45 -51t-13 -64q0 -64 35.5 -101t93.5 -37q52 0 86 25.5t47 70.5l63 -20q-23 -61 -74.5 -99.5
t-123.5 -38.5q-51 0 -96 26t-72 70.5t-27 96.5q0 64 23 99.5t66 68.5q32 25 48.5 40.5t28.5 42.5t12 67h59q0 -54 -12.5 -88z" />
    <glyph glyph-name="Agrave" unicode="&#xc0;" horiz-adv-x="585" 
d="M503 0l-70 191h-283l-63 -191h-75l242 682h70l249 -682h-70zM173 253h237l-122 331zM398 725l-230 87l34 58l216 -111z" />
    <glyph glyph-name="Aacute" unicode="&#xc1;" horiz-adv-x="585" 
d="M503 0l-70 191h-283l-63 -191h-75l242 682h70l249 -682h-70zM173 253h237l-122 331zM188 725l-20 34l216 111l34 -58z" />
    <glyph glyph-name="Acircumflex" unicode="&#xc2;" horiz-adv-x="585" 
d="M503 0l-70 191h-283l-63 -191h-75l242 682h70l249 -682h-70zM173 253h237l-122 331zM156 737l-19 34l155 104l156 -104l-19 -34l-137 67z" />
    <glyph glyph-name="Atilde" unicode="&#xc3;" horiz-adv-x="585" 
d="M503 0l-70 191h-283l-63 -191h-75l242 682h70l249 -682h-70zM173 253h237l-122 331zM329.5 747q-16.5 6 -35.5 17q-3 2 -16.5 8t-26.5 9.5t-27 3.5q-26 0 -39.5 -8t-18.5 -26h-45q5 39 29.5 67t68.5 28q21 0 38.5 -6t42.5 -19q20 -10 36 -15.5t32 -5.5q21 0 34.5 10.5
t15.5 25.5h46q-5 -41 -27.5 -68t-68.5 -27q-22 0 -38.5 6z" />
    <glyph glyph-name="Adieresis" unicode="&#xc4;" horiz-adv-x="585" 
d="M503 0l-70 191h-283l-63 -191h-75l242 682h70l249 -682h-70zM173 253h237l-122 331zM156.5 775q-15.5 16 -15.5 39q0 22 15.5 37.5t38.5 15.5q22 0 38.5 -15.5t16.5 -38.5q0 -22 -16.5 -38t-38.5 -16q-23 0 -38.5 16zM352 775q-16 16 -16 39q0 22 16 37.5t39 15.5
q22 0 38 -15.5t16 -38.5q0 -22 -16 -38t-38 -16q-23 0 -39 16z" />
    <glyph glyph-name="Aring" unicode="&#xc5;" horiz-adv-x="585" 
d="M503 0l-70 191h-283l-63 -191h-75l242 682h70l249 -682h-70zM173 253h237l-122 331zM222 769q-29 29 -29 70t29 70.5t70 29.5t70.5 -29.5t29.5 -70.5t-29.5 -70t-70.5 -29t-70 29zM327.5 804q14.5 15 14.5 35q0 21 -14.5 35.5t-34.5 14.5q-21 0 -35.5 -14.5t-14.5 -34.5
q0 -21 14.5 -36t35.5 -15q20 0 34.5 15z" />
    <glyph glyph-name="AE" unicode="&#xc6;" horiz-adv-x="822" 
d="M472 62h311v-62h-385v198h-212l-116 -198h-70l398 680v2h382v-63h-308v-218h240v-61h-240v-278zM398 253v309l-180 -309h180z" />
    <glyph glyph-name="Ccedilla" unicode="&#xc7;" horiz-adv-x="605" 
d="M354 -15l-26 -53q51 0 79 -17t28 -40q0 -75 -205 -75v27q50 0 95 12q45 10 45 30q0 11 -8 16.5t-31 8.5t-69 3l41 88q-117 11 -182.5 104t-65.5 250q0 112 32.5 192.5t93 123t143.5 42.5q85 0 145.5 -37.5t94.5 -105.5l-60 -35q-32 59 -75 84.5t-105 25.5
q-89 0 -139.5 -76.5t-50.5 -212.5q0 -89 23 -154t66 -99.5t100 -34.5q71 0 110.5 31.5t73.5 98.5l63 -38q-69 -149 -216 -159z" />
    <glyph glyph-name="Egrave" unicode="&#xc8;" horiz-adv-x="503" 
d="M79 0v682h382v-63h-307v-238h240v-61h-240v-258h310v-62h-385zM387 725l-230 87l34 58l216 -111z" />
    <glyph glyph-name="Eacute" unicode="&#xc9;" horiz-adv-x="503" 
d="M79 0v682h382v-63h-307v-238h240v-61h-240v-258h310v-62h-385zM177 725l-20 34l216 111l34 -58z" />
    <glyph glyph-name="Ecircumflex" unicode="&#xca;" horiz-adv-x="503" 
d="M79 0v682h382v-63h-307v-238h240v-61h-240v-258h310v-62h-385zM145 737l-19 34l155 104l156 -104l-19 -34l-137 67z" />
    <glyph glyph-name="Edieresis" unicode="&#xcb;" horiz-adv-x="503" 
d="M79 0v682h382v-63h-307v-238h240v-61h-240v-258h310v-62h-385zM145.5 775q-15.5 16 -15.5 39q0 22 15.5 37.5t38.5 15.5q22 0 38.5 -15.5t16.5 -38.5q0 -22 -16.5 -38t-38.5 -16q-23 0 -38.5 16zM341 775q-16 16 -16 39q0 22 16 37.5t39 15.5q22 0 38 -15.5t16 -38.5
q0 -22 -16 -38t-38 -16q-23 0 -39 16z" />
    <glyph glyph-name="Igrave" unicode="&#xcc;" horiz-adv-x="317" 
d="M55 0v66h66v550h-66v66h207v-66h-66v-550h66v-66h-207zM264 725l-230 87l34 58l216 -111z" />
    <glyph glyph-name="Iacute" unicode="&#xcd;" horiz-adv-x="317" 
d="M55 0v66h66v550h-66v66h207v-66h-66v-550h66v-66h-207zM54 725l-20 34l216 111l34 -58z" />
    <glyph glyph-name="Icircumflex" unicode="&#xce;" horiz-adv-x="317" 
d="M55 0v66h66v550h-66v66h207v-66h-66v-550h66v-66h-207zM22 737l-19 34l155 104l156 -104l-19 -34l-137 67z" />
    <glyph glyph-name="Idieresis" unicode="&#xcf;" horiz-adv-x="317" 
d="M55 0v66h66v550h-66v66h207v-66h-66v-550h66v-66h-207zM22.5 775q-15.5 16 -15.5 39q0 22 15.5 37.5t38.5 15.5q22 0 38.5 -15.5t16.5 -38.5q0 -22 -16.5 -38t-38.5 -16q-23 0 -38.5 16zM218 775q-16 16 -16 39q0 22 16 37.5t39 15.5q22 0 38 -15.5t16 -38.5
q0 -22 -16 -38t-38 -16q-23 0 -39 16z" />
    <glyph glyph-name="Eth" unicode="&#xd0;" horiz-adv-x="641" 
d="M430 641.5q76 -40.5 116 -117.5t40 -184q0 -160 -89 -250t-248 -90h-169v317h-70v48h70v317h169q105 0 181 -40.5zM438 135q69 67 69 205q0 139 -69 206t-191 67h-92v-248h117v-48h-117v-249h92q122 0 191 67z" />
    <glyph glyph-name="Ntilde" unicode="&#xd1;" horiz-adv-x="662" 
d="M80 0v682h80l347 -569v569h75v-682h-80l-347 567v-567h-75zM352.5 747q-16.5 6 -35.5 17q-3 2 -16.5 8t-26.5 9.5t-27 3.5q-26 0 -39.5 -8t-18.5 -26h-45q5 39 29.5 67t68.5 28q21 0 38.5 -6t42.5 -19q20 -10 36 -15.5t32 -5.5q21 0 34.5 10.5t15.5 25.5h46
q-5 -41 -27.5 -68t-68.5 -27q-22 0 -38.5 6z" />
    <glyph glyph-name="Ograve" unicode="&#xd2;" horiz-adv-x="696" 
d="M196.5 29.5q-66.5 45.5 -104 126.5t-37.5 184t37.5 184.5t104 127t151.5 45.5t151.5 -45.5t104 -127t37.5 -185.5q0 -103 -37.5 -183.5t-104 -126t-151.5 -45.5t-151.5 45.5zM459.5 89.5q49.5 36.5 77.5 102t28 148.5t-28 149t-77.5 103t-111.5 37t-111.5 -37t-77.5 -103
t-28 -149t28 -148.5t77.5 -102t111.5 -36.5t111.5 36.5zM453 725l-230 87l34 58l216 -111z" />
    <glyph glyph-name="Oacute" unicode="&#xd3;" horiz-adv-x="696" 
d="M196.5 29.5q-66.5 45.5 -104 126.5t-37.5 184t37.5 184.5t104 127t151.5 45.5t151.5 -45.5t104 -127t37.5 -185.5q0 -103 -37.5 -183.5t-104 -126t-151.5 -45.5t-151.5 45.5zM459.5 89.5q49.5 36.5 77.5 102t28 148.5t-28 149t-77.5 103t-111.5 37t-111.5 -37t-77.5 -103
t-28 -149t28 -148.5t77.5 -102t111.5 -36.5t111.5 36.5zM243 725l-20 34l216 111l34 -58z" />
    <glyph glyph-name="Ocircumflex" unicode="&#xd4;" horiz-adv-x="696" 
d="M196.5 29.5q-66.5 45.5 -104 126.5t-37.5 184t37.5 184.5t104 127t151.5 45.5t151.5 -45.5t104 -127t37.5 -185.5q0 -103 -37.5 -183.5t-104 -126t-151.5 -45.5t-151.5 45.5zM459.5 89.5q49.5 36.5 77.5 102t28 148.5t-28 149t-77.5 103t-111.5 37t-111.5 -37t-77.5 -103
t-28 -149t28 -148.5t77.5 -102t111.5 -36.5t111.5 36.5zM211 737l-19 34l155 104l156 -104l-19 -34l-137 67z" />
    <glyph glyph-name="Otilde" unicode="&#xd5;" horiz-adv-x="696" 
d="M196.5 29.5q-66.5 45.5 -104 126.5t-37.5 184t37.5 184.5t104 127t151.5 45.5t151.5 -45.5t104 -127t37.5 -185.5q0 -103 -37.5 -183.5t-104 -126t-151.5 -45.5t-151.5 45.5zM459.5 89.5q49.5 36.5 77.5 102t28 148.5t-28 149t-77.5 103t-111.5 37t-111.5 -37t-77.5 -103
t-28 -149t28 -148.5t77.5 -102t111.5 -36.5t111.5 36.5zM384.5 747q-16.5 6 -35.5 17q-3 2 -16.5 8t-26.5 9.5t-27 3.5q-26 0 -39.5 -8t-18.5 -26h-45q5 39 29.5 67t68.5 28q21 0 38.5 -6t42.5 -19q20 -10 36 -15.5t32 -5.5q21 0 34.5 10.5t15.5 25.5h46q-5 -41 -27.5 -68
t-68.5 -27q-22 0 -38.5 6z" />
    <glyph glyph-name="Odieresis" unicode="&#xd6;" horiz-adv-x="696" 
d="M196.5 29.5q-66.5 45.5 -104 126.5t-37.5 184t37.5 184.5t104 127t151.5 45.5t151.5 -45.5t104 -127t37.5 -185.5q0 -103 -37.5 -183.5t-104 -126t-151.5 -45.5t-151.5 45.5zM459.5 89.5q49.5 36.5 77.5 102t28 148.5t-28 149t-77.5 103t-111.5 37t-111.5 -37t-77.5 -103
t-28 -149t28 -148.5t77.5 -102t111.5 -36.5t111.5 36.5zM211.5 775q-15.5 16 -15.5 39q0 22 15.5 37.5t38.5 15.5q22 0 38.5 -15.5t16.5 -38.5q0 -22 -16.5 -38t-38.5 -16q-23 0 -38.5 16zM407 775q-16 16 -16 39q0 22 16 37.5t39 15.5q22 0 38 -15.5t16 -38.5
q0 -22 -16 -38t-38 -16q-23 0 -39 16z" />
    <glyph glyph-name="multiply" unicode="&#xd7;" horiz-adv-x="500" 
d="M126 153l-38 39l121 122l-114 114l39 40l115 -114l121 121l39 -39l-121 -121l121 -122l-40 -40l-121 122z" />
    <glyph glyph-name="Oslash" unicode="&#xd8;" horiz-adv-x="696" 
d="M606 519q35 -80 35 -180q0 -103 -37.5 -183.5t-104 -126t-151.5 -45.5q-72 0 -136 35l-39 -82l-49 24l43 91q-53 48 -82.5 122.5t-29.5 165.5q0 103 37.5 184.5t104 127t151.5 45.5q61 0 112 -24l33 70l52 -23l-36 -75q62 -46 97 -126zM149 218.5q18 -55.5 52 -95.5
l229 487q-40 19 -82 19q-62 0 -111.5 -37t-77.5 -103t-28 -149q0 -66 18 -121.5zM459.5 89.5q49.5 36.5 77.5 102t28 148.5q0 75 -23.5 136.5t-64.5 100.5l-234 -492q47 -32 105 -32q62 0 111.5 36.5z" />
    <glyph glyph-name="Ugrave" unicode="&#xd9;" horiz-adv-x="660" 
d="M143 52.5q-63 68.5 -63 200.5v429h75v-429q0 -201 177 -201q80 0 126.5 52t46.5 149v429h75v-429q0 -130 -65.5 -199.5t-182.5 -69.5q-126 0 -189 68.5zM435 725l-230 87l34 58l216 -111z" />
    <glyph glyph-name="Uacute" unicode="&#xda;" horiz-adv-x="660" 
d="M143 52.5q-63 68.5 -63 200.5v429h75v-429q0 -201 177 -201q80 0 126.5 52t46.5 149v429h75v-429q0 -130 -65.5 -199.5t-182.5 -69.5q-126 0 -189 68.5zM225 725l-20 34l216 111l34 -58z" />
    <glyph glyph-name="Ucircumflex" unicode="&#xdb;" horiz-adv-x="660" 
d="M143 52.5q-63 68.5 -63 200.5v429h75v-429q0 -201 177 -201q80 0 126.5 52t46.5 149v429h75v-429q0 -130 -65.5 -199.5t-182.5 -69.5q-126 0 -189 68.5zM193 737l-19 34l155 104l156 -104l-19 -34l-137 67z" />
    <glyph glyph-name="Udieresis" unicode="&#xdc;" horiz-adv-x="660" 
d="M143 52.5q-63 68.5 -63 200.5v429h75v-429q0 -201 177 -201q80 0 126.5 52t46.5 149v429h75v-429q0 -130 -65.5 -199.5t-182.5 -69.5q-126 0 -189 68.5zM193.5 775q-15.5 16 -15.5 39q0 22 15.5 37.5t38.5 15.5q22 0 38.5 -15.5t16.5 -38.5q0 -22 -16.5 -38t-38.5 -16
q-23 0 -38.5 16zM389 775q-16 16 -16 39q0 22 16 37.5t39 15.5q22 0 38 -15.5t16 -38.5q0 -22 -16 -38t-38 -16q-23 0 -39 16z" />
    <glyph glyph-name="Yacute" unicode="&#xdd;" horiz-adv-x="484" 
d="M430 682h69l-221 -403v-279h-74v282l-219 400h75l186 -340zM137 725l-20 34l216 111l34 -58z" />
    <glyph glyph-name="Thorn" unicode="&#xde;" horiz-adv-x="526" 
d="M80 682h75v-100h144q92 0 147 -53.5t55 -147.5q0 -93 -57.5 -146.5t-152.5 -53.5h-135v-181h-76v682zM289 243q68 0 102.5 35t34.5 103t-35 103.5t-102 35.5h-133v-277h133z" />
    <glyph glyph-name="germandbls" unicode="&#xdf;" horiz-adv-x="532" 
d="M194 7l14 66q40 -12 74 -12q64 0 97.5 41t33.5 118q0 55 -15.5 89.5t-53.5 52t-107 17.5v62q79 0 111.5 33t32.5 89q0 54 -28.5 83.5t-81.5 29.5q-63 0 -93 -36.5t-30 -110.5v-529h-68v529q0 101 50 158t141 57q80 0 129 -49.5t49 -131.5q0 -51 -26.5 -89.5t-78.5 -61.5
q73 -14 110 -64.5t37 -127.5q0 -106 -55.5 -165.5t-152.5 -59.5q-41 0 -89 12z" />
    <glyph glyph-name="agrave" unicode="&#xe0;" horiz-adv-x="561" 
d="M498 468v-468h-68v69q-29 -40 -71 -62.5t-92 -22.5q-67 0 -120 32t-83 89t-30 130q0 72 29.5 128.5t82 88.5t119.5 32q51 0 93.5 -22.5t71.5 -63.5v70h68zM350.5 70q37.5 24 58.5 67t21 97t-21 97t-58.5 67t-85.5 24q-47 0 -84 -24t-58 -66.5t-21 -96.5q0 -55 21 -98
t58 -67t84 -24q48 0 85.5 24zM356 537l-200 87l34 58l186 -111z" />
    <glyph glyph-name="aacute" unicode="&#xe1;" horiz-adv-x="561" 
d="M498 468v-468h-68v69q-29 -40 -71 -62.5t-92 -22.5q-67 0 -120 32t-83 89t-30 130q0 72 29.5 128.5t82 88.5t119.5 32q51 0 93.5 -22.5t71.5 -63.5v70h68zM350.5 70q37.5 24 58.5 67t21 97t-21 97t-58.5 67t-85.5 24q-47 0 -84 -24t-58 -66.5t-21 -96.5q0 -55 21 -98
t58 -67t84 -24q48 0 85.5 24zM236 537l-20 34l186 111l34 -58z" />
    <glyph glyph-name="acircumflex" unicode="&#xe2;" horiz-adv-x="561" 
d="M498 468v-468h-68v69q-29 -40 -71 -62.5t-92 -22.5q-67 0 -120 32t-83 89t-30 130q0 72 29.5 128.5t82 88.5t119.5 32q51 0 93.5 -22.5t71.5 -63.5v70h68zM350.5 70q37.5 24 58.5 67t21 97t-21 97t-58.5 67t-85.5 24q-47 0 -84 -24t-58 -66.5t-21 -96.5q0 -55 21 -98
t58 -67t84 -24q48 0 85.5 24zM164 567l-19 34l135 124l136 -124l-19 -34l-117 77z" />
    <glyph glyph-name="atilde" unicode="&#xe3;" horiz-adv-x="561" 
d="M498 468v-468h-68v69q-29 -40 -71 -62.5t-92 -22.5q-67 0 -120 32t-83 89t-30 130q0 72 29.5 128.5t82 88.5t119.5 32q51 0 93.5 -22.5t71.5 -63.5v70h68zM350.5 70q37.5 24 58.5 67t21 97t-21 97t-58.5 67t-85.5 24q-47 0 -84 -24t-58 -66.5t-21 -96.5q0 -55 21 -98
t58 -67t84 -24q48 0 85.5 24zM143.5 643.5q29.5 40.5 73.5 40.5q21 0 37 -8.5t39 -26.5q20 -16 33.5 -23.5t29.5 -7.5q21 0 34.5 19t15.5 47h46q-5 -52 -32.5 -91t-73.5 -39q-22 0 -36 8t-33 25q-18 16 -31.5 23.5t-33.5 7.5q-26 0 -39.5 -15.5t-18.5 -48.5h-45
q5 49 34.5 89.5z" />
    <glyph glyph-name="adieresis" unicode="&#xe4;" horiz-adv-x="561" 
d="M498 468v-468h-68v69q-29 -40 -71 -62.5t-92 -22.5q-67 0 -120 32t-83 89t-30 130q0 72 29.5 128.5t82 88.5t119.5 32q51 0 93.5 -22.5t71.5 -63.5v70h68zM350.5 70q37.5 24 58.5 67t21 97t-21 97t-58.5 67t-85.5 24q-47 0 -84 -24t-58 -66.5t-21 -96.5q0 -55 21 -98
t58 -67t84 -24q48 0 85.5 24zM144.5 575q-15.5 16 -15.5 39q0 22 15.5 37.5t38.5 15.5q22 0 38.5 -15.5t16.5 -38.5q0 -22 -16.5 -38t-38.5 -16q-23 0 -38.5 16zM340 575q-16 16 -16 39q0 22 16 37.5t39 15.5q22 0 38 -15.5t16 -38.5q0 -22 -16 -38t-38 -16q-23 0 -39 16z
" />
    <glyph glyph-name="aring" unicode="&#xe5;" horiz-adv-x="561" 
d="M498 468v-468h-68v69q-29 -40 -71 -62.5t-92 -22.5q-67 0 -120 32t-83 89t-30 130q0 72 29.5 128.5t82 88.5t119.5 32q51 0 93.5 -22.5t71.5 -63.5v70h68zM350.5 70q37.5 24 58.5 67t21 97t-21 97t-58.5 67t-85.5 24q-47 0 -84 -24t-58 -66.5t-21 -96.5q0 -55 21 -98
t58 -67t84 -24q48 0 85.5 24zM210 589q-29 29 -29 70t29 70.5t70 29.5t70.5 -29.5t29.5 -70.5t-29.5 -70t-70.5 -29t-70 29zM315.5 624q14.5 15 14.5 35q0 21 -14.5 35.5t-34.5 14.5q-21 0 -35.5 -14.5t-14.5 -34.5q0 -21 14.5 -36t35.5 -15q20 0 34.5 15z" />
    <glyph glyph-name="ae" unicode="&#xe6;" horiz-adv-x="876" 
d="M733.5 455.5q50.5 -28.5 78.5 -80.5t28 -120q0 -11 -2 -35h-385q4 -72 47 -123t117 -51q60 0 99.5 22.5t63.5 62.5l54 -36q-33 -52 -87 -81.5t-128 -29.5q-51 0 -94.5 19t-75.5 53q-49 -37 -96 -54.5t-107 -17.5q-86 0 -138.5 38.5t-52.5 110.5q0 49 30.5 84.5t81 54
t109.5 18.5q39 0 58 -3.5t51 -14.5q-7 74 -41 113.5t-101 39.5q-38 0 -69 -15t-56 -46l-49 35q34 42 79 63t97 21q69 0 113.5 -28.5t61.5 -80.5q30 52 81 81t115 29q67 0 117.5 -28.5zM771 276q-10 73 -49 109.5t-106 36.5q-65 0 -106.5 -41.5t-52.5 -104.5h314zM417 100
q-29 55 -32 119q-53 11 -99 11q-69 0 -112.5 -24t-43.5 -70t32.5 -68t92.5 -22q86 0 162 54z" />
    <glyph glyph-name="ccedilla" unicode="&#xe7;" horiz-adv-x="477" 
d="M376 11q-45 -24 -97 -27l-25 -52q51 0 79 -17t28 -40q0 -75 -205 -75v27q50 0 95 12q45 10 45 30q0 11 -8 16.5t-31 8.5t-69 3l42 90q-59 8 -103.5 41.5t-69.5 86.5t-25 119q0 72 29.5 129t82.5 89t120 32q57 0 99.5 -24.5t77.5 -69.5l-50 -39q-49 71 -127 71
q-47 0 -84.5 -24t-58.5 -67t-21 -97t21 -97t58.5 -67t84.5 -24q48 0 79 16.5t56 48.5l53 -37q-31 -39 -76 -63z" />
    <glyph glyph-name="egrave" unicode="&#xe8;" horiz-adv-x="525" 
d="M379 453q51 -31 80 -84.5t29 -119.5q0 -19 -1 -29h-385q4 -72 47 -123t117 -51q60 0 99.5 22.5t63.5 62.5l54 -36q-33 -52 -87 -81.5t-128 -29.5q-68 0 -121 32t-83 89t-30 129t29.5 129t82 89t119.5 32q63 0 114 -31zM420 276q-10 73 -49 109.5t-106 36.5
q-65 0 -106.5 -41.5t-52.5 -104.5h314zM338 537l-200 87l34 58l186 -111z" />
    <glyph glyph-name="eacute" unicode="&#xe9;" horiz-adv-x="525" 
d="M379 453q51 -31 80 -84.5t29 -119.5q0 -19 -1 -29h-385q4 -72 47 -123t117 -51q60 0 99.5 22.5t63.5 62.5l54 -36q-33 -52 -87 -81.5t-128 -29.5q-68 0 -121 32t-83 89t-30 129t29.5 129t82 89t119.5 32q63 0 114 -31zM420 276q-10 73 -49 109.5t-106 36.5
q-65 0 -106.5 -41.5t-52.5 -104.5h314zM218 537l-20 34l186 111l34 -58z" />
    <glyph glyph-name="ecircumflex" unicode="&#xea;" horiz-adv-x="525" 
d="M379 453q51 -31 80 -84.5t29 -119.5q0 -19 -1 -29h-385q4 -72 47 -123t117 -51q60 0 99.5 22.5t63.5 62.5l54 -36q-33 -52 -87 -81.5t-128 -29.5q-68 0 -121 32t-83 89t-30 129t29.5 129t82 89t119.5 32q63 0 114 -31zM420 276q-10 73 -49 109.5t-106 36.5
q-65 0 -106.5 -41.5t-52.5 -104.5h314zM146 567l-19 34l135 124l136 -124l-19 -34l-117 77z" />
    <glyph glyph-name="edieresis" unicode="&#xeb;" horiz-adv-x="525" 
d="M379 453q51 -31 80 -84.5t29 -119.5q0 -19 -1 -29h-385q4 -72 47 -123t117 -51q60 0 99.5 22.5t63.5 62.5l54 -36q-33 -52 -87 -81.5t-128 -29.5q-68 0 -121 32t-83 89t-30 129t29.5 129t82 89t119.5 32q63 0 114 -31zM420 276q-10 73 -49 109.5t-106 36.5
q-65 0 -106.5 -41.5t-52.5 -104.5h314zM126.5 575q-15.5 16 -15.5 39q0 22 15.5 37.5t38.5 15.5q22 0 38.5 -15.5t16.5 -38.5q0 -22 -16.5 -38t-38.5 -16q-23 0 -38.5 16zM322 575q-16 16 -16 39q0 22 16 37.5t39 15.5q22 0 38 -15.5t16 -38.5q0 -22 -16 -38t-38 -16
q-23 0 -39 16z" />
    <glyph glyph-name="igrave" unicode="&#xec;" horiz-adv-x="268" 
d="M100 0v468h68v-468h-68zM126 528l-125 141l46 40l115 -150z" />
    <glyph glyph-name="iacute" unicode="&#xed;" horiz-adv-x="268" 
d="M100 0v468h68v-468h-68zM124 528l-36 31l115 150l46 -40z" />
    <glyph glyph-name="icircumflex" unicode="&#xee;" horiz-adv-x="268" 
d="M100 0v468h68v-468h-68zM134 720l115 -124l-36 -29l-78 72l-83 -72l-34 29z" />
    <glyph glyph-name="idieresis" unicode="&#xef;" horiz-adv-x="268" 
d="M100 0v468h68v-468h-68zM21 578.5q-14 14.5 -14 35.5q0 20 14 34t35 14q20 0 35 -14t15 -35q0 -19 -15 -34t-35 -15q-21 0 -35 14.5zM176.5 578.5q-14.5 14.5 -14.5 35.5q0 20 14.5 34t35.5 14q20 0 34.5 -14t14.5 -35q0 -19 -15 -34t-34 -15q-21 0 -35.5 14.5z" />
    <glyph glyph-name="eth" unicode="&#xf0;" horiz-adv-x="531" 
d="M498 216v0q-4 -67 -34.5 -120t-81.5 -82.5t-115 -29.5q-67 0 -120 32t-83 89t-30 130q0 72 29.5 128.5t82 88.5t119.5 32q45 0 88 -24.5t70 -67.5q-13 85 -47 140t-89 91l-56 -63l-32 30l50 55q-35 18 -87 35l25 49q54 -19 99 -43l54 60l31 -29l-47 -53q90 -59 131 -158
t43 -272v-6v-12zM350.5 70q37.5 24 58.5 67t21 97t-21 97t-58.5 67t-85.5 24q-47 0 -84 -24t-58 -66.5t-21 -96.5q0 -55 21 -98t58 -67t84 -24q48 0 85.5 24z" />
    <glyph glyph-name="ntilde" unicode="&#xf1;" horiz-adv-x="537" 
d="M376.5 464q41.5 -20 66 -59t24.5 -92v-313h-68v283q0 139 -124 139q-72 0 -108 -51t-36 -137v-234h-68v468h68v-78q24 45 63.5 69.5t91.5 24.5q49 0 90.5 -20zM141.5 643.5q29.5 40.5 73.5 40.5q21 0 37 -8.5t39 -26.5q20 -16 33.5 -23.5t29.5 -7.5q21 0 34.5 19t15.5 47
h46q-5 -52 -32.5 -91t-73.5 -39q-22 0 -36 8t-33 25q-18 16 -31.5 23.5t-33.5 7.5q-26 0 -39.5 -15.5t-18.5 -48.5h-45q5 49 34.5 89.5z" />
    <glyph glyph-name="ograve" unicode="&#xf2;" horiz-adv-x="531" 
d="M147 16q-53 32 -83 89.5t-30 129.5t29.5 128.5t82 88.5t119.5 32t120 -32t83 -89t30 -129t-29.5 -129t-82 -89t-119.5 -32t-120 32zM350.5 70q37.5 24 58.5 67t21 97t-21 97t-58.5 67t-85.5 24q-47 0 -84 -24t-58 -66.5t-21 -96.5q0 -55 21 -98t58 -67t84 -24
q48 0 85.5 24zM341 537l-200 87l34 58l186 -111z" />
    <glyph glyph-name="oacute" unicode="&#xf3;" horiz-adv-x="531" 
d="M147 16q-53 32 -83 89.5t-30 129.5t29.5 128.5t82 88.5t119.5 32t120 -32t83 -89t30 -129t-29.5 -129t-82 -89t-119.5 -32t-120 32zM350.5 70q37.5 24 58.5 67t21 97t-21 97t-58.5 67t-85.5 24q-47 0 -84 -24t-58 -66.5t-21 -96.5q0 -55 21 -98t58 -67t84 -24
q48 0 85.5 24zM221 537l-20 34l186 111l34 -58z" />
    <glyph glyph-name="ocircumflex" unicode="&#xf4;" horiz-adv-x="531" 
d="M147 16q-53 32 -83 89.5t-30 129.5t29.5 128.5t82 88.5t119.5 32t120 -32t83 -89t30 -129t-29.5 -129t-82 -89t-119.5 -32t-120 32zM350.5 70q37.5 24 58.5 67t21 97t-21 97t-58.5 67t-85.5 24q-47 0 -84 -24t-58 -66.5t-21 -96.5q0 -55 21 -98t58 -67t84 -24
q48 0 85.5 24zM149 567l-19 34l135 124l136 -124l-19 -34l-117 77z" />
    <glyph glyph-name="otilde" unicode="&#xf5;" horiz-adv-x="531" 
d="M147 16q-53 32 -83 89.5t-30 129.5t29.5 128.5t82 88.5t119.5 32t120 -32t83 -89t30 -129t-29.5 -129t-82 -89t-119.5 -32t-120 32zM350.5 70q37.5 24 58.5 67t21 97t-21 97t-58.5 67t-85.5 24q-47 0 -84 -24t-58 -66.5t-21 -96.5q0 -55 21 -98t58 -67t84 -24
q48 0 85.5 24zM128.5 643.5q29.5 40.5 73.5 40.5q21 0 37 -8.5t39 -26.5q20 -16 33.5 -23.5t29.5 -7.5q21 0 34.5 19t15.5 47h46q-5 -52 -32.5 -91t-73.5 -39q-22 0 -36 8t-33 25q-18 16 -31.5 23.5t-33.5 7.5q-26 0 -39.5 -15.5t-18.5 -48.5h-45q5 49 34.5 89.5z" />
    <glyph glyph-name="odieresis" unicode="&#xf6;" horiz-adv-x="531" 
d="M147 16q-53 32 -83 89.5t-30 129.5t29.5 128.5t82 88.5t119.5 32t120 -32t83 -89t30 -129t-29.5 -129t-82 -89t-119.5 -32t-120 32zM350.5 70q37.5 24 58.5 67t21 97t-21 97t-58.5 67t-85.5 24q-47 0 -84 -24t-58 -66.5t-21 -96.5q0 -55 21 -98t58 -67t84 -24
q48 0 85.5 24zM129.5 575q-15.5 16 -15.5 39q0 22 15.5 37.5t38.5 15.5q22 0 38.5 -15.5t16.5 -38.5q0 -22 -16.5 -38t-38.5 -16q-23 0 -38.5 16zM325 575q-16 16 -16 39q0 22 16 37.5t39 15.5q22 0 38 -15.5t16 -38.5q0 -22 -16 -38t-38 -16q-23 0 -39 16z" />
    <glyph glyph-name="divide" unicode="&#xf7;" horiz-adv-x="500" 
d="M212 419.5q-16 16.5 -16 38.5t16 38t38 16q23 0 38.5 -16t15.5 -38t-15.5 -38.5t-38.5 -16.5q-22 0 -38 16.5zM50 283v55h400v-55h-400zM212 108q-16 16 -16 39q0 22 16 38t38 16q23 0 38.5 -16t15.5 -39q0 -22 -15.5 -38t-38.5 -16q-22 0 -38 16z" />
    <glyph glyph-name="oslash" unicode="&#xf8;" horiz-adv-x="531" 
d="M471 357q27 -55 27 -123q0 -72 -29.5 -129t-82 -89t-119.5 -32q-39 0 -80 13l-28 -59l-51 23l29 62q-49 33 -76 88t-27 124q0 72 29.5 128.5t82 88.5t119.5 32q42 0 81 -14l41 88l52 -23l-42 -90q47 -33 74 -88zM118.5 146.5q16.5 -39.5 46.5 -64.5l154 331q-24 9 -54 9
q-47 0 -84 -24t-58 -66.5t-21 -96.5q0 -49 16.5 -88.5zM350.5 70q37.5 24 58.5 67t21 97q0 47 -16 86t-46 65l-154 -331q26 -8 51 -8q48 0 85.5 24z" />
    <glyph glyph-name="ugrave" unicode="&#xf9;" horiz-adv-x="537" 
d="M474 468v-468h-68v78q-24 -45 -63.5 -69.5t-91.5 -24.5q-49 0 -90.5 20t-66 59t-24.5 92v313h68v-283q0 -139 124 -139q72 0 108 51t36 137v234h68zM344 537l-200 87l34 58l186 -111z" />
    <glyph glyph-name="uacute" unicode="&#xfa;" horiz-adv-x="537" 
d="M474 468v-468h-68v78q-24 -45 -63.5 -69.5t-91.5 -24.5q-49 0 -90.5 20t-66 59t-24.5 92v313h68v-283q0 -139 124 -139q72 0 108 51t36 137v234h68zM224 537l-20 34l186 111l34 -58z" />
    <glyph glyph-name="ucircumflex" unicode="&#xfb;" horiz-adv-x="537" 
d="M474 468v-468h-68v78q-24 -45 -63.5 -69.5t-91.5 -24.5q-49 0 -90.5 20t-66 59t-24.5 92v313h68v-283q0 -139 124 -139q72 0 108 51t36 137v234h68zM152 567l-19 34l135 124l136 -124l-19 -34l-117 77z" />
    <glyph glyph-name="udieresis" unicode="&#xfc;" horiz-adv-x="537" 
d="M474 468v-468h-68v78q-24 -45 -63.5 -69.5t-91.5 -24.5q-49 0 -90.5 20t-66 59t-24.5 92v313h68v-283q0 -139 124 -139q72 0 108 51t36 137v234h68zM132.5 575q-15.5 16 -15.5 39q0 22 15.5 37.5t38.5 15.5q22 0 38.5 -15.5t16.5 -38.5q0 -22 -16.5 -38t-38.5 -16
q-23 0 -38.5 16zM328 575q-16 16 -16 39q0 22 16 37.5t39 15.5q22 0 38 -15.5t16 -38.5q0 -22 -16 -38t-38 -16q-23 0 -39 16z" />
    <glyph glyph-name="yacute" unicode="&#xfd;" horiz-adv-x="449" 
d="M385 468h64l-253 -668h-68l74 191l-192 477h71l155 -388zM180 537l-20 34l186 111l34 -58z" />
    <glyph glyph-name="thorn" unicode="&#xfe;" horiz-adv-x="565" 
d="M419 452q53 -32 83 -89t30 -130q0 -72 -29.5 -128.5t-82 -88.5t-119.5 -32q-51 0 -93.5 22.5t-71.5 63.5v-270h-68v882h68v-283q29 40 71 62.5t92 22.5q67 0 120 -32zM385 70q37 24 58 66.5t21 96.5q0 55 -21 98t-58 67t-84 24q-48 0 -85.5 -24t-58.5 -67t-21 -97t21 -97
t58.5 -67t85.5 -24q47 0 84 24z" />
    <glyph glyph-name="ydieresis" unicode="&#xff;" horiz-adv-x="449" 
d="M385 468h64l-253 -668h-68l74 191l-192 477h71l155 -388zM88.5 575q-15.5 16 -15.5 39q0 22 15.5 37.5t38.5 15.5q22 0 38.5 -15.5t16.5 -38.5q0 -22 -16.5 -38t-38.5 -16q-23 0 -38.5 16zM284 575q-16 16 -16 39q0 22 16 37.5t39 15.5q22 0 38 -15.5t16 -38.5
q0 -22 -16 -38t-38 -16q-23 0 -39 16z" />
    <glyph glyph-name="Amacron" unicode="&#x100;" horiz-adv-x="585" 
d="M503 0l-70 191h-283l-63 -191h-75l242 682h70l249 -682h-70zM173 253h237l-122 331zM159 766v45h267v-45h-267z" />
    <glyph glyph-name="amacron" unicode="&#x101;" horiz-adv-x="561" 
d="M498 468v-468h-68v69q-29 -40 -71 -62.5t-92 -22.5q-67 0 -120 32t-83 89t-30 130q0 72 29.5 128.5t82 88.5t119.5 32q51 0 93.5 -22.5t71.5 -63.5v70h68zM350.5 70q37.5 24 58.5 67t21 97t-21 97t-58.5 67t-85.5 24q-47 0 -84 -24t-58 -66.5t-21 -96.5q0 -55 21 -98
t58 -67t84 -24q48 0 85.5 24zM147 586v45h267v-45h-267z" />
    <glyph glyph-name="Abreve" unicode="&#x102;" horiz-adv-x="585" 
d="M503 0l-70 191h-283l-63 -191h-75l242 682h70l249 -682h-70zM173 253h237l-122 331zM188 769.5q-40 29.5 -41 88.5h41q10 -57 105 -57t105 57h41q-1 -59 -41 -88.5t-105 -29.5t-105 29.5z" />
    <glyph glyph-name="abreve" unicode="&#x103;" horiz-adv-x="561" 
d="M498 468v-468h-68v69q-29 -40 -71 -62.5t-92 -22.5q-67 0 -120 32t-83 89t-30 130q0 72 29.5 128.5t82 88.5t119.5 32q51 0 93.5 -22.5t71.5 -63.5v70h68zM350.5 70q37.5 24 58.5 67t21 97t-21 97t-58.5 67t-85.5 24q-47 0 -84 -24t-58 -66.5t-21 -96.5q0 -55 21 -98
t58 -67t84 -24q48 0 85.5 24zM183 594.5q-37 34.5 -38 103.5h41q4 -39 28.5 -58t66.5 -19t66.5 19t28.5 58h41q-1 -69 -38 -103.5t-98 -34.5t-98 34.5z" />
    <glyph glyph-name="Aogonek" unicode="&#x104;" horiz-adv-x="585" 
d="M548 -163l12 -22q-51 -28 -93 -28q-32 0 -55.5 16.5t-33.5 46.5q-5 14 -5 33q0 44 35 80.5t89 53.5l-64 174h-283l-63 -191h-75l242 682h70l249 -682h-66q-28 -17 -46 -42.5t-18 -56.5q0 -17 8 -39q7 -18 20.5 -27.5t32.5 -9.5q20 0 44 12zM173 253h237l-122 331z" />
    <glyph glyph-name="aogonek" unicode="&#x105;" horiz-adv-x="561" 
d="M539 -185q-51 -28 -93 -28q-32 0 -55.5 16.5t-33.5 46.5q-5 14 -5 33q0 35 22.5 65.5t60.5 51.5h-5v69q-29 -40 -71 -62.5t-92 -22.5q-67 0 -120 32t-83 89t-30 130q0 72 29.5 128.5t82 88.5t119.5 32q51 0 93.5 -22.5t71.5 -63.5v70h68v-445l7 1v-14l-7 -3v-7h-12
q-28 -17 -46 -42.5t-18 -56.5q0 -17 8 -39q7 -18 20.5 -27.5t32.5 -9.5q20 0 44 12zM350.5 70q37.5 24 58.5 67t21 97t-21 97t-58.5 67t-85.5 24q-47 0 -84 -24t-58 -66.5t-21 -96.5q0 -55 21 -98t58 -67t84 -24q48 0 85.5 24z" />
    <glyph glyph-name="Cacute" unicode="&#x106;" horiz-adv-x="605" 
d="M184.5 26.5q-62.5 42.5 -96 122t-33.5 190.5q0 112 32.5 192.5t93 123t143.5 42.5q85 0 145.5 -37.5t94.5 -105.5l-60 -35q-32 59 -75 84.5t-105 25.5q-89 0 -139.5 -76.5t-50.5 -212.5q0 -89 23 -154t66 -99.5t100 -34.5q71 0 110.5 31.5t73.5 98.5l63 -38
q-36 -78 -95.5 -119t-141.5 -41q-86 0 -148.5 42.5zM222 725l-20 34l216 111l34 -58z" />
    <glyph glyph-name="cacute" unicode="&#x107;" horiz-adv-x="477" 
d="M145 16q-53 32 -83 89t-30 129t29.5 129t82.5 89t120 32q57 0 99.5 -24.5t77.5 -69.5l-50 -39q-49 71 -127 71q-47 0 -84.5 -24t-58.5 -67t-21 -97t21 -97t58.5 -67t84.5 -24q48 0 79 16.5t56 48.5l53 -37q-33 -41 -81.5 -65.5t-104.5 -24.5q-68 0 -121 32zM224 537
l-20 34l186 111l34 -58z" />
    <glyph glyph-name="Ccircumflex" unicode="&#x108;" horiz-adv-x="605" 
d="M184.5 26.5q-62.5 42.5 -96 122t-33.5 190.5q0 112 32.5 192.5t93 123t143.5 42.5q85 0 145.5 -37.5t94.5 -105.5l-60 -35q-32 59 -75 84.5t-105 25.5q-89 0 -139.5 -76.5t-50.5 -212.5q0 -89 23 -154t66 -99.5t100 -34.5q71 0 110.5 31.5t73.5 98.5l63 -38
q-36 -78 -95.5 -119t-141.5 -41q-86 0 -148.5 42.5zM190 737l-19 34l155 104l156 -104l-19 -34l-137 67z" />
    <glyph glyph-name="ccircumflex" unicode="&#x109;" horiz-adv-x="477" 
d="M145 16q-53 32 -83 89t-30 129t29.5 129t82.5 89t120 32q57 0 99.5 -24.5t77.5 -69.5l-50 -39q-49 71 -127 71q-47 0 -84.5 -24t-58.5 -67t-21 -97t21 -97t58.5 -67t84.5 -24q48 0 79 16.5t56 48.5l53 -37q-33 -41 -81.5 -65.5t-104.5 -24.5q-68 0 -121 32zM152 567
l-19 34l135 124l136 -124l-19 -34l-117 77z" />
    <glyph glyph-name="Cdotaccent" unicode="&#x10a;" horiz-adv-x="605" 
d="M184.5 26.5q-62.5 42.5 -96 122t-33.5 190.5q0 112 32.5 192.5t93 123t143.5 42.5q85 0 145.5 -37.5t94.5 -105.5l-60 -35q-32 59 -75 84.5t-105 25.5q-89 0 -139.5 -76.5t-50.5 -212.5q0 -89 23 -154t66 -99.5t100 -34.5q71 0 110.5 31.5t73.5 98.5l63 -38
q-36 -78 -95.5 -119t-141.5 -41q-86 0 -148.5 42.5zM288.5 789q-15.5 16 -15.5 39q0 22 15.5 37.5t38.5 15.5q22 0 38 -15.5t16 -38.5q0 -22 -16 -38t-38 -16q-23 0 -38.5 16z" />
    <glyph glyph-name="cdotaccent" unicode="&#x10b;" horiz-adv-x="477" 
d="M145 16q-53 32 -83 89t-30 129t29.5 129t82.5 89t120 32q57 0 99.5 -24.5t77.5 -69.5l-50 -39q-49 71 -127 71q-47 0 -84.5 -24t-58.5 -67t-21 -97t21 -97t58.5 -67t84.5 -24q48 0 79 16.5t56 48.5l53 -37q-33 -41 -81.5 -65.5t-104.5 -24.5q-68 0 -121 32zM230.5 575
q-15.5 16 -15.5 39q0 22 15.5 37.5t38.5 15.5q22 0 38 -15.5t16 -38.5q0 -22 -16 -38t-38 -16q-23 0 -38.5 16z" />
    <glyph glyph-name="Ccaron" unicode="&#x10c;" horiz-adv-x="605" 
d="M184.5 26.5q-62.5 42.5 -96 122t-33.5 190.5q0 112 32.5 192.5t93 123t143.5 42.5q85 0 145.5 -37.5t94.5 -105.5l-60 -35q-32 59 -75 84.5t-105 25.5q-89 0 -139.5 -76.5t-50.5 -212.5q0 -89 23 -154t66 -99.5t100 -34.5q71 0 110.5 31.5t73.5 98.5l63 -38
q-36 -78 -95.5 -119t-141.5 -41q-86 0 -148.5 42.5zM326 761l-135 124l19 34l116 -77l117 77l19 -34z" />
    <glyph glyph-name="ccaron" unicode="&#x10d;" horiz-adv-x="477" 
d="M145 16q-53 32 -83 89t-30 129t29.5 129t82.5 89t120 32q57 0 99.5 -24.5t77.5 -69.5l-50 -39q-49 71 -127 71q-47 0 -84.5 -24t-58.5 -67t-21 -97t21 -97t58.5 -67t84.5 -24q48 0 79 16.5t56 48.5l53 -37q-33 -41 -81.5 -65.5t-104.5 -24.5q-68 0 -121 32zM268 547
l-135 124l19 34l116 -77l117 77l19 -34z" />
    <glyph glyph-name="Dcaron" unicode="&#x10e;" horiz-adv-x="641" 
d="M80 682h169q105 0 181 -40.5t116 -117.5t40 -184q0 -160 -89 -250t-248 -90h-169v682zM247 68q122 0 191 67t69 205q0 139 -69 206t-191 67h-92v-545h92zM104 872l136 -67l137 67l19 -34l-156 -104l-155 104z" />
    <glyph glyph-name="dcaron" unicode="&#x10f;" horiz-adv-x="631" 
d="M498 726v-726h-68v69q-29 -40 -71 -62.5t-92 -22.5q-67 0 -120 32t-83 89t-30 130q0 72 29.5 128.5t82 88.5t119.5 32q51 0 93.5 -22.5t71.5 -63.5v328h68zM350.5 70q37.5 24 58.5 67t21 97t-21 97t-58.5 67t-85.5 24q-47 0 -84 -24t-58 -66.5t-21 -96.5q0 -55 21 -98
t58 -67t84 -24q48 0 85.5 24zM552 529q44 49 44 100q0 27 -12 53q-5 10 -5 23q0 15 9.5 23.5t26.5 8.5q56 0 56 -66q0 -40 -27.5 -88t-69.5 -77z" />
    <glyph glyph-name="Dcroat" unicode="&#x110;" horiz-adv-x="641" 
d="M430 641.5q76 -40.5 116 -117.5t40 -184q0 -160 -89 -250t-248 -90h-169v317h-70v48h70v317h169q105 0 181 -40.5zM438 135q69 67 69 205q0 139 -69 206t-191 67h-92v-248h117v-48h-117v-249h92q122 0 191 67z" />
    <glyph glyph-name="dcroat" unicode="&#x111;" horiz-adv-x="561" 
d="M575 534h-77v-534h-68v69q-29 -40 -71 -62.5t-92 -22.5q-67 0 -120 32t-83 89t-30 130q0 72 29.5 128.5t82 88.5t119.5 32q51 0 93.5 -22.5t71.5 -63.5v136h-117v48h117v144h68v-144h77v-48zM350.5 70q37.5 24 58.5 67t21 97t-21 97t-58.5 67t-85.5 24q-47 0 -84 -24
t-58 -66.5t-21 -96.5q0 -55 21 -98t58 -67t84 -24q48 0 85.5 24z" />
    <glyph glyph-name="Emacron" unicode="&#x112;" horiz-adv-x="503" 
d="M79 0v682h382v-63h-307v-238h240v-61h-240v-258h310v-62h-385zM148 766v45h267v-45h-267z" />
    <glyph glyph-name="emacron" unicode="&#x113;" horiz-adv-x="525" 
d="M379 453q51 -31 80 -84.5t29 -119.5q0 -19 -1 -29h-385q4 -72 47 -123t117 -51q60 0 99.5 22.5t63.5 62.5l54 -36q-33 -52 -87 -81.5t-128 -29.5q-68 0 -121 32t-83 89t-30 129t29.5 129t82 89t119.5 32q63 0 114 -31zM420 276q-10 73 -49 109.5t-106 36.5
q-65 0 -106.5 -41.5t-52.5 -104.5h314zM129 586v45h267v-45h-267z" />
    <glyph glyph-name="Ebreve" unicode="&#x114;" horiz-adv-x="503" 
d="M79 0v682h382v-63h-307v-238h240v-61h-240v-258h310v-62h-385zM177 769.5q-40 29.5 -41 88.5h41q10 -57 105 -57t105 57h41q-1 -59 -41 -88.5t-105 -29.5t-105 29.5z" />
    <glyph glyph-name="ebreve" unicode="&#x115;" horiz-adv-x="525" 
d="M379 453q51 -31 80 -84.5t29 -119.5q0 -19 -1 -29h-385q4 -72 47 -123t117 -51q60 0 99.5 22.5t63.5 62.5l54 -36q-33 -52 -87 -81.5t-128 -29.5q-68 0 -121 32t-83 89t-30 129t29.5 129t82 89t119.5 32q63 0 114 -31zM420 276q-10 73 -49 109.5t-106 36.5
q-65 0 -106.5 -41.5t-52.5 -104.5h314zM165 594.5q-37 34.5 -38 103.5h41q4 -39 28.5 -58t66.5 -19t66.5 19t28.5 58h41q-1 -69 -38 -103.5t-98 -34.5t-98 34.5z" />
    <glyph glyph-name="Edotaccent" unicode="&#x116;" horiz-adv-x="503" 
d="M79 0v682h382v-63h-307v-238h240v-61h-240v-258h310v-62h-385zM243.5 765q-15.5 16 -15.5 39q0 22 15.5 37.5t38.5 15.5q22 0 38 -15.5t16 -38.5q0 -22 -16 -38t-38 -16q-23 0 -38.5 16z" />
    <glyph glyph-name="edotaccent" unicode="&#x117;" horiz-adv-x="525" 
d="M379 453q51 -31 80 -84.5t29 -119.5q0 -19 -1 -29h-385q4 -72 47 -123t117 -51q60 0 99.5 22.5t63.5 62.5l54 -36q-33 -52 -87 -81.5t-128 -29.5q-68 0 -121 32t-83 89t-30 129t29.5 129t82 89t119.5 32q63 0 114 -31zM420 276q-10 73 -49 109.5t-106 36.5
q-65 0 -106.5 -41.5t-52.5 -104.5h314zM224.5 575q-15.5 16 -15.5 39q0 22 15.5 37.5t38.5 15.5q22 0 38 -15.5t16 -38.5q0 -22 -16 -38t-38 -16q-23 0 -38.5 16z" />
    <glyph glyph-name="Eogonek" unicode="&#x118;" horiz-adv-x="503" 
d="M468 -195q-51 -28 -93 -28q-32 0 -55.5 16.5t-33.5 46.5q-5 14 -5 33q0 40 29 74t76 53h-307v682h382v-63h-307v-238h240v-61h-240v-258h310v-62h-30q-35 -16 -59 -44.5t-24 -64.5q0 -17 8 -39q7 -18 20.5 -27.5t32.5 -9.5q20 0 44 12z" />
    <glyph glyph-name="eogonek" unicode="&#x119;" horiz-adv-x="525" 
d="M379 453q51 -31 80 -84.5t29 -119.5q0 -19 -1 -29h-385q4 -72 47 -123t117 -51q60 0 99.5 22.5t63.5 62.5l54 -36q-44 -67 -115 -94q-35 -16 -59 -44.5t-24 -64.5q0 -17 8 -39q7 -18 20.5 -27.5t32.5 -9.5q20 0 44 12l12 -22q-51 -28 -93 -28q-32 0 -55.5 16.5
t-33.5 46.5q-6 16 -6 33q0 32 20 61t53 50q-6 -1 -19 -1q-68 0 -121 32t-83 89t-30 129t29.5 129t82 89t119.5 32q63 0 114 -31zM420 276q-10 73 -49 109.5t-106 36.5q-65 0 -106.5 -41.5t-52.5 -104.5h314z" />
    <glyph glyph-name="Ecaron" unicode="&#x11a;" horiz-adv-x="503" 
d="M79 0v682h382v-63h-307v-238h240v-61h-240v-258h310v-62h-385zM145 872l136 -67l137 67l19 -34l-156 -104l-155 104z" />
    <glyph glyph-name="ecaron" unicode="&#x11b;" horiz-adv-x="525" 
d="M379 453q51 -31 80 -84.5t29 -119.5q0 -19 -1 -29h-385q4 -72 47 -123t117 -51q60 0 99.5 22.5t63.5 62.5l54 -36q-33 -52 -87 -81.5t-128 -29.5q-68 0 -121 32t-83 89t-30 129t29.5 129t82 89t119.5 32q63 0 114 -31zM420 276q-10 73 -49 109.5t-106 36.5
q-65 0 -106.5 -41.5t-52.5 -104.5h314zM262 547l-135 124l19 34l116 -77l117 77l19 -34z" />
    <glyph glyph-name="Gcircumflex" unicode="&#x11c;" horiz-adv-x="606" 
d="M158.5 26.5q-62.5 42.5 -96 122t-33.5 190.5q0 112 33.5 192.5t96 123t148.5 42.5q79 0 136.5 -35.5t98.5 -104.5l-59 -42q-63 114 -176 114q-94 0 -146.5 -76.5t-52.5 -212.5q0 -135 53 -211.5t146 -76.5q52 0 93.5 25t65.5 74t24 120h-161v62h235v-62q0 -93 -33 -157.5
t-91.5 -97t-132.5 -32.5q-86 0 -148.5 42.5zM166 737l-19 34l155 104l156 -104l-19 -34l-137 67z" />
    <glyph glyph-name="gcircumflex" unicode="&#x11d;" horiz-adv-x="561" 
d="M498 468v-450q0 -63 -26 -112.5t-73 -77.5t-107 -28h-194v62h194q61 0 99.5 44t38.5 112v51q-29 -40 -71 -62.5t-92 -22.5q-67 0 -120 32t-83 89t-30 130q0 72 29.5 128.5t82 88.5t119.5 32q51 0 93.5 -22.5t71.5 -63.5v70h68zM350.5 70q37.5 24 58.5 67t21 97t-21 97
t-58.5 67t-85.5 24q-47 0 -84 -24t-58 -66.5t-21 -96.5q0 -55 21 -98t58 -67t84 -24q48 0 85.5 24zM134 567l-19 34l135 124l136 -124l-19 -34l-117 77z" />
    <glyph glyph-name="Gbreve" unicode="&#x11e;" horiz-adv-x="606" 
d="M158.5 26.5q-62.5 42.5 -96 122t-33.5 190.5q0 112 33.5 192.5t96 123t148.5 42.5q79 0 136.5 -35.5t98.5 -104.5l-59 -42q-63 114 -176 114q-94 0 -146.5 -76.5t-52.5 -212.5q0 -135 53 -211.5t146 -76.5q52 0 93.5 25t65.5 74t24 120h-161v62h235v-62q0 -93 -33 -157.5
t-91.5 -97t-132.5 -32.5q-86 0 -148.5 42.5zM198 769.5q-40 29.5 -41 88.5h41q10 -57 105 -57t105 57h41q-1 -59 -41 -88.5t-105 -29.5t-105 29.5z" />
    <glyph glyph-name="gbreve" unicode="&#x11f;" horiz-adv-x="561" 
d="M498 468v-450q0 -63 -26 -112.5t-73 -77.5t-107 -28h-194v62h194q61 0 99.5 44t38.5 112v51q-29 -40 -71 -62.5t-92 -22.5q-67 0 -120 32t-83 89t-30 130q0 72 29.5 128.5t82 88.5t119.5 32q51 0 93.5 -22.5t71.5 -63.5v70h68zM350.5 70q37.5 24 58.5 67t21 97t-21 97
t-58.5 67t-85.5 24q-47 0 -84 -24t-58 -66.5t-21 -96.5q0 -55 21 -98t58 -67t84 -24q48 0 85.5 24zM153 594.5q-37 34.5 -38 103.5h41q4 -39 28.5 -58t66.5 -19t66.5 19t28.5 58h41q-1 -69 -38 -103.5t-98 -34.5t-98 34.5z" />
    <glyph glyph-name="Gdotaccent" unicode="&#x120;" horiz-adv-x="606" 
d="M158.5 26.5q-62.5 42.5 -96 122t-33.5 190.5q0 112 33.5 192.5t96 123t148.5 42.5q79 0 136.5 -35.5t98.5 -104.5l-59 -42q-63 114 -176 114q-94 0 -146.5 -76.5t-52.5 -212.5q0 -135 53 -211.5t146 -76.5q52 0 93.5 25t65.5 74t24 120h-161v62h235v-62q0 -93 -33 -157.5
t-91.5 -97t-132.5 -32.5q-86 0 -148.5 42.5zM264.5 765q-15.5 16 -15.5 39q0 22 15.5 37.5t38.5 15.5q22 0 38 -15.5t16 -38.5q0 -22 -16 -38t-38 -16q-23 0 -38.5 16z" />
    <glyph glyph-name="gdotaccent" unicode="&#x121;" horiz-adv-x="561" 
d="M498 468v-450q0 -63 -26 -112.5t-73 -77.5t-107 -28h-194v62h194q61 0 99.5 44t38.5 112v51q-29 -40 -71 -62.5t-92 -22.5q-67 0 -120 32t-83 89t-30 130q0 72 29.5 128.5t82 88.5t119.5 32q51 0 93.5 -22.5t71.5 -63.5v70h68zM350.5 70q37.5 24 58.5 67t21 97t-21 97
t-58.5 67t-85.5 24q-47 0 -84 -24t-58 -66.5t-21 -96.5q0 -55 21 -98t58 -67t84 -24q48 0 85.5 24zM212.5 575q-15.5 16 -15.5 39q0 22 15.5 37.5t38.5 15.5q22 0 38 -15.5t16 -38.5q0 -22 -16 -38t-38 -16q-23 0 -38.5 16z" />
    <glyph glyph-name="Gcommaaccent" unicode="&#x122;" horiz-adv-x="606" 
d="M158.5 26.5q-62.5 42.5 -96 122t-33.5 190.5q0 112 33.5 192.5t96 123t148.5 42.5q79 0 136.5 -35.5t98.5 -104.5l-59 -42q-63 114 -176 114q-94 0 -146.5 -76.5t-52.5 -212.5q0 -135 53 -211.5t146 -76.5q52 0 93.5 25t65.5 74t24 120h-161v62h235v-62q0 -93 -33 -157.5
t-91.5 -97t-132.5 -32.5q-86 0 -148.5 42.5zM248 -248q56 37 56 100q-24 0 -40.5 15.5t-16.5 39.5q0 25 15 39.5t39 14.5q25 0 41 -18.5t16 -46.5q0 -49 -28 -94.5t-72 -68.5z" />
    <glyph glyph-name="gcommaaccent" unicode="&#x123;" horiz-adv-x="561" 
d="M498 468v-450q0 -63 -26 -112.5t-73 -77.5t-107 -28h-194v62h194q61 0 99.5 44t38.5 112v51q-29 -40 -71 -62.5t-92 -22.5q-67 0 -120 32t-83 89t-30 130q0 72 29.5 128.5t82 88.5t119.5 32q51 0 93.5 -22.5t71.5 -63.5v70h68zM350.5 70q37.5 24 58.5 67t21 97t-21 97
t-58.5 67t-85.5 24q-47 0 -84 -24t-58 -66.5t-21 -96.5q0 -55 21 -98t58 -67t84 -24q48 0 85.5 24zM305 768q-56 -37 -56 -100q24 0 40.5 -15.5t16.5 -39.5q0 -25 -15 -39.5t-39 -14.5q-25 0 -41 18.5t-16 46.5q0 49 28 94.5t72 68.5z" />
    <glyph glyph-name="Hcircumflex" unicode="&#x124;" horiz-adv-x="670" 
d="M80 0v682h75v-295h360v295h75v-682h-75v325h-360v-325h-75zM198 737l-19 34l155 104l156 -104l-19 -34l-137 67z" />
    <glyph glyph-name="hcircumflex" unicode="&#x125;" horiz-adv-x="534" 
d="M376.5 464q41.5 -20 66 -59t24.5 -92v-313h-68v283q0 139 -124 139q-72 0 -108 -51t-36 -137v-234h-68v726h68v-336q24 45 63.5 69.5t91.5 24.5q49 0 90.5 -20zM-36 780l-19 34l155 104l156 -104l-19 -34l-137 67z" />
    <glyph glyph-name="Hbar" unicode="&#x126;" horiz-adv-x="750" 
d="M670 572v-48h-40v-524h-75v325h-360v-325h-75v524h-40v48h40v110h75v-110h360v110h75v-110h40zM555 387v137h-360v-137h360z" />
    <glyph glyph-name="hbar" unicode="&#x127;" horiz-adv-x="534" 
d="M376.5 464q41.5 -20 66 -59t24.5 -92v-313h-68v283q0 139 -124 139q-72 0 -108 -51t-36 -137v-234h-68v570h-62v48h62v108h68v-108h132v-48h-132v-180q24 45 63.5 69.5t91.5 24.5q49 0 90.5 -20z" />
    <glyph glyph-name="Itilde" unicode="&#x128;" horiz-adv-x="317" 
d="M55 0v66h66v550h-66v66h207v-66h-66v-550h66v-66h-207zM195.5 747q-16.5 6 -35.5 17q-3 2 -16.5 8t-26.5 9.5t-27 3.5q-26 0 -39.5 -8t-18.5 -26h-45q5 39 29.5 67t68.5 28q21 0 38.5 -6t42.5 -19q20 -10 36 -15.5t32 -5.5q21 0 34.5 10.5t15.5 25.5h46q-5 -41 -27.5 -68
t-68.5 -27q-22 0 -38.5 6z" />
    <glyph glyph-name="itilde" unicode="&#x129;" horiz-adv-x="268" 
d="M100 0v468h68v-468h-68zM29 646q22 28 56 28q17 0 29.5 -6.5t29.5 -18.5q14 -11 24.5 -16t22.5 -5q16 0 26 11t12 30h36q-5 -49 -27 -77t-54 -28q-12 0 -23 5.5t-25 15.5q-17 11 -28.5 17t-26.5 6q-16 0 -28 -10t-16 -29h-35q5 49 27 77z" />
    <glyph glyph-name="Imacron" unicode="&#x12a;" horiz-adv-x="317" 
d="M55 0v66h66v550h-66v66h207v-66h-66v-550h66v-66h-207zM25 766v45h267v-45h-267z" />
    <glyph glyph-name="imacron" unicode="&#x12b;" horiz-adv-x="268" 
d="M100 0v468h68v-468h-68zM35 586v45h197v-45h-197z" />
    <glyph glyph-name="Ibreve" unicode="&#x12c;" horiz-adv-x="317" 
d="M55 0v66h66v550h-66v66h207v-66h-66v-550h66v-66h-207zM54 769.5q-40 29.5 -41 88.5h41q10 -57 105 -57t105 57h41q-1 -59 -41 -88.5t-105 -29.5t-105 29.5z" />
    <glyph glyph-name="ibreve" unicode="&#x12d;" horiz-adv-x="268" 
d="M100 0v468h68v-468h-68zM50 596.5q-31 36.5 -32 101.5h41q4 -37 24 -59.5t51 -22.5t51 22.5t24 59.5h41q-1 -65 -32 -101.5t-84 -36.5t-84 36.5z" />
    <glyph glyph-name="Iogonek" unicode="&#x12e;" horiz-adv-x="317" 
d="M266 -171q-51 -28 -93 -28q-32 0 -55.5 16.5t-33.5 46.5q-5 14 -5 33q0 29 16 55.5t44 47.5h-84v66h66v550h-66v66h207v-66h-66v-550h66v-66h-68q-45 -36 -45 -85q0 -17 8 -39q7 -18 20.5 -27.5t32.5 -9.5q20 0 44 12z" />
    <glyph glyph-name="iogonek" unicode="&#x12f;" horiz-adv-x="268" 
d="M95.5 575q-15.5 16 -15.5 39q0 22 15.5 37.5t38.5 15.5q22 0 38 -15.5t16 -38.5q0 -22 -16 -38t-38 -16q-23 0 -38.5 16zM200 -195q-51 -28 -93 -28q-32 0 -55.5 16.5t-33.5 46.5q-5 14 -5 33q0 40 29 74t76 53h-18v468h68v-468h-2q-35 -16 -59 -44.5t-24 -64.5
q0 -17 8 -39q7 -18 20.5 -27.5t32.5 -9.5q20 0 44 12z" />
    <glyph glyph-name="Idotaccent" unicode="&#x130;" horiz-adv-x="317" 
d="M55 0v66h66v550h-66v66h207v-66h-66v-550h66v-66h-207zM120.5 765q-15.5 16 -15.5 39q0 22 15.5 37.5t38.5 15.5q22 0 38 -15.5t16 -38.5q0 -22 -16 -38t-38 -16q-23 0 -38.5 16z" />
    <glyph glyph-name="dotlessi" unicode="&#x131;" horiz-adv-x="268" 
d="M100 0v468h68v-468h-68z" />
    <glyph glyph-name="Jcircumflex" unicode="&#x134;" horiz-adv-x="496" 
d="M92.5 21.5q-52.5 37.5 -80.5 105.5l63 30q15 -48 52.5 -75.5t83.5 -27.5q64 0 97 39.5t33 111.5v477h75v-477q0 -104 -54 -162.5t-147 -58.5q-70 0 -122.5 37.5zM242 737l-19 34l155 104l156 -104l-19 -34l-137 67z" />
    <glyph glyph-name="jcircumflex" unicode="&#x135;" horiz-adv-x="193" 
d="M-45 -138h28q35 0 57.5 24t22.5 62v520h68v-520q0 -65 -41.5 -106.5t-106.5 -41.5h-28v62zM-20 567l-19 34l135 124l136 -124l-19 -34l-117 77z" />
    <glyph glyph-name="Kcommaaccent" unicode="&#x136;" horiz-adv-x="545" 
d="M460 0l-234 328l-72 -85v-243h-75v682h75v-345l288 345h83l-255 -302l275 -380h-85zM218 -248q56 37 56 100q-24 0 -40.5 15.5t-16.5 39.5q0 25 15 39.5t39 14.5q25 0 41 -18.5t16 -46.5q0 -49 -28 -94.5t-72 -68.5z" />
    <glyph glyph-name="kcommaaccent" unicode="&#x137;" horiz-adv-x="436" 
d="M352 0l-164 241l-57 -55v-186h-68v726h68v-454l205 196h88l-189 -182l193 -286h-76zM163 -248q56 37 56 100q-24 0 -40.5 15.5t-16.5 39.5q0 25 15 39.5t39 14.5q25 0 41 -18.5t16 -46.5q0 -49 -28 -94.5t-72 -68.5z" />
    <glyph glyph-name="kgreenlandic" unicode="&#x138;" horiz-adv-x="463" 
d="M352 0l-164 241l-57 -55v-186h-68v468h68v-196l205 196h88l-189 -182l193 -286h-76z" />
    <glyph glyph-name="Lacute" unicode="&#x139;" horiz-adv-x="476" 
d="M79 0v682h75v-620h307v-62h-382zM15 725l-20 34l216 111l34 -58z" />
    <glyph glyph-name="lacute" unicode="&#x13a;" horiz-adv-x="203" 
d="M68 0v726h68v-726h-68zM-3 769l-20 34l216 111l34 -58z" />
    <glyph glyph-name="Lcommaaccent" unicode="&#x13b;" horiz-adv-x="476" 
d="M79 0v682h75v-620h307v-62h-382zM223 -248q56 37 56 100q-24 0 -40.5 15.5t-16.5 39.5q0 25 15 39.5t39 14.5q25 0 41 -18.5t16 -46.5q0 -49 -28 -94.5t-72 -68.5z" />
    <glyph glyph-name="lcommaaccent" unicode="&#x13c;" horiz-adv-x="203" 
d="M68 0v726h68v-726h-68zM47 -248q56 37 56 100q-24 0 -40.5 15.5t-16.5 39.5q0 25 15 39.5t39 14.5q25 0 41 -18.5t16 -46.5q0 -49 -28 -94.5t-72 -68.5z" />
    <glyph glyph-name="Lcaron" unicode="&#x13d;" horiz-adv-x="476" 
d="M79 0v682h75v-620h307v-62h-382zM255 493q44 49 44 100q0 27 -12 53q-5 10 -5 23q0 15 9.5 23.5t26.5 8.5q56 0 56 -66q0 -40 -27.5 -88t-69.5 -77z" />
    <glyph glyph-name="lcaron" unicode="&#x13e;" horiz-adv-x="303" 
d="M68 0v726h68v-726h-68zM194 529q44 49 44 100q0 27 -12 53q-5 10 -5 23q0 15 9.5 23.5t26.5 8.5q56 0 56 -66q0 -40 -27.5 -88t-69.5 -77z" />
    <glyph glyph-name="Ldot" unicode="&#x13f;" horiz-adv-x="436" 
d="M79 0v682h75v-620h307v-62h-382zM285 311q-16 16 -16 39q0 22 16 38t38 16q23 0 38.5 -16t15.5 -39q0 -22 -15.5 -38t-38.5 -16q-22 0 -38 16z" />
    <glyph glyph-name="ldot" unicode="&#x140;" horiz-adv-x="287" 
d="M68 0v726h68v-726h-68zM205 311q-16 16 -16 39q0 22 16 38t38 16q23 0 38.5 -16t15.5 -39q0 -22 -15.5 -38t-38.5 -16q-22 0 -38 16z" />
    <glyph glyph-name="Lslash" unicode="&#x141;" horiz-adv-x="476" 
d="M154 62h307v-62h-382v218l-44 -31l-27 41l71 50v404h75v-352l92 65l27 -41l-119 -83v-209z" />
    <glyph glyph-name="lslash" unicode="&#x142;" horiz-adv-x="203" 
d="M242 351l-106 -74v-277h-68v229l-64 -45l-27 41l91 64v437h68v-389l79 55z" />
    <glyph glyph-name="Nacute" unicode="&#x143;" horiz-adv-x="662" 
d="M80 0v682h80l347 -569v569h75v-682h-80l-347 567v-567h-75zM211 725l-20 34l216 111l34 -58z" />
    <glyph glyph-name="nacute" unicode="&#x144;" horiz-adv-x="537" 
d="M376.5 464q41.5 -20 66 -59t24.5 -92v-313h-68v283q0 139 -124 139q-72 0 -108 -51t-36 -137v-234h-68v468h68v-78q24 45 63.5 69.5t91.5 24.5q49 0 90.5 -20zM234 537l-20 34l186 111l34 -58z" />
    <glyph glyph-name="Ncommaaccent" unicode="&#x145;" horiz-adv-x="662" 
d="M80 0v682h80l347 -569v569h75v-682h-80l-347 567v-567h-75zM261 -248q56 37 56 100q-24 0 -40.5 15.5t-16.5 39.5q0 25 15 39.5t39 14.5q25 0 41 -18.5t16 -46.5q0 -49 -28 -94.5t-72 -68.5z" />
    <glyph glyph-name="ncommaaccent" unicode="&#x146;" horiz-adv-x="537" 
d="M376.5 464q41.5 -20 66 -59t24.5 -92v-313h-68v283q0 139 -124 139q-72 0 -108 -51t-36 -137v-234h-68v468h68v-78q24 45 63.5 69.5t91.5 24.5q49 0 90.5 -20zM214 -248q56 37 56 100q-24 0 -40.5 15.5t-16.5 39.5q0 25 15 39.5t39 14.5q25 0 41 -18.5t16 -46.5
q0 -49 -28 -94.5t-72 -68.5z" />
    <glyph glyph-name="Ncaron" unicode="&#x147;" horiz-adv-x="662" 
d="M80 0v682h80l347 -569v569h75v-682h-80l-347 567v-567h-75zM179 872l136 -67l137 67l19 -34l-156 -104l-155 104z" />
    <glyph glyph-name="ncaron" unicode="&#x148;" horiz-adv-x="537" 
d="M376.5 464q41.5 -20 66 -59t24.5 -92v-313h-68v283q0 139 -124 139q-72 0 -108 -51t-36 -137v-234h-68v468h68v-78q24 45 63.5 69.5t91.5 24.5q49 0 90.5 -20zM278 547l-135 124l19 34l116 -77l117 77l19 -34z" />
    <glyph glyph-name="Eng" unicode="&#x14a;" horiz-adv-x="639" 
d="M496 618q63 -79 63 -220v-380q0 -109 -52.5 -163.5t-148.5 -54.5h-27v68h27q126 0 126 150v380q0 109 -43.5 170t-120.5 61q-52 0 -95.5 -25t-69.5 -70v-534h-75v682h75v-55q34 33 77.5 51.5t87.5 18.5q113 0 176 -79z" />
    <glyph glyph-name="eng" unicode="&#x14b;" horiz-adv-x="537" 
d="M197 -138h64q61 0 99.5 44t38.5 112v265q0 139 -124 139q-72 0 -108 -51t-36 -137v-234h-68v468h68v-78q24 45 63.5 69.5t91.5 24.5q49 0 90.5 -20t66 -59t24.5 -92v-295q0 -63 -26 -112.5t-73 -77.5t-107 -28h-64v62z" />
    <glyph glyph-name="Omacron" unicode="&#x14c;" horiz-adv-x="696" 
d="M196.5 29.5q-66.5 45.5 -104 126.5t-37.5 184t37.5 184.5t104 127t151.5 45.5t151.5 -45.5t104 -127t37.5 -185.5q0 -103 -37.5 -183.5t-104 -126t-151.5 -45.5t-151.5 45.5zM459.5 89.5q49.5 36.5 77.5 102t28 148.5t-28 149t-77.5 103t-111.5 37t-111.5 -37t-77.5 -103
t-28 -149t28 -148.5t77.5 -102t111.5 -36.5t111.5 36.5zM214 766v45h267v-45h-267z" />
    <glyph glyph-name="omacron" unicode="&#x14d;" horiz-adv-x="531" 
d="M147 16q-53 32 -83 89.5t-30 129.5t29.5 128.5t82 88.5t119.5 32t120 -32t83 -89t30 -129t-29.5 -129t-82 -89t-119.5 -32t-120 32zM350.5 70q37.5 24 58.5 67t21 97t-21 97t-58.5 67t-85.5 24q-47 0 -84 -24t-58 -66.5t-21 -96.5q0 -55 21 -98t58 -67t84 -24
q48 0 85.5 24zM132 586v45h267v-45h-267z" />
    <glyph glyph-name="Obreve" unicode="&#x14e;" horiz-adv-x="696" 
d="M196.5 29.5q-66.5 45.5 -104 126.5t-37.5 184t37.5 184.5t104 127t151.5 45.5t151.5 -45.5t104 -127t37.5 -185.5q0 -103 -37.5 -183.5t-104 -126t-151.5 -45.5t-151.5 45.5zM459.5 89.5q49.5 36.5 77.5 102t28 148.5t-28 149t-77.5 103t-111.5 37t-111.5 -37t-77.5 -103
t-28 -149t28 -148.5t77.5 -102t111.5 -36.5t111.5 36.5zM243 769.5q-40 29.5 -41 88.5h41q10 -57 105 -57t105 57h41q-1 -59 -41 -88.5t-105 -29.5t-105 29.5z" />
    <glyph glyph-name="obreve" unicode="&#x14f;" horiz-adv-x="531" 
d="M147 16q-53 32 -83 89.5t-30 129.5t29.5 128.5t82 88.5t119.5 32t120 -32t83 -89t30 -129t-29.5 -129t-82 -89t-119.5 -32t-120 32zM350.5 70q37.5 24 58.5 67t21 97t-21 97t-58.5 67t-85.5 24q-47 0 -84 -24t-58 -66.5t-21 -96.5q0 -55 21 -98t58 -67t84 -24
q48 0 85.5 24zM168 594.5q-37 34.5 -38 103.5h41q4 -39 28.5 -58t66.5 -19t66.5 19t28.5 58h41q-1 -69 -38 -103.5t-98 -34.5t-98 34.5z" />
    <glyph glyph-name="Ohungarumlaut" unicode="&#x150;" horiz-adv-x="696" 
d="M196.5 29.5q-66.5 45.5 -104 126.5t-37.5 184t37.5 184.5t104 127t151.5 45.5t151.5 -45.5t104 -127t37.5 -185.5q0 -103 -37.5 -183.5t-104 -126t-151.5 -45.5t-151.5 45.5zM459.5 89.5q49.5 36.5 77.5 102t28 148.5t-28 149t-77.5 103t-111.5 37t-111.5 -37t-77.5 -103
t-28 -149t28 -148.5t77.5 -102t111.5 -36.5t111.5 36.5zM252 760l-28 27l192 152l48 -48zM424 760l-28 27l202 132l48 -48z" />
    <glyph glyph-name="ohungarumlaut" unicode="&#x151;" horiz-adv-x="531" 
d="M147 16q-53 32 -83 89.5t-30 129.5t29.5 128.5t82 88.5t119.5 32t120 -32t83 -89t30 -129t-29.5 -129t-82 -89t-119.5 -32t-120 32zM350.5 70q37.5 24 58.5 67t21 97t-21 97t-58.5 67t-85.5 24q-47 0 -84 -24t-58 -66.5t-21 -96.5q0 -55 21 -98t58 -67t84 -24
q48 0 85.5 24zM196 560l-28 27l114 160l48 -48zM338 560l-28 27l114 160l48 -48z" />
    <glyph glyph-name="OE" unicode="&#x152;" horiz-adv-x="830" 
d="M791 0h-349q-42 -16 -94 -16q-85 0 -151.5 45.5t-104 126.5t-37.5 184t37.5 184.5t104 127t151.5 45.5q49 0 91 -15h349v-63h-307v-238h240v-61h-240v-258h310v-62zM161.5 191.5q27.5 -65.5 76 -102t110.5 -36.5q31 0 58 9v558q-27 9 -58 9q-62 0 -110.5 -37t-76 -103
t-27.5 -149t27.5 -148.5z" />
    <glyph glyph-name="oe" unicode="&#x153;" horiz-adv-x="921" 
d="M775 453q51 -31 80 -84.5t29 -119.5q0 -19 -1 -29h-385q4 -72 47 -123t117 -51q60 0 99.5 22.5t63.5 62.5l54 -36q-33 -52 -87 -81.5t-128 -29.5q-65 0 -117.5 30t-82.5 83q-30 -53 -81 -83t-116 -30q-67 0 -120 32t-83 89t-30 130q0 72 29.5 128.5t82 88.5t119.5 32
q65 0 117 -30t82 -83q30 53 81 83t116 30q63 0 114 -31zM350.5 70q37.5 24 58.5 67t21 97t-21 97t-58.5 67t-85.5 24q-47 0 -84 -24t-58 -66.5t-21 -96.5q0 -55 21 -98t58 -67t84 -24q48 0 85.5 24zM816 276q-10 73 -49 109.5t-106 36.5q-65 0 -106.5 -41.5t-52.5 -104.5
h314z" />
    <glyph glyph-name="Racute" unicode="&#x154;" horiz-adv-x="580" 
d="M462 0l-173 301h-135v-301h-75v682h228q62 0 109 -24t72 -67.5t25 -99.5q0 -68 -41 -116.5t-109 -65.5l178 -309h-79zM154 363h143q66 0 101.5 35t35.5 93t-35.5 93.5t-101.5 35.5h-143v-257zM185 725l-20 34l216 111l34 -58z" />
    <glyph glyph-name="racute" unicode="&#x155;" horiz-adv-x="339" 
d="M339 477v-62q-21 10 -46 10q-43 0 -80 -24t-59.5 -69.5t-22.5 -107.5v-224h-68v468h68v-94q27 52 68.5 81t93.5 29q24 0 46 -7zM205 537l-20 34l186 111l34 -58z" />
    <glyph glyph-name="Rcommaaccent" unicode="&#x156;" horiz-adv-x="580" 
d="M462 0l-173 301h-135v-301h-75v682h228q62 0 109 -24t72 -67.5t25 -99.5q0 -68 -41 -116.5t-109 -65.5l178 -309h-79zM154 363h143q66 0 101.5 35t35.5 93t-35.5 93.5t-101.5 35.5h-143v-257zM235 -248q56 37 56 100q-24 0 -40.5 15.5t-16.5 39.5q0 25 15 39.5t39 14.5
q25 0 41 -18.5t16 -46.5q0 -49 -28 -94.5t-72 -68.5z" />
    <glyph glyph-name="rcommaaccent" unicode="&#x157;" horiz-adv-x="339" 
d="M339 477v-62q-21 10 -46 10q-43 0 -80 -24t-59.5 -69.5t-22.5 -107.5v-224h-68v468h68v-94q27 52 68.5 81t93.5 29q24 0 46 -7zM46 -248q56 37 56 100q-24 0 -40.5 15.5t-16.5 39.5q0 25 15 39.5t39 14.5q25 0 41 -18.5t16 -46.5q0 -49 -28 -94.5t-72 -68.5z" />
    <glyph glyph-name="Rcaron" unicode="&#x158;" horiz-adv-x="580" 
d="M462 0l-173 301h-135v-301h-75v682h228q62 0 109 -24t72 -67.5t25 -99.5q0 -68 -41 -116.5t-109 -65.5l178 -309h-79zM154 363h143q66 0 101.5 35t35.5 93t-35.5 93.5t-101.5 35.5h-143v-257zM153 872l136 -67l137 67l19 -34l-156 -104l-155 104z" />
    <glyph glyph-name="rcaron" unicode="&#x159;" horiz-adv-x="339" 
d="M339 477v-62q-21 10 -46 10q-43 0 -80 -24t-59.5 -69.5t-22.5 -107.5v-224h-68v468h68v-94q27 52 68.5 81t93.5 29q24 0 46 -7zM249 547l-135 124l19 34l116 -77l117 77l19 -34z" />
    <glyph glyph-name="Sacute" unicode="&#x15a;" horiz-adv-x="583" 
d="M161 21.5q-71 37.5 -118 101.5l61 54q36 -57 92 -90.5t121 -33.5q71 0 108 31.5t37 85.5q0 59 -39.5 90.5t-125.5 55.5q-216 53 -216 196q0 89 58 137t161 48q75 0 134.5 -28t106.5 -86l-59 -50q-36 49 -79 72.5t-103 23.5q-63 0 -103 -29.5t-40 -80.5q0 -52 37 -82.5
t125 -51.5q104 -28 161.5 -77t57.5 -138q0 -55 -28 -97t-80.5 -65.5t-122.5 -23.5q-75 0 -146 37.5zM187 725l-20 34l216 111l34 -58z" />
    <glyph glyph-name="sacute" unicode="&#x15b;" horiz-adv-x="464" 
d="M108.5 13q-51.5 29 -78.5 82l61 30q37 -79 145 -79q52 0 86 19t34 59q0 41 -27.5 61t-96.5 26q-96 8 -137.5 43t-41.5 93q0 65 47 101t129 36q139 0 189 -110l-61 -30q-17 40 -49.5 59t-83.5 19q-52 0 -79.5 -19t-27.5 -54q0 -33 29.5 -53.5t101.5 -26.5
q89 -8 132.5 -43.5t43.5 -93.5q0 -47 -27 -80.5t-72 -50.5t-97 -17q-68 0 -119.5 29zM187 537l-20 34l186 111l34 -58z" />
    <glyph glyph-name="Scircumflex" unicode="&#x15c;" horiz-adv-x="583" 
d="M161 21.5q-71 37.5 -118 101.5l61 54q36 -57 92 -90.5t121 -33.5q71 0 108 31.5t37 85.5q0 59 -39.5 90.5t-125.5 55.5q-216 53 -216 196q0 89 58 137t161 48q75 0 134.5 -28t106.5 -86l-59 -50q-36 49 -79 72.5t-103 23.5q-63 0 -103 -29.5t-40 -80.5q0 -52 37 -82.5
t125 -51.5q104 -28 161.5 -77t57.5 -138q0 -55 -28 -97t-80.5 -65.5t-122.5 -23.5q-75 0 -146 37.5zM155 737l-19 34l155 104l156 -104l-19 -34l-137 67z" />
    <glyph glyph-name="scircumflex" unicode="&#x15d;" horiz-adv-x="464" 
d="M108.5 13q-51.5 29 -78.5 82l61 30q37 -79 145 -79q52 0 86 19t34 59q0 41 -27.5 61t-96.5 26q-96 8 -137.5 43t-41.5 93q0 65 47 101t129 36q139 0 189 -110l-61 -30q-17 40 -49.5 59t-83.5 19q-52 0 -79.5 -19t-27.5 -54q0 -33 29.5 -53.5t101.5 -26.5
q89 -8 132.5 -43.5t43.5 -93.5q0 -47 -27 -80.5t-72 -50.5t-97 -17q-68 0 -119.5 29zM115 567l-19 34l135 124l136 -124l-19 -34l-117 77z" />
    <glyph glyph-name="Scedilla" unicode="&#x15e;" horiz-adv-x="583" 
d="M480.5 308q57.5 -49 57.5 -138q0 -83 -61 -134t-165 -52l-25 -52q51 0 79 -17t28 -40q0 -75 -205 -75v27q50 0 95 12q45 10 45 30q0 11 -8 16.5t-31 8.5t-69 3l42 90q-65 10 -122.5 45.5t-97.5 90.5l61 54q36 -57 92 -90.5t121 -33.5q71 0 108 31.5t37 85.5
q0 59 -39.5 90.5t-125.5 55.5q-216 53 -216 196q0 89 58 137t161 48q75 0 134.5 -28t106.5 -86l-59 -50q-36 49 -79 72.5t-103 23.5q-63 0 -103 -29.5t-40 -80.5q0 -52 37 -82.5t125 -51.5q104 -28 161.5 -77z" />
    <glyph glyph-name="scedilla" unicode="&#x15f;" horiz-adv-x="464" 
d="M375 29.5q-49 -38.5 -122 -44.5l-26 -53q51 0 79 -17t28 -40q0 -75 -205 -75v27q50 0 95 12q45 10 45 30q0 11 -8 16.5t-31 8.5t-69 3l41 88q-59 5 -103.5 33.5t-68.5 76.5l61 30q37 -79 145 -79q52 0 86 19t34 59q0 41 -27.5 61t-96.5 26q-96 8 -137.5 43t-41.5 93
q0 65 47 101t129 36q139 0 189 -110l-61 -30q-17 40 -49.5 59t-83.5 19q-52 0 -79.5 -19t-27.5 -54q0 -33 29.5 -53.5t101.5 -26.5q89 -8 132.5 -43.5t43.5 -93.5q0 -64 -49 -102.5z" />
    <glyph glyph-name="Scaron" unicode="&#x160;" horiz-adv-x="583" 
d="M161 21.5q-71 37.5 -118 101.5l61 54q36 -57 92 -90.5t121 -33.5q71 0 108 31.5t37 85.5q0 59 -39.5 90.5t-125.5 55.5q-216 53 -216 196q0 89 58 137t161 48q75 0 134.5 -28t106.5 -86l-59 -50q-36 49 -79 72.5t-103 23.5q-63 0 -103 -29.5t-40 -80.5q0 -52 37 -82.5
t125 -51.5q104 -28 161.5 -77t57.5 -138q0 -55 -28 -97t-80.5 -65.5t-122.5 -23.5q-75 0 -146 37.5zM155 872l136 -67l137 67l19 -34l-156 -104l-155 104z" />
    <glyph glyph-name="scaron" unicode="&#x161;" horiz-adv-x="464" 
d="M108.5 13q-51.5 29 -78.5 82l61 30q37 -79 145 -79q52 0 86 19t34 59q0 41 -27.5 61t-96.5 26q-96 8 -137.5 43t-41.5 93q0 65 47 101t129 36q139 0 189 -110l-61 -30q-17 40 -49.5 59t-83.5 19q-52 0 -79.5 -19t-27.5 -54q0 -33 29.5 -53.5t101.5 -26.5
q89 -8 132.5 -43.5t43.5 -93.5q0 -47 -27 -80.5t-72 -50.5t-97 -17q-68 0 -119.5 29zM231 547l-135 124l19 34l116 -77l117 77l19 -34z" />
    <glyph glyph-name="uni0162" unicode="&#x162;" horiz-adv-x="534" 
d="M230 0v620h-215v62h504v-62h-215v-620h-74zM164 -173q50 0 95 12q45 10 45 30q0 11 -8 16.5t-31 8.5t-69 3l48 103h51l-33 -68q51 0 79 -17t28 -40q0 -75 -205 -75v27z" />
    <glyph glyph-name="uni0163" unicode="&#x163;" horiz-adv-x="275" 
d="M88 0v406h-80v62h80v155h68v-155h108v-62h-108v-406h-68zM22 -173q50 0 95 12q45 10 45 30q0 11 -8 16.5t-31 8.5t-69 3l48 103h51l-33 -68q51 0 79 -17t28 -40q0 -75 -205 -75v27z" />
    <glyph glyph-name="Tcaron" unicode="&#x164;" horiz-adv-x="534" 
d="M230 0v620h-215v62h504v-62h-215v-620h-74zM130 872l136 -67l137 67l19 -34l-156 -104l-155 104z" />
    <glyph glyph-name="tcaron" unicode="&#x165;" horiz-adv-x="275" 
d="M88 0v406h-80v62h80v155h68v-155h108v-62h-108v-406h-68zM246 529q44 49 44 100q0 27 -12 53q-5 10 -5 23q0 15 9.5 23.5t26.5 8.5q56 0 56 -66q0 -40 -27.5 -88t-69.5 -77z" />
    <glyph glyph-name="Tbar" unicode="&#x166;" horiz-adv-x="534" 
d="M519 620h-215v-215h114v-48h-114v-357h-74v357h-114v48h114v215h-215v62h504v-62z" />
    <glyph glyph-name="tbar" unicode="&#x167;" horiz-adv-x="275" 
d="M264 406h-108v-98h108v-48h-108v-260h-68v260h-80v48h80v98h-80v62h80v155h68v-155h108v-62z" />
    <glyph glyph-name="Utilde" unicode="&#x168;" horiz-adv-x="660" 
d="M143 52.5q-63 68.5 -63 200.5v429h75v-429q0 -201 177 -201q80 0 126.5 52t46.5 149v429h75v-429q0 -130 -65.5 -199.5t-182.5 -69.5q-126 0 -189 68.5zM366.5 747q-16.5 6 -35.5 17q-3 2 -16.5 8t-26.5 9.5t-27 3.5q-26 0 -39.5 -8t-18.5 -26h-45q5 39 29.5 67t68.5 28
q21 0 38.5 -6t42.5 -19q20 -10 36 -15.5t32 -5.5q21 0 34.5 10.5t15.5 25.5h46q-5 -41 -27.5 -68t-68.5 -27q-22 0 -38.5 6z" />
    <glyph glyph-name="utilde" unicode="&#x169;" horiz-adv-x="537" 
d="M474 468v-468h-68v78q-24 -45 -63.5 -69.5t-91.5 -24.5q-49 0 -90.5 20t-66 59t-24.5 92v313h68v-283q0 -139 124 -139q72 0 108 51t36 137v234h68zM131.5 643.5q29.5 40.5 73.5 40.5q21 0 37 -8.5t39 -26.5q20 -16 33.5 -23.5t29.5 -7.5q21 0 34.5 19t15.5 47h46
q-5 -52 -32.5 -91t-73.5 -39q-22 0 -36 8t-33 25q-18 16 -31.5 23.5t-33.5 7.5q-26 0 -39.5 -15.5t-18.5 -48.5h-45q5 49 34.5 89.5z" />
    <glyph glyph-name="Umacron" unicode="&#x16a;" horiz-adv-x="660" 
d="M143 52.5q-63 68.5 -63 200.5v429h75v-429q0 -201 177 -201q80 0 126.5 52t46.5 149v429h75v-429q0 -130 -65.5 -199.5t-182.5 -69.5q-126 0 -189 68.5zM196 766v45h267v-45h-267z" />
    <glyph glyph-name="umacron" unicode="&#x16b;" horiz-adv-x="537" 
d="M474 468v-468h-68v78q-24 -45 -63.5 -69.5t-91.5 -24.5q-49 0 -90.5 20t-66 59t-24.5 92v313h68v-283q0 -139 124 -139q72 0 108 51t36 137v234h68zM135 586v45h267v-45h-267z" />
    <glyph glyph-name="Ubreve" unicode="&#x16c;" horiz-adv-x="660" 
d="M143 52.5q-63 68.5 -63 200.5v429h75v-429q0 -201 177 -201q80 0 126.5 52t46.5 149v429h75v-429q0 -130 -65.5 -199.5t-182.5 -69.5q-126 0 -189 68.5zM225 769.5q-40 29.5 -41 88.5h41q10 -57 105 -57t105 57h41q-1 -59 -41 -88.5t-105 -29.5t-105 29.5z" />
    <glyph glyph-name="ubreve" unicode="&#x16d;" horiz-adv-x="537" 
d="M474 468v-468h-68v78q-24 -45 -63.5 -69.5t-91.5 -24.5q-49 0 -90.5 20t-66 59t-24.5 92v313h68v-283q0 -139 124 -139q72 0 108 51t36 137v234h68zM171 594.5q-37 34.5 -38 103.5h41q4 -39 28.5 -58t66.5 -19t66.5 19t28.5 58h41q-1 -69 -38 -103.5t-98 -34.5t-98 34.5z
" />
    <glyph glyph-name="Uring" unicode="&#x16e;" horiz-adv-x="660" 
d="M143 52.5q-63 68.5 -63 200.5v429h75v-429q0 -201 177 -201q80 0 126.5 52t46.5 149v429h75v-429q0 -130 -65.5 -199.5t-182.5 -69.5q-126 0 -189 68.5zM259 769q-29 29 -29 70t29 70.5t70 29.5t70.5 -29.5t29.5 -70.5t-29.5 -70t-70.5 -29t-70 29zM364.5 804
q14.5 15 14.5 35q0 21 -14.5 35.5t-34.5 14.5q-21 0 -35.5 -14.5t-14.5 -34.5q0 -21 14.5 -36t35.5 -15q20 0 34.5 15z" />
    <glyph glyph-name="uring" unicode="&#x16f;" horiz-adv-x="537" 
d="M474 468v-468h-68v78q-24 -45 -63.5 -69.5t-91.5 -24.5q-49 0 -90.5 20t-66 59t-24.5 92v313h68v-283q0 -139 124 -139q72 0 108 51t36 137v234h68zM198 589q-29 29 -29 70t29 70.5t70 29.5t70.5 -29.5t29.5 -70.5t-29.5 -70t-70.5 -29t-70 29zM303.5 624
q14.5 15 14.5 35q0 21 -14.5 35.5t-34.5 14.5q-21 0 -35.5 -14.5t-14.5 -34.5q0 -21 14.5 -36t35.5 -15q20 0 34.5 15z" />
    <glyph glyph-name="Uhungarumlaut" unicode="&#x170;" horiz-adv-x="660" 
d="M143 52.5q-63 68.5 -63 200.5v429h75v-429q0 -201 177 -201q80 0 126.5 52t46.5 149v429h75v-429q0 -130 -65.5 -199.5t-182.5 -69.5q-126 0 -189 68.5zM234 760l-28 27l192 152l48 -48zM406 760l-28 27l202 132l48 -48z" />
    <glyph glyph-name="uhungarumlaut" unicode="&#x171;" horiz-adv-x="537" 
d="M474 468v-468h-68v78q-24 -45 -63.5 -69.5t-91.5 -24.5q-49 0 -90.5 20t-66 59t-24.5 92v313h68v-283q0 -139 124 -139q72 0 108 51t36 137v234h68zM199 560l-28 27l114 160l48 -48zM341 560l-28 27l114 160l48 -48z" />
    <glyph glyph-name="Uogonek" unicode="&#x172;" horiz-adv-x="660" 
d="M580 682v-429q0 -95 -35.5 -158t-101.5 -91q-35 -16 -59 -44.5t-24 -64.5q0 -17 8 -39q7 -18 20.5 -27.5t32.5 -9.5q20 0 44 12l12 -22q-51 -28 -93 -28q-32 0 -55.5 16.5t-33.5 46.5q-5 14 -5 33q0 31 18 59t50 49q-9 -1 -26 -1q-126 0 -189 68.5t-63 200.5v429h75v-429
q0 -201 177 -201q80 0 126.5 52t46.5 149v429h75z" />
    <glyph glyph-name="uogonek" unicode="&#x173;" horiz-adv-x="537" 
d="M490 -195q-51 -28 -93 -28q-32 0 -55.5 16.5t-33.5 46.5q-5 14 -5 33q0 40 29 74t76 53h-2v78q-24 -45 -63.5 -69.5t-91.5 -24.5q-49 0 -90.5 20t-66 59t-24.5 92v313h68v-283q0 -139 124 -139q72 0 108 51t36 137v234h68v-468h-18q-35 -16 -59 -44.5t-24 -64.5
q0 -17 8 -39q7 -18 20.5 -27.5t32.5 -9.5q20 0 44 12z" />
    <glyph glyph-name="Wcircumflex" unicode="&#x174;" horiz-adv-x="851" 
d="M758 682h71l-182 -682h-78l-142 548l-146 -548h-77l-182 682h77l146 -574l152 574h61l153 -579zM289 737l-19 34l155 104l156 -104l-19 -34l-137 67z" />
    <glyph glyph-name="wcircumflex" unicode="&#x175;" horiz-adv-x="719" 
d="M633 468h65l-152 -468h-71l-114 359l-123 -359h-68l-154 468h72l120 -372l122 372h66l118 -370zM243 567l-19 34l135 124l136 -124l-19 -34l-117 77z" />
    <glyph glyph-name="Ycircumflex" unicode="&#x176;" horiz-adv-x="484" 
d="M430 682h69l-221 -403v-279h-74v282l-219 400h75l186 -340zM105 737l-19 34l155 104l156 -104l-19 -34l-137 67z" />
    <glyph glyph-name="ycircumflex" unicode="&#x177;" horiz-adv-x="449" 
d="M385 468h64l-253 -668h-68l74 191l-192 477h71l155 -388zM108 567l-19 34l135 124l136 -124l-19 -34l-117 77z" />
    <glyph glyph-name="Ydieresis" unicode="&#x178;" horiz-adv-x="484" 
d="M430 682h69l-221 -403v-279h-74v282l-219 400h75l186 -340zM105.5 775q-15.5 16 -15.5 39q0 22 15.5 37.5t38.5 15.5q22 0 38.5 -15.5t16.5 -38.5q0 -22 -16.5 -38t-38.5 -16q-23 0 -38.5 16zM301 775q-16 16 -16 39q0 22 16 37.5t39 15.5q22 0 38 -15.5t16 -38.5
q0 -22 -16 -38t-38 -16q-23 0 -39 16z" />
    <glyph glyph-name="Zacute" unicode="&#x179;" horiz-adv-x="503" 
d="M38 0v63l362 557h-352v62h426v-75l-356 -545h346v-62h-426zM147 725l-20 34l216 111l34 -58z" />
    <glyph glyph-name="zacute" unicode="&#x17a;" horiz-adv-x="420" 
d="M383 468v-62l-268 -344h268v-62h-346v62l268 344h-268v62h346zM165 537l-20 34l186 111l34 -58z" />
    <glyph glyph-name="Zdotaccent" unicode="&#x17b;" horiz-adv-x="503" 
d="M38 0v63l362 557h-352v62h426v-75l-356 -545h346v-62h-426zM213.5 765q-15.5 16 -15.5 39q0 22 15.5 37.5t38.5 15.5q22 0 38 -15.5t16 -38.5q0 -22 -16 -38t-38 -16q-23 0 -38.5 16z" />
    <glyph glyph-name="zdotaccent" unicode="&#x17c;" horiz-adv-x="420" 
d="M383 468v-62l-268 -344h268v-62h-346v62l268 344h-268v62h346zM171.5 575q-15.5 16 -15.5 39q0 22 15.5 37.5t38.5 15.5q22 0 38 -15.5t16 -38.5q0 -22 -16 -38t-38 -16q-23 0 -38.5 16z" />
    <glyph glyph-name="Zcaron" unicode="&#x17d;" horiz-adv-x="503" 
d="M38 0v63l362 557h-352v62h426v-75l-356 -545h346v-62h-426zM115 872l136 -67l137 67l19 -34l-156 -104l-155 104z" />
    <glyph glyph-name="zcaron" unicode="&#x17e;" horiz-adv-x="420" 
d="M383 468v-62l-268 -344h268v-62h-346v62l268 344h-268v62h346zM209 547l-135 124l19 34l116 -77l117 77l19 -34z" />
    <glyph glyph-name="uni0180" unicode="&#x180;" horiz-adv-x="569" 
d="M424.5 452q52.5 -32 82 -88.5t29.5 -128.5q0 -73 -30 -130t-83 -89t-120 -32q-50 0 -92 22.5t-71 62.5v-69h-68v567h-71v48h71v111h68v-111h163v-48h-163v-169q29 41 71.5 63.5t93.5 22.5q67 0 119.5 -32zM389 70q37 24 58 67t21 98q0 54 -21 96.5t-58 66.5t-84 24
q-48 0 -85.5 -24t-58.5 -67t-21 -97t21 -97t58.5 -67t85.5 -24q47 0 84 24z" />
    <glyph glyph-name="uni0181" unicode="&#x181;" horiz-adv-x="697" 
d="M624 309q32 -43 32 -113q0 -91 -55 -143.5t-151 -52.5h-248v614h-26q-36 0 -61 -22.5t-25 -57.5v-108h-63v108q0 41 19.5 74.5t53.5 53.5t76 20h251q91 0 143 -47.5t52 -126.5q0 -51 -23 -87.5t-66 -53.5q59 -15 91 -58zM277 391h159q107 0 107 117q0 53 -31 82t-86 29
h-149v-228zM540.5 98q36.5 36 36.5 98t-36.5 97.5t-100.5 35.5h-163v-267h163q64 0 100.5 36z" />
    <glyph glyph-name="uni0186" unicode="&#x186;" horiz-adv-x="605" 
d="M130.5 25q-59.5 41 -95.5 119l63 38q34 -67 73.5 -98.5t110.5 -31.5q57 0 100 34.5t66 99.5t23 154q0 136 -50.5 212.5t-139.5 76.5q-62 0 -105 -25.5t-75 -84.5l-60 35q34 68 94.5 105.5t145.5 37.5q83 0 143.5 -42.5t93 -123t32.5 -192.5q0 -111 -33.5 -190.5t-96 -122
t-148.5 -42.5q-82 0 -141.5 41z" />
    <glyph glyph-name="uni0187" unicode="&#x187;" horiz-adv-x="685" 
d="M553 724.5q41 35.5 97 35.5v-68q-37 0 -61.5 -24t-24.5 -56v-58l-60 -35q-32 59 -75 84.5t-105 25.5q-89 0 -139.5 -76.5t-50.5 -212.5q0 -89 23 -154t66 -99.5t100 -34.5q71 0 110.5 31.5t73.5 98.5l63 -38q-36 -78 -95.5 -119t-141.5 -41q-86 0 -148.5 42.5t-96 122
t-33.5 190.5q0 112 32.5 192.5t93 123t143.5 42.5q109 0 180 -63q8 55 49 90.5z" />
    <glyph glyph-name="uni0188" unicode="&#x188;" horiz-adv-x="477" 
d="M425.5 550.5q38.5 36.5 103.5 36.5v-62q-40 0 -63 -21t-23 -59v-55l-4 3l2 -3l-50 -39q-49 71 -127 71q-47 0 -84.5 -24t-58.5 -67t-21 -97t21 -97t58.5 -67t84.5 -24q48 0 79 16.5t56 48.5l53 -37q-33 -41 -81.5 -65.5t-104.5 -24.5q-68 0 -121 32t-83 89t-30 129
t29.5 129t82.5 89t120 32q66 0 119 -37q4 67 42.5 103.5z" />
    <glyph glyph-name="uni0189" unicode="&#x189;" horiz-adv-x="641" 
d="M430 641.5q76 -40.5 116 -117.5t40 -184q0 -160 -89 -250t-248 -90h-169v317h-70v48h70v317h169q105 0 181 -40.5zM438 135q69 67 69 205q0 139 -69 206t-191 67h-92v-248h117v-48h-117v-249h92q122 0 191 67z" />
    <glyph glyph-name="uni018A" unicode="&#x18a;" horiz-adv-x="763" 
d="M552 641.5q76 -40.5 116 -117.5t40 -184q0 -160 -89 -250t-248 -90h-169v614h-26q-36 0 -61 -22.5t-25 -57.5v-108h-63v108q0 41 19.5 74.5t53.5 53.5t76 20h195q105 0 181 -40.5zM560 135q69 67 69 205q0 139 -69 206t-191 67h-92v-545h92q122 0 191 67z" />
    <glyph glyph-name="uni018E" unicode="&#x18e;" horiz-adv-x="503" 
d="M39 0v62h311v278h-240v61h240v218h-308v63h382v-682h-385z" />
    <glyph glyph-name="uni018F" unicode="&#x18f;" horiz-adv-x="694" 
d="M494.5 652q68.5 -45 106.5 -124.5t38 -180.5q0 -105 -37.5 -187.5t-104.5 -129t-152 -46.5t-150 44.5t-100 123t-35 176.5q0 26 1 39h500q-4 69 -30 129t-74 96.5t-114 36.5q-84 0 -138 -35t-88 -98l-62 34q43 78 115 122.5t170 44.5q86 0 154.5 -45zM453 87.5
q46 34.5 72.5 92t33.5 125.5h-426q10 -125 65 -188.5t147 -63.5q62 0 108 34.5z" />
    <glyph glyph-name="uni0190" unicode="&#x190;" horiz-adv-x="516" 
d="M110.5 41.5q-64.5 57.5 -64.5 160.5q0 116 131 163q-108 50 -108 146q0 88 58.5 137t149.5 49q120 0 189 -72l-50 -47q-22 27 -54 39.5t-85 12.5q-38 0 -68.5 -16t-47.5 -43.5t-17 -59.5q0 -54 37 -85.5t113 -31.5v-67q-80 0 -126.5 -39t-46.5 -102q0 -39 22 -69.5
t59 -47.5t80 -17q122 0 171 69l53 -42q-38 -49 -90 -72t-134 -23q-107 0 -171.5 57.5z" />
    <glyph glyph-name="uni0191" unicode="&#x191;" horiz-adv-x="479" 
d="M-34 -132h27q35 0 60.5 23t25.5 57v734h382v-63h-307v-218h240v-61h-240v-392q0 -41 -23.5 -75t-60.5 -53.5t-77 -19.5h-27v68z" />
    <glyph glyph-name="florin" unicode="&#x192;" horiz-adv-x="289" 
d="M-20 -138h28q35 0 57.5 24t22.5 62v458h-60v62h60v127q0 65 41.5 106.5t106.5 41.5h28v-62h-28q-35 0 -57.5 -24t-22.5 -62v-127h108v-62h-108v-458q0 -65 -41.5 -106.5t-106.5 -41.5h-28v62z" />
    <glyph glyph-name="uni0193" unicode="&#x193;" horiz-adv-x="654" 
d="M556 724.5q41 35.5 98 35.5v-68q-37 0 -61.5 -24t-24.5 -56v-55l-59 -42q-63 114 -176 114q-94 0 -146.5 -76.5t-52.5 -212.5q0 -135 53 -211.5t146 -76.5q52 0 93.5 25t65.5 74t24 120h-161v62h235v-62q0 -93 -33 -157.5t-91.5 -97t-132.5 -32.5q-86 0 -148.5 42.5
t-96 122t-33.5 190.5q0 112 33.5 192.5t96 123t148.5 42.5q104 0 174 -64q8 56 49 91.5z" />
    <glyph glyph-name="uni0194" unicode="&#x194;" horiz-adv-x="527" 
d="M193 -174q-25 26 -25 68q0 37 12.5 73.5t43.5 97.5l-224 617h79l187 -530l183 530h79l-224 -617q31 -61 43.5 -97.5t12.5 -73.5q0 -42 -25 -68t-71 -26t-71 26zM283.5 -132.5q6.5 9.5 6.5 26.5q0 45 -26 91q-13 -21 -19.5 -45.5t-6.5 -45.5q0 -17 6.5 -26.5t19.5 -9.5
t19.5 9.5z" />
    <glyph glyph-name="uni0196" unicode="&#x196;" horiz-adv-x="264" 
d="M122 38q-47 38 -47 110v534h75v-534q0 -80 86 -80v-68q-65 0 -114 38z" />
    <glyph glyph-name="uni0197" unicode="&#x197;" horiz-adv-x="324" 
d="M289 328h-89v-262h66v-66h-207v66h66v262h-90v42h90v246h-66v66h207v-66h-66v-246h89v-42z" />
    <glyph glyph-name="uni0198" unicode="&#x198;" horiz-adv-x="646" 
d="M591.5 664.5q22.5 -23.5 22.5 -59.5q0 -27 -12.5 -53.5t-37.5 -48.5l-36 32q28 31 28 58q0 15 -9.5 24t-26.5 9q-27 0 -49 -14.5t-55 -55.5l-147 -175l276 -381h-85l-235 328l-71 -85v-243h-75v682h75v-345l218 260q39 46 76.5 68.5t80.5 22.5q40 0 62.5 -23.5z" />
    <glyph glyph-name="uni0199" unicode="&#x199;" horiz-adv-x="435" 
d="M187 241l-57 -55v-186h-68v594q0 69 39 108t108 39h30v-62h-30q-37 0 -58 -21t-21 -59v-327l205 196h88l-189 -182l193 -286h-76z" />
    <glyph glyph-name="uni019B" unicode="&#x19b;" horiz-adv-x="457" 
d="M2 0l190 469l-27 68l-87 -41l-26 56l90 42l-35 88h72l24 -60l79 37l26 -56l-82 -38l230 -565h-74l-154 384l-156 -384h-70z" />
    <glyph glyph-name="uni019D" unicode="&#x19d;" horiz-adv-x="639" 
d="M496 618q63 -79 63 -220v-398h-75v398q0 109 -43.5 170t-120.5 61q-53 0 -96.5 -25t-68.5 -70v-516q0 -103 -45.5 -160.5t-125.5 -57.5h-7v68h7q45 0 70.5 40t25.5 110v664h75v-55q34 33 77.5 51.5t87.5 18.5q113 0 176 -79z" />
    <glyph glyph-name="uni019E" unicode="&#x19e;" horiz-adv-x="534" 
d="M376.5 464q41.5 -20 66 -59t24.5 -92v-513h-68v483q0 139 -124 139q-72 0 -108 -51t-36 -137v-234h-68v468h68v-78q24 45 63.5 69.5t91.5 24.5q49 0 90.5 -20z" />
    <glyph glyph-name="uni019F" unicode="&#x19f;" horiz-adv-x="696" 
d="M499.5 651.5q66.5 -45.5 104 -127t37.5 -185.5q0 -103 -37.5 -183.5t-104 -126t-151.5 -45.5t-151.5 45.5t-104 126.5t-37.5 184t37.5 184.5t104 127t151.5 45.5t151.5 -45.5zM241.5 595.5q-47.5 -33.5 -76.5 -93.5t-33 -137h432q-4 77 -33 137t-76.5 93.5t-106.5 33.5
t-106.5 -33.5zM454.5 86.5q47.5 33.5 76.5 93.5t33 137h-432q4 -77 33 -137t76.5 -93.5t106.5 -33.5t106.5 33.5z" />
    <glyph glyph-name="uni01A4" unicode="&#x1a4;" horiz-adv-x="657" 
d="M577 626q55 -56 55 -155q0 -98 -57.5 -154t-152.5 -56h-145v-261h-75v614h-26q-36 0 -61 -22.5t-25 -57.5v-108h-63v108q0 41 19.5 74.5t53.5 53.5t76 20h254q92 0 147 -56zM522 360.5q35 37.5 35 110.5t-35 111t-102 38h-143v-297h143q67 0 102 37.5z" />
    <glyph glyph-name="uni01A5" unicode="&#x1a5;" horiz-adv-x="560" 
d="M415.5 452q52.5 -32 82 -88.5t29.5 -128.5q0 -73 -30 -130t-83 -89t-120 -32q-50 0 -92 22.5t-71 62.5v-269h-68v687q0 69 39 108t108 39h30v-62h-30q-37 0 -58 -21t-21 -59v-94q29 41 71.5 63.5t93.5 22.5q67 0 119.5 -32zM380 70q37 24 58 67t21 98q0 54 -21 96.5
t-58 66.5t-84 24q-48 0 -85.5 -24t-58.5 -67t-21 -97t21 -97t58.5 -67t85.5 -24q47 0 84 24z" />
    <glyph glyph-name="uni01A9" unicode="&#x1a9;" horiz-adv-x="498" 
d="M43 0v63l170 273l-170 271v75h426v-62h-352l177 -284l-171 -274h346v-62h-426z" />
    <glyph glyph-name="uni01AC" unicode="&#x1ac;" horiz-adv-x="565" 
d="M276 620h-122q-72 0 -72 -53q0 -49 72 -49v-62q-61 0 -99.5 29t-38.5 82q0 54 40 84.5t98 30.5h391v-62h-195v-620h-74v620z" />
    <glyph glyph-name="uni01AD" unicode="&#x1ad;" horiz-adv-x="299" 
d="M128 34.5q-40 34.5 -40 103.5v268h-60v62h60v110q0 70 40.5 109t113.5 39v-62q-41 0 -63.5 -23.5t-22.5 -66.5v-106h108v-62h-108v-264q0 -38 23 -59t63 -21h27v-62h-27q-74 0 -114 34.5z" />
    <glyph glyph-name="uni01AE" unicode="&#x1ae;" horiz-adv-x="506" 
d="M325 -112.5q21 -19.5 64 -19.5h27v-68h-27q-74 0 -116.5 35t-42.5 113v672h-215v62h504v-62h-215v-672q0 -41 21 -60.5z" />
    <glyph glyph-name="uni01B1" unicode="&#x1b1;" horiz-adv-x="686" 
d="M550 599q43 -84 64.5 -145.5t21.5 -143.5q0 -96 -34.5 -170t-100.5 -115t-158 -41t-158 41t-100.5 115t-34.5 170q0 82 21.5 143.5t64.5 145.5l14 28h-80v55h158v-56q-56 -93 -79 -161t-23 -155q0 -126 54.5 -191.5t162.5 -65.5t162.5 65.5t54.5 191.5q0 87 -23 155
t-79 161v56h158v-55h-80z" />
    <glyph glyph-name="uni01B2" unicode="&#x1b2;" horiz-adv-x="641" 
d="M140.5 65q-68.5 81 -68.5 225v392h79v-392q0 -112 47 -174.5t132 -62.5q97 0 152 76t55 211q0 90 -41 180t-119 162h88q73 -73 112 -160t39 -182q0 -168 -75.5 -262t-210.5 -94q-121 0 -189.5 81z" />
    <glyph glyph-name="uni01B3" unicode="&#x1b3;" horiz-adv-x="640" 
d="M612.5 669q27.5 -28 27.5 -71q0 -50 -36 -103l-50 35q20 31 20 61q0 20 -13 33.5t-32 13.5q-35 0 -59 -26.5t-57 -86.5l-135 -246v-279h-74v282l-219 400h75l186 -340l121 224q26 47 48 74.5t51.5 42t71.5 14.5q47 0 74.5 -28z" />
    <glyph glyph-name="uni01B4" unicode="&#x1b4;" horiz-adv-x="621" 
d="M202 -9l-192 477h71l155 -388l110 301q21 52 56.5 77.5t91.5 25.5q51 0 83 -29.5t32 -78.5q0 -45 -35 -94l-52 29q20 33 20 62q0 23 -14.5 36t-41.5 13q-53 0 -81 -73l-209 -549h-68z" />
    <glyph glyph-name="uni01B7" unicode="&#x1b7;" horiz-adv-x="548" 
d="M409.5 369.5q47.5 -28.5 70.5 -75t23 -101.5q0 -64 -29.5 -111.5t-81.5 -72.5t-116 -25q-79 0 -138 40t-93 120l60 35q30 -63 71.5 -96.5t103.5 -33.5q65 0 107 38.5t42 110.5q0 73 -44 117t-118 44h-48v40l182 221h-318v62h391v-62l-183 -221q71 -1 118.5 -29.5z" />
    <glyph glyph-name="uni01C2" unicode="&#x1c2;" horiz-adv-x="314" 
d="M139 -68v334h-116v55h116v55h-116v54h116v320h41v-320h112v-54h-112v-55h112v-55h-112v-334h-41z" />
    <glyph glyph-name="uni01CD" unicode="&#x1cd;" horiz-adv-x="585" 
d="M503 0l-70 191h-283l-63 -191h-75l242 682h70l249 -682h-70zM173 253h237l-122 331zM156 872l136 -67l137 67l19 -34l-156 -104l-155 104z" />
    <glyph glyph-name="uni01CE" unicode="&#x1ce;" horiz-adv-x="561" 
d="M498 468v-468h-68v69q-29 -40 -71 -62.5t-92 -22.5q-67 0 -120 32t-83 89t-30 130q0 72 29.5 128.5t82 88.5t119.5 32q51 0 93.5 -22.5t71.5 -63.5v70h68zM350.5 70q37.5 24 58.5 67t21 97t-21 97t-58.5 67t-85.5 24q-47 0 -84 -24t-58 -66.5t-21 -96.5q0 -55 21 -98
t58 -67t84 -24q48 0 85.5 24zM280 547l-135 124l19 34l116 -77l117 77l19 -34z" />
    <glyph glyph-name="uni01CF" unicode="&#x1cf;" horiz-adv-x="317" 
d="M55 0v66h66v550h-66v66h207v-66h-66v-550h66v-66h-207zM22 872l136 -67l137 67l19 -34l-156 -104l-155 104z" />
    <glyph glyph-name="uni01D0" unicode="&#x1d0;" horiz-adv-x="268" 
d="M100 0v468h68v-468h-68zM133 547l-115 124l36 29l78 -72l83 72l34 -29z" />
    <glyph glyph-name="uni01D1" unicode="&#x1d1;" horiz-adv-x="696" 
d="M196.5 29.5q-66.5 45.5 -104 126.5t-37.5 184t37.5 184.5t104 127t151.5 45.5t151.5 -45.5t104 -127t37.5 -185.5q0 -103 -37.5 -183.5t-104 -126t-151.5 -45.5t-151.5 45.5zM459.5 89.5q49.5 36.5 77.5 102t28 148.5t-28 149t-77.5 103t-111.5 37t-111.5 -37t-77.5 -103
t-28 -149t28 -148.5t77.5 -102t111.5 -36.5t111.5 36.5zM211 872l136 -67l137 67l19 -34l-156 -104l-155 104z" />
    <glyph glyph-name="uni01D2" unicode="&#x1d2;" horiz-adv-x="531" 
d="M147 16q-53 32 -83 89.5t-30 129.5t29.5 128.5t82 88.5t119.5 32t120 -32t83 -89t30 -129t-29.5 -129t-82 -89t-119.5 -32t-120 32zM350.5 70q37.5 24 58.5 67t21 97t-21 97t-58.5 67t-85.5 24q-47 0 -84 -24t-58 -66.5t-21 -96.5q0 -55 21 -98t58 -67t84 -24
q48 0 85.5 24zM265 547l-135 124l19 34l116 -77l117 77l19 -34z" />
    <glyph glyph-name="uni01D3" unicode="&#x1d3;" horiz-adv-x="660" 
d="M143 52.5q-63 68.5 -63 200.5v429h75v-429q0 -201 177 -201q80 0 126.5 52t46.5 149v429h75v-429q0 -130 -65.5 -199.5t-182.5 -69.5q-126 0 -189 68.5zM193 872l136 -67l137 67l19 -34l-156 -104l-155 104z" />
    <glyph glyph-name="uni01D4" unicode="&#x1d4;" horiz-adv-x="537" 
d="M474 468v-468h-68v78q-24 -45 -63.5 -69.5t-91.5 -24.5q-49 0 -90.5 20t-66 59t-24.5 92v313h68v-283q0 -139 124 -139q72 0 108 51t36 137v234h68zM268 547l-135 124l19 34l116 -77l117 77l19 -34z" />
    <glyph glyph-name="uni01DD" unicode="&#x1dd;" horiz-adv-x="525" 
d="M378 452q53 -32 83 -89t30 -129t-29.5 -129t-82 -89t-119.5 -32q-63 0 -114 31t-80 84.5t-29 119.5q0 19 1 29h385q-4 72 -47 123t-117 51q-60 0 -99.5 -22.5t-63.5 -62.5l-54 36q33 52 87 81.5t128 29.5q68 0 121 -32zM366.5 87.5q41.5 41.5 52.5 104.5h-314
q10 -73 49 -109.5t106 -36.5q65 0 106.5 41.5z" />
    <glyph glyph-name="uni01DE" unicode="&#x1de;" horiz-adv-x="585" 
d="M503 0l-70 191h-283l-63 -191h-75l242 682h70l249 -682h-70zM173 253h237l-122 331zM156.5 775q-15.5 16 -15.5 39q0 22 15.5 37.5t38.5 15.5q22 0 38.5 -15.5t16.5 -38.5q0 -22 -16.5 -38t-38.5 -16q-23 0 -38.5 16zM352 775q-16 16 -16 39q0 22 16 37.5t39 15.5
q22 0 38 -15.5t16 -38.5q0 -22 -16 -38t-38 -16q-23 0 -39 16zM159 931v45h267v-45h-267z" />
    <glyph glyph-name="uni01DF" unicode="&#x1df;" horiz-adv-x="561" 
d="M498 468v-468h-68v69q-29 -40 -71 -62.5t-92 -22.5q-67 0 -120 32t-83 89t-30 130q0 72 29.5 128.5t82 88.5t119.5 32q51 0 93.5 -22.5t71.5 -63.5v70h68zM350.5 70q37.5 24 58.5 67t21 97t-21 97t-58.5 67t-85.5 24q-47 0 -84 -24t-58 -66.5t-21 -96.5q0 -55 21 -98
t58 -67t84 -24q48 0 85.5 24zM144.5 575q-15.5 16 -15.5 39q0 22 15.5 37.5t38.5 15.5q22 0 38.5 -15.5t16.5 -38.5q0 -22 -16.5 -38t-38.5 -16q-23 0 -38.5 16zM340 575q-16 16 -16 39q0 22 16 37.5t39 15.5q22 0 38 -15.5t16 -38.5q0 -22 -16 -38t-38 -16q-23 0 -39 16z
M147 725v45h267v-45h-267z" />
    <glyph glyph-name="Gcaron" unicode="&#x1e6;" horiz-adv-x="606" 
d="M158.5 26.5q-62.5 42.5 -96 122t-33.5 190.5q0 112 33.5 192.5t96 123t148.5 42.5q79 0 136.5 -35.5t98.5 -104.5l-59 -42q-63 114 -176 114q-94 0 -146.5 -76.5t-52.5 -212.5q0 -135 53 -211.5t146 -76.5q52 0 93.5 25t65.5 74t24 120h-161v62h235v-62q0 -93 -33 -157.5
t-91.5 -97t-132.5 -32.5q-86 0 -148.5 42.5zM166 872l136 -67l137 67l19 -34l-156 -104l-155 104z" />
    <glyph glyph-name="gcaron" unicode="&#x1e7;" horiz-adv-x="561" 
d="M498 468v-450q0 -63 -26 -112.5t-73 -77.5t-107 -28h-194v62h194q61 0 99.5 44t38.5 112v51q-29 -40 -71 -62.5t-92 -22.5q-67 0 -120 32t-83 89t-30 130q0 72 29.5 128.5t82 88.5t119.5 32q51 0 93.5 -22.5t71.5 -63.5v70h68zM350.5 70q37.5 24 58.5 67t21 97t-21 97
t-58.5 67t-85.5 24q-47 0 -84 -24t-58 -66.5t-21 -96.5q0 -55 21 -98t58 -67t84 -24q48 0 85.5 24zM250 547l-135 124l19 34l116 -77l117 77l19 -34z" />
    <glyph glyph-name="uni01EA" unicode="&#x1ea;" horiz-adv-x="696" 
d="M196.5 29.5q-66.5 45.5 -104 126.5t-37.5 184t37.5 184.5t104 127t151.5 45.5t151.5 -45.5t104 -127t37.5 -185.5q0 -103 -37.5 -183.5t-104 -126t-151.5 -45.5t-151.5 45.5zM459.5 89.5q49.5 36.5 77.5 102t28 148.5t-28 149t-77.5 103t-111.5 37t-111.5 -37t-77.5 -103
t-28 -149t28 -148.5t77.5 -102t111.5 -36.5t111.5 36.5zM511.5 -196.5q-23.5 16.5 -33.5 46.5q-6 16 -6 33q0 50 44.5 89.5t109.5 51.5v-14q-35 -16 -59 -44.5t-24 -64.5q0 -17 8 -39q7 -18 20.5 -27.5t32.5 -9.5q20 0 44 12l12 -22q-51 -28 -93 -28q-32 0 -55.5 16.5z" />
    <glyph glyph-name="uni01EB" unicode="&#x1eb;" horiz-adv-x="531" 
d="M279.5 -50q-23.5 -28 -23.5 -64q0 -17 8 -39q7 -18 20.5 -27.5t32.5 -9.5q20 0 44 12l12 -22q-51 -28 -93 -28q-32 0 -55.5 16.5t-33.5 46.5q-6 16 -6 33q0 34 22 64.5t60 51.5q-67 0 -120 32t-83 89.5t-30 129.5t29.5 128.5t82 88.5t119.5 32t120 -32t83 -89t30 -129
q0 -88 -44 -152.5t-117 -87.5q-34 -16 -57.5 -44zM350.5 70q37.5 24 58.5 67t21 97t-21 97t-58.5 67t-85.5 24q-47 0 -84 -24t-58 -66.5t-21 -96.5q0 -55 21 -98t58 -67t84 -24q48 0 85.5 24z" />
    <glyph glyph-name="uni01F0" unicode="&#x1f0;" horiz-adv-x="193" 
d="M-45 -138h28q35 0 57.5 24t22.5 62v520h68v-520q0 -65 -41.5 -106.5t-106.5 -41.5h-28v62zM96 547l-135 124l19 34l116 -77l117 77l19 -34z" />
    <glyph glyph-name="uni01F8" unicode="&#x1f8;" horiz-adv-x="662" 
d="M80 0v682h80l347 -569v569h75v-682h-80l-347 567v-567h-75zM421 725l-230 87l34 58l216 -111z" />
    <glyph glyph-name="uni01F9" unicode="&#x1f9;" horiz-adv-x="537" 
d="M376.5 464q41.5 -20 66 -59t24.5 -92v-313h-68v283q0 139 -124 139q-72 0 -108 -51t-36 -137v-234h-68v468h68v-78q24 45 63.5 69.5t91.5 24.5q49 0 90.5 -20zM354 537l-200 87l34 58l186 -111z" />
    <glyph glyph-name="Aringacute" unicode="&#x1fa;" horiz-adv-x="585" 
d="M503 0l-70 191h-283l-63 -191h-75l242 682h70l249 -682h-70zM173 253h237l-122 331zM222 769q-29 29 -29 70t29 70.5t70 29.5t70.5 -29.5t29.5 -70.5t-29.5 -70t-70.5 -29t-70 29zM327.5 804q14.5 15 14.5 35q0 21 -14.5 35.5t-34.5 14.5q-21 0 -35.5 -14.5t-14.5 -34.5
q0 -21 14.5 -36t35.5 -15q20 0 34.5 15zM188 982l-20 34l216 111l34 -58z" />
    <glyph glyph-name="aringacute" unicode="&#x1fb;" horiz-adv-x="561" 
d="M498 468v-468h-68v69q-29 -40 -71 -62.5t-92 -22.5q-67 0 -120 32t-83 89t-30 130q0 72 29.5 128.5t82 88.5t119.5 32q51 0 93.5 -22.5t71.5 -63.5v70h68zM350.5 70q37.5 24 58.5 67t21 97t-21 97t-58.5 67t-85.5 24q-47 0 -84 -24t-58 -66.5t-21 -96.5q0 -55 21 -98
t58 -67t84 -24q48 0 85.5 24zM210 589q-29 29 -29 70t29 70.5t70 29.5t70.5 -29.5t29.5 -70.5t-29.5 -70t-70.5 -29t-70 29zM315.5 624q14.5 15 14.5 35q0 21 -14.5 35.5t-34.5 14.5q-21 0 -35.5 -14.5t-14.5 -34.5q0 -21 14.5 -36t35.5 -15q20 0 34.5 15zM236 828l-20 34
l186 111l34 -58z" />
    <glyph glyph-name="AEacute" unicode="&#x1fc;" horiz-adv-x="822" 
d="M472 62h311v-62h-385v198h-212l-116 -198h-70l398 680v2h382v-63h-308v-218h240v-61h-240v-278zM398 253v309l-180 -309h180zM452 725l-20 34l216 111l34 -58z" />
    <glyph glyph-name="aeacute" unicode="&#x1fd;" horiz-adv-x="876" 
d="M733.5 455.5q50.5 -28.5 78.5 -80.5t28 -120q0 -11 -2 -35h-385q4 -72 47 -123t117 -51q60 0 99.5 22.5t63.5 62.5l54 -36q-33 -52 -87 -81.5t-128 -29.5q-51 0 -94.5 19t-75.5 53q-49 -37 -96 -54.5t-107 -17.5q-86 0 -138.5 38.5t-52.5 110.5q0 49 30.5 84.5t81 54
t109.5 18.5q39 0 58 -3.5t51 -14.5q-7 74 -41 113.5t-101 39.5q-38 0 -69 -15t-56 -46l-49 35q34 42 79 63t97 21q69 0 113.5 -28.5t61.5 -80.5q30 52 81 81t115 29q67 0 117.5 -28.5zM771 276q-10 73 -49 109.5t-106 36.5q-65 0 -106.5 -41.5t-52.5 -104.5h314zM417 100
q-29 55 -32 119q-53 11 -99 11q-69 0 -112.5 -24t-43.5 -70t32.5 -68t92.5 -22q86 0 162 54zM393 537l-20 34l186 111l34 -58z" />
    <glyph glyph-name="Oslashacute" unicode="&#x1fe;" horiz-adv-x="696" 
d="M606 519q35 -80 35 -180q0 -103 -37.5 -183.5t-104 -126t-151.5 -45.5q-72 0 -136 35l-39 -82l-49 24l43 91q-53 48 -82.5 122.5t-29.5 165.5q0 103 37.5 184.5t104 127t151.5 45.5q61 0 112 -24l33 70l52 -23l-36 -75q62 -46 97 -126zM149 218.5q18 -55.5 52 -95.5
l229 487q-40 19 -82 19q-62 0 -111.5 -37t-77.5 -103t-28 -149q0 -66 18 -121.5zM459.5 89.5q49.5 36.5 77.5 102t28 148.5q0 75 -23.5 136.5t-64.5 100.5l-234 -492q47 -32 105 -32q62 0 111.5 36.5zM243 725l-20 34l216 111l34 -58z" />
    <glyph glyph-name="oslashacute" unicode="&#x1ff;" horiz-adv-x="531" 
d="M471 357q27 -55 27 -123q0 -72 -29.5 -129t-82 -89t-119.5 -32q-39 0 -80 13l-28 -59l-51 23l29 62q-49 33 -76 88t-27 124q0 72 29.5 128.5t82 88.5t119.5 32q42 0 81 -14l41 88l52 -23l-42 -90q47 -33 74 -88zM118.5 146.5q16.5 -39.5 46.5 -64.5l154 331q-24 9 -54 9
q-47 0 -84 -24t-58 -66.5t-21 -96.5q0 -49 16.5 -88.5zM350.5 70q37.5 24 58.5 67t21 97q0 47 -16 86t-46 65l-154 -331q26 -8 51 -8q48 0 85.5 24zM221 537l-20 34l186 111l34 -58z" />
    <glyph glyph-name="uni0200" unicode="&#x200;" horiz-adv-x="585" 
d="M503 0l-70 191h-283l-63 -191h-75l242 682h70l249 -682h-70zM173 253h237l-122 331zM426 760l-212 131l48 48l192 -152zM254 760l-222 111l48 48l202 -132z" />
    <glyph glyph-name="uni0201" unicode="&#x201;" horiz-adv-x="561" 
d="M498 468v-468h-68v69q-29 -40 -71 -62.5t-92 -22.5q-67 0 -120 32t-83 89t-30 130q0 72 29.5 128.5t82 88.5t119.5 32q51 0 93.5 -22.5t71.5 -63.5v70h68zM350.5 70q37.5 24 58.5 67t21 97t-21 97t-58.5 67t-85.5 24q-47 0 -84 -24t-58 -66.5t-21 -96.5q0 -55 21 -98
t58 -67t84 -24q48 0 85.5 24zM217 560l-134 139l48 48l114 -160zM359 560l-134 139l48 48l114 -160z" />
    <glyph glyph-name="uni0202" unicode="&#x202;" horiz-adv-x="585" 
d="M503 0l-70 191h-283l-63 -191h-75l242 682h70l249 -682h-70zM173 253h237l-122 331zM391 877.5q37 -34.5 38 -103.5h-41q-4 39 -28.5 58t-66.5 19t-66.5 -19t-28.5 -58h-41q1 69 38 103.5t98 34.5t98 -34.5z" />
    <glyph glyph-name="uni0203" unicode="&#x203;" horiz-adv-x="561" 
d="M498 468v-468h-68v69q-29 -40 -71 -62.5t-92 -22.5q-67 0 -120 32t-83 89t-30 130q0 72 29.5 128.5t82 88.5t119.5 32q51 0 93.5 -22.5t71.5 -63.5v70h68zM350.5 70q37.5 24 58.5 67t21 97t-21 97t-58.5 67t-85.5 24q-47 0 -84 -24t-58 -66.5t-21 -96.5q0 -55 21 -98
t58 -67t84 -24q48 0 85.5 24zM379 663.5q37 -34.5 38 -103.5h-41q-4 39 -28.5 58t-66.5 19t-66.5 -19t-28.5 -58h-41q1 69 38 103.5t98 34.5t98 -34.5z" />
    <glyph glyph-name="uni0204" unicode="&#x204;" horiz-adv-x="503" 
d="M79 0v682h382v-63h-307v-238h240v-61h-240v-258h310v-62h-385zM415 760l-212 131l48 48l192 -152zM243 760l-222 111l48 48l202 -132z" />
    <glyph glyph-name="uni0205" unicode="&#x205;" horiz-adv-x="525" 
d="M379 453q51 -31 80 -84.5t29 -119.5q0 -19 -1 -29h-385q4 -72 47 -123t117 -51q60 0 99.5 22.5t63.5 62.5l54 -36q-33 -52 -87 -81.5t-128 -29.5q-68 0 -121 32t-83 89t-30 129t29.5 129t82 89t119.5 32q63 0 114 -31zM420 276q-10 73 -49 109.5t-106 36.5
q-65 0 -106.5 -41.5t-52.5 -104.5h314zM199 560l-134 139l48 48l114 -160zM341 560l-134 139l48 48l114 -160z" />
    <glyph glyph-name="uni0206" unicode="&#x206;" horiz-adv-x="503" 
d="M79 0v682h382v-63h-307v-238h240v-61h-240v-258h310v-62h-385zM380 877.5q37 -34.5 38 -103.5h-41q-4 39 -28.5 58t-66.5 19t-66.5 -19t-28.5 -58h-41q1 69 38 103.5t98 34.5t98 -34.5z" />
    <glyph glyph-name="uni0207" unicode="&#x207;" horiz-adv-x="525" 
d="M379 453q51 -31 80 -84.5t29 -119.5q0 -19 -1 -29h-385q4 -72 47 -123t117 -51q60 0 99.5 22.5t63.5 62.5l54 -36q-33 -52 -87 -81.5t-128 -29.5q-68 0 -121 32t-83 89t-30 129t29.5 129t82 89t119.5 32q63 0 114 -31zM420 276q-10 73 -49 109.5t-106 36.5
q-65 0 -106.5 -41.5t-52.5 -104.5h314zM361 663.5q37 -34.5 38 -103.5h-41q-4 39 -28.5 58t-66.5 19t-66.5 -19t-28.5 -58h-41q1 69 38 103.5t98 34.5t98 -34.5z" />
    <glyph glyph-name="uni0208" unicode="&#x208;" horiz-adv-x="317" 
d="M55 0v66h66v550h-66v66h207v-66h-66v-550h66v-66h-207zM292 760l-212 131l48 48l192 -152zM120 760l-222 111l48 48l202 -132z" />
    <glyph glyph-name="uni0209" unicode="&#x209;" horiz-adv-x="268" 
d="M100 0v468h68v-468h-68zM70 560l-134 139l48 48l114 -160zM212 560l-134 139l48 48l114 -160z" />
    <glyph glyph-name="uni020A" unicode="&#x20a;" horiz-adv-x="317" 
d="M55 0v66h66v550h-66v66h207v-66h-66v-550h66v-66h-207zM257 877.5q37 -34.5 38 -103.5h-41q-4 39 -28.5 58t-66.5 19t-66.5 -19t-28.5 -58h-41q1 69 38 103.5t98 34.5t98 -34.5z" />
    <glyph glyph-name="uni020B" unicode="&#x20b;" horiz-adv-x="268" 
d="M100 0v468h68v-468h-68zM218 661.5q31 -36.5 32 -101.5h-41q-4 37 -24 59.5t-51 22.5t-51 -22.5t-24 -59.5h-41q1 65 32 101.5t84 36.5t84 -36.5z" />
    <glyph glyph-name="uni020C" unicode="&#x20c;" horiz-adv-x="696" 
d="M196.5 29.5q-66.5 45.5 -104 126.5t-37.5 184t37.5 184.5t104 127t151.5 45.5t151.5 -45.5t104 -127t37.5 -185.5q0 -103 -37.5 -183.5t-104 -126t-151.5 -45.5t-151.5 45.5zM459.5 89.5q49.5 36.5 77.5 102t28 148.5t-28 149t-77.5 103t-111.5 37t-111.5 -37t-77.5 -103
t-28 -149t28 -148.5t77.5 -102t111.5 -36.5t111.5 36.5zM481 760l-212 131l48 48l192 -152zM309 760l-222 111l48 48l202 -132z" />
    <glyph glyph-name="uni020D" unicode="&#x20d;" horiz-adv-x="531" 
d="M147 16q-53 32 -83 89.5t-30 129.5t29.5 128.5t82 88.5t119.5 32t120 -32t83 -89t30 -129t-29.5 -129t-82 -89t-119.5 -32t-120 32zM350.5 70q37.5 24 58.5 67t21 97t-21 97t-58.5 67t-85.5 24q-47 0 -84 -24t-58 -66.5t-21 -96.5q0 -55 21 -98t58 -67t84 -24
q48 0 85.5 24zM202 560l-134 139l48 48l114 -160zM344 560l-134 139l48 48l114 -160z" />
    <glyph glyph-name="uni020E" unicode="&#x20e;" horiz-adv-x="696" 
d="M196.5 29.5q-66.5 45.5 -104 126.5t-37.5 184t37.5 184.5t104 127t151.5 45.5t151.5 -45.5t104 -127t37.5 -185.5q0 -103 -37.5 -183.5t-104 -126t-151.5 -45.5t-151.5 45.5zM459.5 89.5q49.5 36.5 77.5 102t28 148.5t-28 149t-77.5 103t-111.5 37t-111.5 -37t-77.5 -103
t-28 -149t28 -148.5t77.5 -102t111.5 -36.5t111.5 36.5zM446 877.5q37 -34.5 38 -103.5h-41q-4 39 -28.5 58t-66.5 19t-66.5 -19t-28.5 -58h-41q1 69 38 103.5t98 34.5t98 -34.5z" />
    <glyph glyph-name="uni020F" unicode="&#x20f;" horiz-adv-x="531" 
d="M147 16q-53 32 -83 89.5t-30 129.5t29.5 128.5t82 88.5t119.5 32t120 -32t83 -89t30 -129t-29.5 -129t-82 -89t-119.5 -32t-120 32zM350.5 70q37.5 24 58.5 67t21 97t-21 97t-58.5 67t-85.5 24q-47 0 -84 -24t-58 -66.5t-21 -96.5q0 -55 21 -98t58 -67t84 -24
q48 0 85.5 24zM364 663.5q37 -34.5 38 -103.5h-41q-4 39 -28.5 58t-66.5 19t-66.5 -19t-28.5 -58h-41q1 69 38 103.5t98 34.5t98 -34.5z" />
    <glyph glyph-name="uni0210" unicode="&#x210;" horiz-adv-x="580" 
d="M462 0l-173 301h-135v-301h-75v682h228q62 0 109 -24t72 -67.5t25 -99.5q0 -68 -41 -116.5t-109 -65.5l178 -309h-79zM154 363h143q66 0 101.5 35t35.5 93t-35.5 93.5t-101.5 35.5h-143v-257zM423 760l-212 131l48 48l192 -152zM251 760l-222 111l48 48l202 -132z" />
    <glyph glyph-name="uni0211" unicode="&#x211;" horiz-adv-x="339" 
d="M339 477v-62q-21 10 -46 10q-43 0 -80 -24t-59.5 -69.5t-22.5 -107.5v-224h-68v468h68v-94q27 52 68.5 81t93.5 29q24 0 46 -7zM186 560l-134 139l48 48l114 -160zM328 560l-134 139l48 48l114 -160z" />
    <glyph glyph-name="uni0212" unicode="&#x212;" horiz-adv-x="580" 
d="M462 0l-173 301h-135v-301h-75v682h228q62 0 109 -24t72 -67.5t25 -99.5q0 -68 -41 -116.5t-109 -65.5l178 -309h-79zM154 363h143q66 0 101.5 35t35.5 93t-35.5 93.5t-101.5 35.5h-143v-257zM388 877.5q37 -34.5 38 -103.5h-41q-4 39 -28.5 58t-66.5 19t-66.5 -19
t-28.5 -58h-41q1 69 38 103.5t98 34.5t98 -34.5z" />
    <glyph glyph-name="uni0213" unicode="&#x213;" horiz-adv-x="339" 
d="M339 477v-62q-21 10 -46 10q-43 0 -80 -24t-59.5 -69.5t-22.5 -107.5v-224h-68v468h68v-94q27 52 68.5 81t93.5 29q24 0 46 -7zM348 663.5q37 -34.5 38 -103.5h-41q-4 39 -28.5 58t-66.5 19t-66.5 -19t-28.5 -58h-41q1 69 38 103.5t98 34.5t98 -34.5z" />
    <glyph glyph-name="uni0214" unicode="&#x214;" horiz-adv-x="660" 
d="M143 52.5q-63 68.5 -63 200.5v429h75v-429q0 -201 177 -201q80 0 126.5 52t46.5 149v429h75v-429q0 -130 -65.5 -199.5t-182.5 -69.5q-126 0 -189 68.5zM463 760l-212 131l48 48l192 -152zM291 760l-222 111l48 48l202 -132z" />
    <glyph glyph-name="uni0215" unicode="&#x215;" horiz-adv-x="537" 
d="M474 468v-468h-68v78q-24 -45 -63.5 -69.5t-91.5 -24.5q-49 0 -90.5 20t-66 59t-24.5 92v313h68v-283q0 -139 124 -139q72 0 108 51t36 137v234h68zM205 560l-134 139l48 48l114 -160zM347 560l-134 139l48 48l114 -160z" />
    <glyph glyph-name="uni0216" unicode="&#x216;" horiz-adv-x="660" 
d="M143 52.5q-63 68.5 -63 200.5v429h75v-429q0 -201 177 -201q80 0 126.5 52t46.5 149v429h75v-429q0 -130 -65.5 -199.5t-182.5 -69.5q-126 0 -189 68.5zM428 877.5q37 -34.5 38 -103.5h-41q-4 39 -28.5 58t-66.5 19t-66.5 -19t-28.5 -58h-41q1 69 38 103.5t98 34.5
t98 -34.5z" />
    <glyph glyph-name="uni0217" unicode="&#x217;" horiz-adv-x="537" 
d="M474 468v-468h-68v78q-24 -45 -63.5 -69.5t-91.5 -24.5q-49 0 -90.5 20t-66 59t-24.5 92v313h68v-283q0 -139 124 -139q72 0 108 51t36 137v234h68zM367 663.5q37 -34.5 38 -103.5h-41q-4 39 -28.5 58t-66.5 19t-66.5 -19t-28.5 -58h-41q1 69 38 103.5t98 34.5t98 -34.5z
" />
    <glyph glyph-name="Scommaaccent" unicode="&#x218;" horiz-adv-x="583" 
d="M161 21.5q-71 37.5 -118 101.5l61 54q36 -57 92 -90.5t121 -33.5q71 0 108 31.5t37 85.5q0 59 -39.5 90.5t-125.5 55.5q-216 53 -216 196q0 89 58 137t161 48q75 0 134.5 -28t106.5 -86l-59 -50q-36 49 -79 72.5t-103 23.5q-63 0 -103 -29.5t-40 -80.5q0 -52 37 -82.5
t125 -51.5q104 -28 161.5 -77t57.5 -138q0 -55 -28 -97t-80.5 -65.5t-122.5 -23.5q-75 0 -146 37.5zM237 -248q56 37 56 100q-24 0 -40.5 15.5t-16.5 39.5q0 25 15 39.5t39 14.5q25 0 41 -18.5t16 -46.5q0 -49 -28 -94.5t-72 -68.5z" />
    <glyph glyph-name="scommaaccent" unicode="&#x219;" horiz-adv-x="464" 
d="M108.5 13q-51.5 29 -78.5 82l61 30q37 -79 145 -79q52 0 86 19t34 59q0 41 -27.5 61t-96.5 26q-96 8 -137.5 43t-41.5 93q0 65 47 101t129 36q139 0 189 -110l-61 -30q-17 40 -49.5 59t-83.5 19q-52 0 -79.5 -19t-27.5 -54q0 -33 29.5 -53.5t101.5 -26.5
q89 -8 132.5 -43.5t43.5 -93.5q0 -47 -27 -80.5t-72 -50.5t-97 -17q-68 0 -119.5 29zM177 -248q56 37 56 100q-24 0 -40.5 15.5t-16.5 39.5q0 25 15 39.5t39 14.5q25 0 41 -18.5t16 -46.5q0 -49 -28 -94.5t-72 -68.5z" />
    <glyph glyph-name="uni021A" unicode="&#x21a;" horiz-adv-x="534" 
d="M230 0v620h-215v62h504v-62h-215v-620h-74zM212 -248q56 37 56 100q-24 0 -40.5 15.5t-16.5 39.5q0 25 15 39.5t39 14.5q25 0 41 -18.5t16 -46.5q0 -49 -28 -94.5t-72 -68.5z" />
    <glyph glyph-name="uni021B" unicode="&#x21b;" horiz-adv-x="275" 
d="M88 0v406h-80v62h80v155h68v-155h108v-62h-108v-406h-68zM70 -248q56 37 56 100q-24 0 -40.5 15.5t-16.5 39.5q0 25 15 39.5t39 14.5q25 0 41 -18.5t16 -46.5q0 -49 -28 -94.5t-72 -68.5z" />
    <glyph glyph-name="uni021C" unicode="&#x21c;" horiz-adv-x="465" 
d="M430 258q0 -78 -59 -146t-148.5 -109t-174.5 -41v75q67 0 139 27.5t120.5 78.5t48.5 118q0 93 -89 126q-64 -48 -147 -80v60q102 53 149.5 100.5t47.5 103.5q0 29 -22 45.5t-64 16.5q-46 0 -89 -22t-66 -61l-44 37q85 109 206 109q69 0 107 -33.5t38 -87.5
q0 -78 -74 -152q121 -45 121 -165z" />
    <glyph glyph-name="uni021D" unicode="&#x21d;" horiz-adv-x="428" 
d="M393 68q0 -70 -56 -131.5t-141 -98t-165 -36.5v75q63 0 130 24t112.5 68t45.5 102q0 76 -65 104q-60 -43 -131 -68v60q92 45 134.5 85.5t42.5 88.5q0 38 -22 60t-64 22q-43 0 -83 -22t-62 -61l-44 37q80 109 196 109q69 0 107 -39.5t38 -101.5q0 -71 -68 -134
q95 -42 95 -143z" />
    <glyph glyph-name="uni021E" unicode="&#x21e;" horiz-adv-x="670" 
d="M80 0v682h75v-295h360v295h75v-682h-75v325h-360v-325h-75zM198 872l136 -67l137 67l19 -34l-156 -104l-155 104z" />
    <glyph glyph-name="uni021F" unicode="&#x21f;" horiz-adv-x="534" 
d="M376.5 464q41.5 -20 66 -59t24.5 -92v-313h-68v283q0 139 -124 139q-72 0 -108 -51t-36 -137v-234h-68v726h68v-336q24 45 63.5 69.5t91.5 24.5q49 0 90.5 -20zM100 804l-135 124l19 34l116 -77l117 77l19 -34z" />
    <glyph glyph-name="uni0220" unicode="&#x220;" horiz-adv-x="643" 
d="M489 398q0 107 -41.5 169t-123.5 62q-109 0 -165 -95v-534h-80v682h80v-55q71 70 165 70q123 0 183.5 -81t60.5 -218v-598h-79v598z" />
    <glyph glyph-name="uni0222" unicode="&#x222;" horiz-adv-x="562" 
d="M100.5 33q-65.5 49 -65.5 137q0 60 44 108.5t122 74.5q-72 30 -113 77t-41 102q0 78 63 121.5t174 43.5v-68q-74 0 -115.5 -28.5t-41.5 -78.5q0 -49 40.5 -88t113.5 -61q73 23 114 59t41 80q0 20 -10 44t-28 46l70 32q22 -31 34.5 -63t12.5 -59q0 -49 -41 -91t-113 -68
q78 -26 122 -74.5t44 -108.5q0 -88 -65.5 -137t-180.5 -49t-180.5 49zM403 86.5q44 33.5 44 93.5q0 46 -43.5 84t-122.5 62q-78 -17 -122 -55.5t-44 -90.5q0 -60 44 -93.5t122 -33.5t122 33.5z" />
    <glyph glyph-name="uni0223" unicode="&#x223;" horiz-adv-x="520" 
d="M120.5 33q-57.5 49 -57.5 137q0 62 36.5 110t101.5 73q-52 23 -80.5 65t-28.5 94q0 35 12 66.5t34 53.5l58 -32q-19 -15 -29 -38t-10 -50q0 -44 33 -81.5t91 -59.5q59 22 92 59.5t33 81.5q0 20 -10 44t-28 46l57 32q22 -29 34 -61.5t12 -60.5q0 -51 -29 -93t-81 -66
q65 -25 102 -73.5t37 -109.5q0 -88 -58 -137t-161 -49t-160.5 49zM394.5 81.5q40.5 35.5 40.5 98.5q0 47 -40.5 87t-113.5 64q-73 -18 -113.5 -58t-40.5 -93q0 -63 40.5 -98.5t113.5 -35.5t113.5 35.5z" />
    <glyph glyph-name="uni0226" unicode="&#x226;" horiz-adv-x="585" 
d="M503 0l-70 191h-283l-63 -191h-75l242 682h70l249 -682h-70zM173 253h237l-122 331zM254.5 765q-15.5 16 -15.5 39q0 22 15.5 37.5t38.5 15.5q22 0 38 -15.5t16 -38.5q0 -22 -16 -38t-38 -16q-23 0 -38.5 16z" />
    <glyph glyph-name="uni0227" unicode="&#x227;" horiz-adv-x="561" 
d="M498 468v-468h-68v69q-29 -40 -71 -62.5t-92 -22.5q-67 0 -120 32t-83 89t-30 130q0 72 29.5 128.5t82 88.5t119.5 32q51 0 93.5 -22.5t71.5 -63.5v70h68zM350.5 70q37.5 24 58.5 67t21 97t-21 97t-58.5 67t-85.5 24q-47 0 -84 -24t-58 -66.5t-21 -96.5q0 -55 21 -98
t58 -67t84 -24q48 0 85.5 24zM242.5 575q-15.5 16 -15.5 39q0 22 15.5 37.5t38.5 15.5q22 0 38 -15.5t16 -38.5q0 -22 -16 -38t-38 -16q-23 0 -38.5 16z" />
    <glyph glyph-name="uni0228" unicode="&#x228;" horiz-adv-x="503" 
d="M79 0v682h382v-63h-307v-238h240v-61h-240v-258h310v-62h-385zM169 -173q50 0 95 12q45 10 45 30q0 11 -8 16.5t-31 8.5t-69 3l48 103h51l-33 -68q51 0 79 -17t28 -40q0 -75 -205 -75v27z" />
    <glyph glyph-name="uni0229" unicode="&#x229;" horiz-adv-x="525" 
d="M379 453q51 -31 80 -84.5t29 -119.5q0 -19 -1 -29h-385q4 -72 47 -123t117 -51q60 0 99.5 22.5t63.5 62.5l54 -36q-30 -46 -77 -75t-110 -35l-26 -53q51 0 79 -17t28 -40q0 -75 -205 -75v27q50 0 95 12q45 10 45 30q0 11 -8 16.5t-31 8.5t-69 3l41 88q-62 5 -110 38.5
t-74.5 88t-26.5 122.5q0 72 29.5 129t82 89t119.5 32q63 0 114 -31zM420 276q-10 73 -49 109.5t-106 36.5q-65 0 -106.5 -41.5t-52.5 -104.5h314z" />
    <glyph glyph-name="uni022A" unicode="&#x22a;" horiz-adv-x="696" 
d="M196.5 29.5q-66.5 45.5 -104 126.5t-37.5 184t37.5 184.5t104 127t151.5 45.5t151.5 -45.5t104 -127t37.5 -185.5q0 -103 -37.5 -183.5t-104 -126t-151.5 -45.5t-151.5 45.5zM459.5 89.5q49.5 36.5 77.5 102t28 148.5t-28 149t-77.5 103t-111.5 37t-111.5 -37t-77.5 -103
t-28 -149t28 -148.5t77.5 -102t111.5 -36.5t111.5 36.5zM211.5 775q-15.5 16 -15.5 39q0 22 15.5 37.5t38.5 15.5q22 0 38.5 -15.5t16.5 -38.5q0 -22 -16.5 -38t-38.5 -16q-23 0 -38.5 16zM407 775q-16 16 -16 39q0 22 16 37.5t39 15.5q22 0 38 -15.5t16 -38.5
q0 -22 -16 -38t-38 -16q-23 0 -39 16zM214 931v45h267v-45h-267z" />
    <glyph glyph-name="uni022B" unicode="&#x22b;" horiz-adv-x="531" 
d="M147 16q-53 32 -83 89.5t-30 129.5t29.5 128.5t82 88.5t119.5 32t120 -32t83 -89t30 -129t-29.5 -129t-82 -89t-119.5 -32t-120 32zM350.5 70q37.5 24 58.5 67t21 97t-21 97t-58.5 67t-85.5 24q-47 0 -84 -24t-58 -66.5t-21 -96.5q0 -55 21 -98t58 -67t84 -24
q48 0 85.5 24zM129.5 575q-15.5 16 -15.5 39q0 22 15.5 37.5t38.5 15.5q22 0 38.5 -15.5t16.5 -38.5q0 -22 -16.5 -38t-38.5 -16q-23 0 -38.5 16zM325 575q-16 16 -16 39q0 22 16 37.5t39 15.5q22 0 38 -15.5t16 -38.5q0 -22 -16 -38t-38 -16q-23 0 -39 16zM132 725v45h267
v-45h-267z" />
    <glyph glyph-name="uni022C" unicode="&#x22c;" horiz-adv-x="696" 
d="M196.5 29.5q-66.5 45.5 -104 126.5t-37.5 184t37.5 184.5t104 127t151.5 45.5t151.5 -45.5t104 -127t37.5 -185.5q0 -103 -37.5 -183.5t-104 -126t-151.5 -45.5t-151.5 45.5zM459.5 89.5q49.5 36.5 77.5 102t28 148.5t-28 149t-77.5 103t-111.5 37t-111.5 -37t-77.5 -103
t-28 -149t28 -148.5t77.5 -102t111.5 -36.5t111.5 36.5zM384.5 747q-16.5 6 -35.5 17q-3 2 -16.5 8t-26.5 9.5t-27 3.5q-26 0 -39.5 -8t-18.5 -26h-45q5 39 29.5 67t68.5 28q21 0 38.5 -6t42.5 -19q20 -10 36 -15.5t32 -5.5q21 0 34.5 10.5t15.5 25.5h46q-5 -41 -27.5 -68
t-68.5 -27q-22 0 -38.5 6zM214 930v45h267v-45h-267z" />
    <glyph glyph-name="uni022D" unicode="&#x22d;" horiz-adv-x="531" 
d="M147 16q-53 32 -83 89.5t-30 129.5t29.5 128.5t82 88.5t119.5 32t120 -32t83 -89t30 -129t-29.5 -129t-82 -89t-119.5 -32t-120 32zM350.5 70q37.5 24 58.5 67t21 97t-21 97t-58.5 67t-85.5 24q-47 0 -84 -24t-58 -66.5t-21 -96.5q0 -55 21 -98t58 -67t84 -24
q48 0 85.5 24zM128.5 643.5q29.5 40.5 73.5 40.5q21 0 37 -8.5t39 -26.5q20 -16 33.5 -23.5t29.5 -7.5q21 0 34.5 19t15.5 47h46q-5 -52 -32.5 -91t-73.5 -39q-22 0 -36 8t-33 25q-18 16 -31.5 23.5t-33.5 7.5q-26 0 -39.5 -15.5t-18.5 -48.5h-45q5 49 34.5 89.5zM122 762
v45h267v-45h-267z" />
    <glyph glyph-name="uni022E" unicode="&#x22e;" horiz-adv-x="696" 
d="M196.5 29.5q-66.5 45.5 -104 126.5t-37.5 184t37.5 184.5t104 127t151.5 45.5t151.5 -45.5t104 -127t37.5 -185.5q0 -103 -37.5 -183.5t-104 -126t-151.5 -45.5t-151.5 45.5zM459.5 89.5q49.5 36.5 77.5 102t28 148.5t-28 149t-77.5 103t-111.5 37t-111.5 -37t-77.5 -103
t-28 -149t28 -148.5t77.5 -102t111.5 -36.5t111.5 36.5zM309.5 765q-15.5 16 -15.5 39q0 22 15.5 37.5t38.5 15.5q22 0 38 -15.5t16 -38.5q0 -22 -16 -38t-38 -16q-23 0 -38.5 16z" />
    <glyph glyph-name="uni022F" unicode="&#x22f;" horiz-adv-x="531" 
d="M147 16q-53 32 -83 89.5t-30 129.5t29.5 128.5t82 88.5t119.5 32t120 -32t83 -89t30 -129t-29.5 -129t-82 -89t-119.5 -32t-120 32zM350.5 70q37.5 24 58.5 67t21 97t-21 97t-58.5 67t-85.5 24q-47 0 -84 -24t-58 -66.5t-21 -96.5q0 -55 21 -98t58 -67t84 -24
q48 0 85.5 24zM227.5 575q-15.5 16 -15.5 39q0 22 15.5 37.5t38.5 15.5q22 0 38 -15.5t16 -38.5q0 -22 -16 -38t-38 -16q-23 0 -38.5 16z" />
    <glyph glyph-name="uni0230" unicode="&#x230;" horiz-adv-x="696" 
d="M196.5 29.5q-66.5 45.5 -104 126.5t-37.5 184t37.5 184.5t104 127t151.5 45.5t151.5 -45.5t104 -127t37.5 -185.5q0 -103 -37.5 -183.5t-104 -126t-151.5 -45.5t-151.5 45.5zM459.5 89.5q49.5 36.5 77.5 102t28 148.5t-28 149t-77.5 103t-111.5 37t-111.5 -37t-77.5 -103
t-28 -149t28 -148.5t77.5 -102t111.5 -36.5t111.5 36.5zM309.5 765q-15.5 16 -15.5 39q0 22 15.5 37.5t38.5 15.5q22 0 38 -15.5t16 -38.5q0 -22 -16 -38t-38 -16q-23 0 -38.5 16zM214 941v45h267v-45h-267z" />
    <glyph glyph-name="uni0231" unicode="&#x231;" horiz-adv-x="531" 
d="M147 16q-53 32 -83 89.5t-30 129.5t29.5 128.5t82 88.5t119.5 32t120 -32t83 -89t30 -129t-29.5 -129t-82 -89t-119.5 -32t-120 32zM350.5 70q37.5 24 58.5 67t21 97t-21 97t-58.5 67t-85.5 24q-47 0 -84 -24t-58 -66.5t-21 -96.5q0 -55 21 -98t58 -67t84 -24
q48 0 85.5 24zM227.5 575q-15.5 16 -15.5 39q0 22 15.5 37.5t38.5 15.5q22 0 38 -15.5t16 -38.5q0 -22 -16 -38t-38 -16q-23 0 -38.5 16zM132 715v45h267v-45h-267z" />
    <glyph glyph-name="uni0232" unicode="&#x232;" horiz-adv-x="484" 
d="M430 682h69l-221 -403v-279h-74v282l-219 400h75l186 -340zM108 766v45h267v-45h-267z" />
    <glyph glyph-name="uni0233" unicode="&#x233;" horiz-adv-x="449" 
d="M385 468h64l-253 -668h-68l74 191l-192 477h71l155 -388zM91 586v45h267v-45h-267z" />
    <glyph glyph-name="uni0237" unicode="&#x237;" horiz-adv-x="193" 
d="M-45 -138h28q35 0 57.5 24t22.5 62v520h68v-520q0 -65 -41.5 -106.5t-106.5 -41.5h-28v62z" />
    <glyph glyph-name="uni023B" unicode="&#x23b;" horiz-adv-x="605" 
d="M570 144q-36 -78 -95.5 -119t-141.5 -41q-85 0 -146 41l-33 -70l-46 22l38 82q-44 45 -67.5 116t-23.5 164q0 112 32.5 192.5t93 123t143.5 42.5q61 0 110 -20l25 53l46 -21l-26 -56q54 -36 85 -99l-60 -35q-23 43 -55 70l-232 -498q45 -39 106 -39q71 0 110.5 31.5
t73.5 98.5zM181 135l224 480q-34 14 -81 14q-89 0 -139.5 -76.5t-50.5 -212.5q0 -128 47 -205z" />
    <glyph glyph-name="uni023C" unicode="&#x23c;" horiz-adv-x="477" 
d="M452 74q-33 -41 -81.5 -65.5t-104.5 -24.5q-52 0 -96 19l-30 -63l-46 21l32 68q-45 33 -69.5 86.5t-24.5 118.5q0 72 29.5 129t82.5 89t120 32q36 0 69 -11l33 71l46 -22l-34 -72q33 -22 63 -60l-50 -39q-16 24 -39 42l-156 -332q31 -15 68 -15q48 0 79 16.5t56 48.5z
M114 153q14 -37 40 -63l152 326q-19 6 -42 6q-47 0 -84.5 -24t-58.5 -67t-21 -97q0 -44 14 -81z" />
    <glyph glyph-name="uni0241" unicode="&#x241;" horiz-adv-x="460" 
d="M176 166q0 46 9.5 75t32 55.5t72.5 71.5q64 57 64 136q0 58 -37 94.5t-98 36.5q-45 0 -79 -25.5t-48 -70.5l-63 20q23 62 75.5 100t114.5 38q56 0 102.5 -25.5t73.5 -69.5t27 -98q0 -43 -9 -72t-27 -51t-53 -55q-39 -37 -57 -58t-25 -43.5t-7 -58.5v-166h-68v166z" />
    <glyph glyph-name="uni0242" unicode="&#x242;" horiz-adv-x="443" 
d="M356.5 446.5q46.5 -40.5 46.5 -112.5q0 -46 -24 -87.5t-68 -71.5q-45 -30 -59.5 -61.5t-14.5 -77.5v-36h-68v36q0 54 22.5 97t80.5 86q34 25 48.5 49t14.5 59q0 47 -28.5 72.5t-80.5 25.5q-49 0 -84.5 -25.5t-48.5 -70.5l-63 20q25 65 77.5 101.5t120.5 36.5
q82 0 128.5 -40.5z" />
    <glyph glyph-name="uni0243" unicode="&#x243;" horiz-adv-x="574" 
d="M79 184h-36v48h36v450h202q88 0 148 -48q61 -48 61 -123q0 -84 -75 -134q57 -24 89 -69t32 -108q0 -95 -71 -148q-70 -52 -166 -52h-220v184zM281 401q59 0 93 32t34 78q0 45 -34.5 76.5t-92.5 31.5h-127v-218h127zM297 62q69 0 113 37t44 101q0 65 -43.5 101.5
t-113.5 36.5h-143v-106h161v-48h-161v-122h143z" />
    <glyph glyph-name="uni0244" unicode="&#x244;" horiz-adv-x="672" 
d="M632 420h-49v-167q0 -130 -65.5 -199.5t-182.5 -69.5q-126 0 -189 68.5t-63 200.5v167h-43v48h43v214h75v-214h350v214h75v-214h49v-48zM508 420h-350v-167q0 -201 177 -201q80 0 126.5 52t46.5 149v167z" />
    <glyph glyph-name="uni0245" unicode="&#x245;" horiz-adv-x="565" 
d="M553 0h-70l-205 582l-191 -582h-75l232 682h70z" />
    <glyph glyph-name="uni0248" unicode="&#x248;" horiz-adv-x="496" 
d="M500 328h-84v-123q0 -104 -54 -162.5t-147 -58.5q-70 0 -122.5 37.5t-80.5 105.5l63 30q15 -48 52.5 -75.5t83.5 -27.5q64 0 97 39.5t33 111.5v123h-95v42h95v312h75v-312h84v-42z" />
    <glyph glyph-name="uni0249" unicode="&#x249;" horiz-adv-x="244" 
d="M86.5 575q-15.5 16 -15.5 39q0 22 15.5 37.5t38.5 15.5q22 0 38 -15.5t16 -38.5q0 -22 -16 -38t-38 -16q-23 0 -38.5 16zM225 236h-66v-288q0 -65 -41.5 -106.5t-106.5 -41.5h-28v62h28q35 0 57.5 24t22.5 62v288h-66v42h66v190h68v-190h66v-42z" />
    <glyph glyph-name="uni024A" unicode="&#x24a;" horiz-adv-x="706" 
d="M740 -132v-68h-27q-74 0 -117 35t-43 113v76h65q-53 34 -58 108q-31 -72 -85 -110t-127 -38q-85 0 -151.5 45.5t-104 126.5t-37.5 184t37.5 184.5t104 127t151.5 45.5q82 0 143.5 -40t96.5 -120.5t36 -197.5v-191q0 -38 23 -59t63 -21h27v-68h-27q-49 0 -82 18v-70
q0 -41 21 -60.5t64 -19.5h27zM452.5 86q45.5 33 71 97.5t25.5 156.5q0 144 -54.5 216.5t-146.5 72.5q-62 0 -110.5 -37t-76 -103t-27.5 -149t27.5 -148.5t76 -102t110.5 -36.5q59 0 104.5 33z" />
    <glyph glyph-name="uni024B" unicode="&#x24b;" horiz-adv-x="561" 
d="M607 -138v-62h-30q-69 0 -108 39t-39 108v122q-29 -40 -71 -62.5t-92 -22.5q-67 0 -120 32t-83 89t-30 130q0 72 29.5 128.5t82 88.5t119.5 32q51 0 93.5 -22.5t71.5 -63.5v70h68v-526q0 -38 21 -59t58 -21h30zM350.5 70q37.5 24 58.5 67t21 97t-21 97t-58.5 67t-85.5 24
q-47 0 -84 -24t-58 -66.5t-21 -96.5q0 -55 21 -98t58 -67t84 -24q48 0 85.5 24z" />
    <glyph glyph-name="uni024C" unicode="&#x24c;" horiz-adv-x="660" 
d="M542 0l-173 301h-135v-301h-75v301h-109v62h109v319h228q62 0 109 -24t72 -67.5t25 -99.5q0 -68 -41 -116.5t-109 -65.5l178 -309h-79zM377 363q66 0 101.5 35t35.5 93t-35.5 93.5t-101.5 35.5h-143v-257h143z" />
    <glyph glyph-name="uni0251" unicode="&#x251;" horiz-adv-x="597" 
d="M588 68v-68q-52 0 -91 22.5t-56 64.5q-28 -49 -73 -76t-101 -27q-67 0 -120 32t-83 89t-30 130q0 72 29.5 128.5t82 88.5t119.5 32q65 0 117 -30t82.5 -84t33.5 -123v-99q0 -80 90 -80zM350.5 70q37.5 24 58.5 67t21 97t-21 97t-58.5 67t-85.5 24q-47 0 -84 -24
t-58 -66.5t-21 -96.5q0 -55 21 -98t58 -67t84 -24q48 0 85.5 24z" />
    <glyph glyph-name="uni0253" unicode="&#x253;" horiz-adv-x="561" 
d="M416.5 452q52.5 -32 82 -88.5t29.5 -128.5q0 -73 -30 -130t-83 -89t-120 -32q-50 0 -92 22.5t-71 62.5v-69h-68v594q0 69 39 108t108 39h70v-62h-70q-37 0 -58 -21t-21 -59v-201q29 41 71.5 63.5t93.5 22.5q67 0 119.5 -32zM381 70q37 24 58 67t21 98q0 54 -21 96.5
t-58 66.5t-84 24q-48 0 -85.5 -24t-58.5 -67t-21 -97t21 -97t58.5 -67t85.5 -24q47 0 84 24z" />
    <glyph glyph-name="uni0254" unicode="&#x254;" horiz-adv-x="477" 
d="M106.5 8.5q-48.5 24.5 -81.5 65.5l53 37q25 -32 56 -48.5t79 -16.5q47 0 84.5 24t58.5 67t21 97t-21 97t-58.5 67t-84.5 24q-78 0 -127 -71l-50 39q35 45 77.5 69.5t99.5 24.5q67 0 120 -32t82.5 -89t29.5 -129t-30 -129t-83 -89t-121 -32q-56 0 -104.5 24.5z" />
    <glyph glyph-name="uni0256" unicode="&#x256;" horiz-adv-x="561" 
d="M607 -133v-62h-30q-69 0 -108 39t-39 108v117q-29 -40 -71 -62.5t-92 -22.5q-67 0 -120 32t-83 89t-30 130q0 72 29.5 128.5t82 88.5t119.5 32q51 0 93.5 -22.5t71.5 -63.5v328h68v-779q0 -38 21 -59t58 -21h30zM350.5 70q37.5 24 58.5 67t21 97t-21 97t-58.5 67
t-85.5 24q-47 0 -84 -24t-58 -66.5t-21 -96.5q0 -55 21 -98t58 -67t84 -24q48 0 85.5 24z" />
    <glyph glyph-name="uni0257" unicode="&#x257;" horiz-adv-x="567" 
d="M607 741v-62h-30q-37 0 -58 -21t-21 -59v-599h-68v69q-29 -40 -71 -62.5t-92 -22.5q-67 0 -120 32t-83 89t-30 130q0 72 29.5 128.5t82 88.5t119.5 32q51 0 93.5 -22.5t71.5 -63.5v196q0 69 39 108t108 39h30zM350.5 70q37.5 24 58.5 67t21 97t-21 97t-58.5 67t-85.5 24
q-47 0 -84 -24t-58 -66.5t-21 -96.5q0 -55 21 -98t58 -67t84 -24q48 0 85.5 24z" />
    <glyph glyph-name="uni0259" unicode="&#x259;" horiz-adv-x="525" 
d="M378 452q53 -32 83 -89t30 -129t-29.5 -129t-82 -89t-119.5 -32q-63 0 -114 31t-80 84.5t-29 119.5q0 19 1 29h385q-4 72 -47 123t-117 51q-60 0 -99.5 -22.5t-63.5 -62.5l-54 36q33 52 87 81.5t128 29.5q68 0 121 -32zM366.5 87.5q41.5 41.5 52.5 104.5h-314
q10 -73 49 -109.5t106 -36.5q65 0 106.5 41.5z" />
    <glyph glyph-name="uni025B" unicode="&#x25b;" horiz-adv-x="463" 
d="M92 22.5q-50 39.5 -50 98.5q0 84 80 114q-72 33 -72 106q0 63 49 103.5t147 40.5q122 0 187 -71l-45 -45q-52 54 -142 54q-66 0 -97 -23.5t-31 -58.5q0 -32 25 -51t71 -19h115v-64h-115q-57 0 -80.5 -23.5t-23.5 -52.5q0 -40 31.5 -62.5t93.5 -22.5q101 0 168 70l45 -45
q-90 -88 -213 -88q-93 0 -143 39.5z" />
    <glyph glyph-name="uni0260" unicode="&#x260;" horiz-adv-x="587" 
d="M607 468v-62h-30q-37 0 -58 -21t-21 -59v-308q0 -63 -26 -112.5t-73 -77.5t-107 -28h-194v62h194q61 0 99.5 44t38.5 112v51q-29 -40 -71 -62.5t-92 -22.5q-67 0 -120 32t-83 89t-30 130q0 72 29.5 128.5t82 88.5t119.5 32q56 0 101.5 -26.5t73.5 -74.5q15 41 50.5 63
t86.5 22h30zM350.5 70q37.5 24 58.5 67t21 97t-21 97t-58.5 67t-85.5 24q-47 0 -84 -24t-58 -66.5t-21 -96.5q0 -55 21 -98t58 -67t84 -24q48 0 85.5 24z" />
    <glyph glyph-name="uni0263" unicode="&#x263;" horiz-adv-x="397" 
d="M128.5 -173.5q-25.5 26.5 -25.5 72.5q0 32 14.5 74t43.5 105l-160 390h72l129 -336l123 336h72l-160 -390q29 -61 43.5 -103t14.5 -75q0 -47 -25.5 -73.5t-70.5 -26.5t-70.5 26.5zM228.5 -134q10.5 12 10.5 34q0 16 -8 37.5t-32 81.5q-23 -52 -31.5 -76t-8.5 -44
q0 -21 10.5 -33t29.5 -12t29.5 12z" />
    <glyph glyph-name="uni0265" unicode="&#x265;" horiz-adv-x="537" 
d="M474 468v-668h-68v278q-24 -45 -63.5 -69.5t-91.5 -24.5q-49 0 -90.5 20t-66 59t-24.5 92v313h68v-283q0 -139 124 -139q72 0 108 51t36 137v234h68z" />
    <glyph glyph-name="uni0266" unicode="&#x266;" horiz-adv-x="536" 
d="M375.5 464q41.5 -20 66 -59t24.5 -92v-313h-68v283q0 139 -124 139q-66 0 -102 -43t-41 -117v-262h-68v594q0 69 39 108t108 39h30v-62h-30q-37 0 -58 -21t-21 -59v-207q25 44 64 68t90 24q49 0 90.5 -20z" />
    <glyph glyph-name="uni0268" unicode="&#x268;" horiz-adv-x="268" 
d="M95.5 575q-15.5 16 -15.5 39q0 22 15.5 37.5t38.5 15.5q22 0 38 -15.5t16 -38.5q0 -22 -16 -38t-38 -16q-23 0 -38.5 16zM258 278v-42h-90v-236h-68v236h-90v42h90v190h68v-190h90z" />
    <glyph glyph-name="uni0269" unicode="&#x269;" horiz-adv-x="229" 
d="M103.5 39q-44.5 39 -44.5 109v320h68v-320q0 -80 90 -80v-68q-69 0 -113.5 39z" />
    <glyph glyph-name="uni026A" unicode="&#x26a;" horiz-adv-x="227" 
d="M21 0v58h55v352h-55v58h185v-58h-55v-352h55v-58h-185z" />
    <glyph glyph-name="uni026C" unicode="&#x26c;" horiz-adv-x="359" 
d="M298.5 273q-36.5 -50 -91.5 -67v-206h-68v200q-62 5 -95.5 38t-33.5 88q0 34 21.5 59t59.5 25q16 0 28 -5.5t20 -19.5v341h68v-482q41 15 66.5 53t25.5 89h36q0 -63 -36.5 -113zM70.5 265.5q24.5 -24.5 68.5 -29.5v71q0 29 -13 48t-38 19q-18 0 -30 -12.5t-12 -35.5
q0 -36 24.5 -60.5z" />
    <glyph glyph-name="uni0272" unicode="&#x272;" horiz-adv-x="534" 
d="M376.5 464q41.5 -20 66 -59t24.5 -92v-313h-68v283q0 139 -124 139q-72 0 -108 -51t-36 -137v-255q0 -70 -39 -109.5t-109 -39.5h-26v63h26q38 0 59 23t21 63v489h68v-78q24 45 63.5 69.5t91.5 24.5q49 0 90.5 -20z" />
    <glyph glyph-name="uni0275" unicode="&#x275;" horiz-adv-x="531" 
d="M385 452q53 -32 83 -89t30 -129t-29.5 -129t-82 -89t-119.5 -32t-120 32t-83 89.5t-30 129.5t29.5 128.5t82 88.5t119.5 32t120 -32zM154.5 377q-44.5 -45 -51.5 -119h326q-7 73 -52 118.5t-112 45.5q-66 0 -110.5 -45zM377 91.5q45 45.5 52 118.5h-326q8 -74 52 -119
t110 -45q67 0 112 45.5z" />
    <glyph glyph-name="uni0279" unicode="&#x279;" horiz-adv-x="472" 
d="M87.5 41q-48.5 41 -48.5 114q0 51 32 88.5t89 54.5l-119 170h83l111 -158h106v158h68v-468h-186q-87 0 -135.5 41zM341 62v186h-86q-66 0 -103 -24.5t-37 -68.5t29 -68.5t81 -24.5h116z" />
    <glyph glyph-name="uni027D" unicode="&#x27d;" horiz-adv-x="339" 
d="M339 477v-62q-21 10 -46 10q-43 0 -80 -24t-59.5 -69.5t-22.5 -107.5v-282q0 -38 21 -59t58 -21h30v-62h-30q-69 0 -108 39t-39 108v521h68v-94q27 52 68.5 81t93.5 29q24 0 46 -7z" />
    <glyph glyph-name="uni027E" unicode="&#x27e;" horiz-adv-x="429" 
d="M57 234q0 118 52 184t145 66q62 0 108.5 -29t68.5 -81l-57 -34q-19 40 -50 61t-70 21q-61 0 -95 -49.5t-34 -138.5v-234h-68v234z" />
    <glyph glyph-name="uni0283" unicode="&#x283;" horiz-adv-x="193" 
d="M-50 -132h27q40 0 63 21t23 59v646q0 70 39 109t109 39h28v-62h-28q-38 0 -59 -23t-21 -63v-646q0 -70 -40.5 -109t-113.5 -39h-27v68z" />
    <glyph glyph-name="uni0288" unicode="&#x288;" horiz-adv-x="269" 
d="M124 -161q-39 39 -39 108v459h-60v62h60v155h68v-155h108v-62h-108v-459q0 -38 21 -59t58 -21h41v-67h-41q-69 0 -108 39z" />
    <glyph glyph-name="uni0289" unicode="&#x289;" horiz-adv-x="561" 
d="M532 236h-58v-236h-68v78q-24 -45 -63.5 -69.5t-91.5 -24.5q-49 0 -90.5 20t-66 59t-24.5 92v81h-41v42h41v190h68v-190h268v190h68v-190h58v-42zM406 236h-268v-51q0 -139 124 -139q72 0 108 51t36 137v2z" />
    <glyph glyph-name="uni028A" unicode="&#x28a;" horiz-adv-x="556" 
d="M108 44.5q-62 60.5 -62 169.5q0 39 18.5 91.5t50.5 107.5h-75v55h158q0 -25 -11 -55t-31 -57q-20 -29 -31 -66.5t-11 -75.5q0 -79 43.5 -123.5t120.5 -44.5t120.5 44.5t43.5 123.5q0 40 -11 77.5t-31 64.5q-20 29 -31 58.5t-11 53.5h158v-55h-76q33 -58 51.5 -110.5
t18.5 -88.5q0 -109 -60.5 -169.5t-169.5 -60.5q-110 0 -172 60.5z" />
    <glyph glyph-name="uni028B" unicode="&#x28b;" horiz-adv-x="534" 
d="M126.5 44.5q-56.5 60.5 -56.5 169.5v254h68v-254q0 -80 38 -124t106 -44t106 44t38 124q0 55 -33.5 122t-92.5 132h84q55 -62 82.5 -120t27.5 -134q0 -109 -55.5 -169.5t-154.5 -60.5q-101 0 -157.5 60.5z" />
    <glyph glyph-name="uni028C" unicode="&#x28c;" horiz-adv-x="455" 
d="M434 0h-71l-138 395l-136 -395h-69l170 468h75z" />
    <glyph glyph-name="uni0292" unicode="&#x292;" horiz-adv-x="420" 
d="M349.5 147q51.5 -52 51.5 -143q0 -64 -27.5 -114t-75 -77.5t-106.5 -27.5q-45 0 -92 23t-76 58l50 40q20 -26 52.5 -42.5t64.5 -16.5q63 0 102.5 42.5t39.5 114.5q0 69 -34 106.5t-112 37.5q-11 0 -35 -2l-30 40l179 220h-264v62h336v-62l-172 -203q97 -4 148.5 -56z" />
    <glyph glyph-name="uni0294" unicode="&#x294;" horiz-adv-x="461" 
d="M323 671q45 -26 72 -70.5t27 -96.5q0 -64 -23 -99.5t-66 -68.5q-32 -25 -48.5 -40.5t-28.5 -42.5t-12 -67v-186h-59v186q0 54 12.5 88t34 55.5t64.5 52.5q32 23 45 51t13 64q0 64 -35.5 101t-93.5 37q-52 0 -86 -25.5t-47 -70.5l-63 20q23 61 74.5 99.5t123.5 38.5
q51 0 96 -26z" />
    <glyph glyph-name="uni0295" unicode="&#x295;" horiz-adv-x="461" 
d="M357.5 658.5q51.5 -38.5 74.5 -99.5l-63 -20q-13 45 -47 70.5t-86 25.5q-58 0 -93.5 -37t-35.5 -101q0 -36 13 -64t45 -51q43 -31 64.5 -52.5t34 -55.5t12.5 -88v-186h-59v186q0 40 -12 67t-28.5 42.5t-48.5 40.5q-43 33 -66 68.5t-23 99.5q0 52 27 96.5t72 70.5t96 26
q72 0 123.5 -38.5z" />
    <glyph glyph-name="uni02B0" unicode="&#x2b0;" horiz-adv-x="386" 
d="M60 726h57v-203q16 29 40 40.5t55 11.5q47 0 79.5 -30.5t32.5 -91.5v-146h-57v146q0 74 -65 74q-39 0 -62 -24t-23 -62v-134h-57v419z" />
    <glyph glyph-name="uni02B2" unicode="&#x2b2;" horiz-adv-x="220" 
d="M95.5 619q-11.5 12 -11.5 27q0 17 12 28t28 11q18 0 29.5 -11.5t11.5 -27.5q0 -15 -13 -27t-28 -12q-17 0 -28.5 12zM31 272h25q18 0 29 10t11 25v260h57v-260q0 -35 -28.5 -58.5t-68.5 -23.5h-25v47z" />
    <glyph glyph-name="uni02B7" unicode="&#x2b7;" horiz-adv-x="522" 
d="M412 567h60l-97 -260h-57l-64 169l-63 -169h-57l-97 260h60l70 -189l71 189h37l68 -184z" />
    <glyph glyph-name="uni02B8" unicode="&#x2b8;" horiz-adv-x="390" 
d="M283 567h57l-171 -350h-56l57 117l-123 233h62l87 -179z" />
    <glyph glyph-name="uni02BB" unicode="&#x2bb;" horiz-adv-x="245" 
d="M74 575.5q-16 15.5 -16 37.5q-1 49 17 86t42 59q15 13 24 17l8 6l16 -10q-38 -38 -53 -103q23 0 38.5 -16t15.5 -38q0 -23 -15.5 -38.5t-38.5 -15.5q-22 0 -38 15.5z" />
    <glyph glyph-name="uni02BC" unicode="&#x2bc;" horiz-adv-x="61" 
d="M-49 572q56 37 56 100q-24 0 -40.5 15.5t-16.5 39.5q0 25 15 39.5t39 14.5q25 0 41 -18.5t16 -46.5q0 -49 -28 -94.5t-72 -68.5z" />
    <glyph glyph-name="uni02BE" unicode="&#x2be;" horiz-adv-x="274" 
d="M58 482q34 0 57 23t23 57t-23.5 58t-56.5 24v53q55 0 95 -40t40 -96q0 -55 -40 -94q-41 -38 -95 -38v53z" />
    <glyph glyph-name="uni02BF" unicode="&#x2bf;" horiz-adv-x="274" 
d="M98 469q-40 40 -40 95q0 57 40 94q40 39 95 39v-53q-34 0 -57 -23t-23 -57t23.5 -58t56.5 -24v-53q-55 0 -95 40z" />
    <glyph glyph-name="uni02C0" unicode="&#x2c0;" horiz-adv-x="407" 
d="M159 412q0 43 17.5 67t50.5 49q29 22 42.5 39.5t13.5 47.5q0 33 -24 53t-65 20q-65 0 -86 -58l-54 14q12 41 53 66.5t87 25.5q64 0 105 -35q42 -34 42 -86q0 -43 -17 -66t-51 -49q-29 -22 -43 -39.5t-14 -48.5v-105h-57v105z" />
    <glyph glyph-name="circumflex" unicode="&#x2c6;" horiz-adv-x="409" 
d="M78 567l-19 34l135 124l136 -124l-19 -34l-117 77z" />
    <glyph glyph-name="caron" unicode="&#x2c7;" horiz-adv-x="410" 
d="M193 567l-135 124l19 34l116 -77l117 77l19 -34z" />
    <glyph glyph-name="uni02C9" unicode="&#x2c9;" horiz-adv-x="367" 
d="M50 586v45h267v-45h-267z" />
    <glyph glyph-name="uni02CA" unicode="&#x2ca;" horiz-adv-x="389" 
d="M79 567l-20 34l216 141l34 -58z" />
    <glyph glyph-name="uni02CB" unicode="&#x2cb;" horiz-adv-x="389" 
d="M289 567l-230 117l34 58l216 -141z" />
    <glyph glyph-name="breve" unicode="&#x2d8;" horiz-adv-x="372" 
d="M88 594.5q-37 34.5 -38 103.5h41q4 -39 28.5 -58t66.5 -19t66.5 19t28.5 58h41q-1 -69 -38 -103.5t-98 -34.5t-98 34.5z" />
    <glyph glyph-name="dotaccent" unicode="&#x2d9;" horiz-adv-x="247" 
d="M73.5 575q-15.5 16 -15.5 39q0 22 15.5 37.5t37.5 15.5q23 0 39 -15.5t16 -38.5q0 -22 -16 -38t-39 -16q-22 0 -37.5 16z" />
    <glyph glyph-name="ring" unicode="&#x2da;" horiz-adv-x="307" 
d="M87 589q-29 29 -29 70t29 70.5t70 29.5t70.5 -29.5t29.5 -70.5t-29.5 -70t-70.5 -29t-70 29zM192.5 624q14.5 15 14.5 35q0 21 -14.5 35.5t-35.5 14.5q-20 0 -34.5 -14.5t-14.5 -34.5q0 -21 14.5 -36t34.5 -15q21 0 35.5 15z" />
    <glyph glyph-name="ogonek" unicode="&#x2db;" horiz-adv-x="369" 
d="M58 -91q0 97 132 115v-24q-41 -13 -53.5 -29t-12.5 -53q0 -68 103 -68q27 0 54 6l7 -26q-57 -16 -104 -16q-126 0 -126 95z" />
    <glyph glyph-name="tilde" unicode="&#x2dc;" horiz-adv-x="481" 
d="M97 655q33 42 75 42q32 0 66 -32q34 -31 51 -31q25 0 44.5 19.5t22.5 43.5h46q-6 -47 -39 -89q-32 -41 -74 -41q-32 0 -67 32t-50 32q-25 0 -45 -19.5t-23 -44.5h-45q5 47 38 88z" />
    <glyph glyph-name="hungarumlaut" unicode="&#x2dd;" horiz-adv-x="404" 
d="M78 560l-28 27l114 160l48 -48zM220 560l-28 27l114 160l48 -48z" />
    <glyph glyph-name="gravecomb" unicode="&#x300;" 
d="M-100 537l-200 87l34 58l186 -111z" />
    <glyph glyph-name="acutecomb" unicode="&#x301;" 
d="M-220 537l-20 34l186 111l34 -58z" />
    <glyph glyph-name="uni0302" unicode="&#x302;" 
d="M-302 567l-19 34l135 124l136 -124l-19 -34l-117 77z" />
    <glyph glyph-name="tildecomb" unicode="&#x303;" 
d="M-358.5 643.5q29.5 40.5 73.5 40.5q21 0 37 -8.5t39 -26.5q20 -16 33.5 -23.5t29.5 -7.5q21 0 34.5 19t15.5 47h46q-5 -52 -32.5 -91t-73.5 -39q-22 0 -36 8t-33 25q-18 16 -31.5 23.5t-33.5 7.5q-26 0 -39.5 -15.5t-18.5 -48.5h-45q5 49 34.5 89.5z" />
    <glyph glyph-name="uni0304" unicode="&#x304;" 
d="M-317 586v45h267v-45h-267z" />
    <glyph glyph-name="uni0306" unicode="&#x306;" 
d="M-283 594.5q-37 34.5 -38 103.5h41q4 -39 28.5 -58t66.5 -19t66.5 19t28.5 58h41q-1 -69 -38 -103.5t-98 -34.5t-98 34.5z" />
    <glyph glyph-name="uni0307" unicode="&#x307;" 
d="M-142.5 575q-15.5 16 -15.5 39q0 22 15.5 37.5t38.5 15.5q22 0 38 -15.5t16 -38.5q0 -22 -16 -38t-38 -16q-23 0 -38.5 16z" />
    <glyph glyph-name="uni0308" unicode="&#x308;" 
d="M-338.5 575q-15.5 16 -15.5 39q0 22 15.5 37.5t38.5 15.5q22 0 38.5 -15.5t16.5 -38.5q0 -22 -16.5 -38t-38.5 -16q-23 0 -38.5 16zM-143 575q-16 16 -16 39q0 22 16 37.5t39 15.5q22 0 38 -15.5t16 -38.5q0 -22 -16 -38t-38 -16q-23 0 -39 16z" />
    <glyph glyph-name="uni030A" unicode="&#x30a;" 
d="M-220 589q-29 29 -29 70t29 70.5t70 29.5t70.5 -29.5t29.5 -70.5t-29.5 -70t-70.5 -29t-70 29zM-114.5 624q14.5 15 14.5 35q0 21 -14.5 35.5t-34.5 14.5q-21 0 -35.5 -14.5t-14.5 -34.5q0 -21 14.5 -36t35.5 -15q20 0 34.5 15z" />
    <glyph glyph-name="uni030B" unicode="&#x30b;" 
d="M-414 560l-28 27l114 160l48 -48zM-272 560l-28 27l114 160l48 -48z" />
    <glyph glyph-name="uni030C" unicode="&#x30c;" 
d="M-186 547l-135 124l19 34l116 -77l117 77l19 -34z" />
    <glyph glyph-name="uni030D" unicode="&#x30d;" 
d="M-90 567v197h40v-197h-40z" />
    <glyph glyph-name="uni030F" unicode="&#x30f;" 
d="M-270 560l-134 139l48 48l114 -160zM-128 560l-134 139l48 48l114 -160z" />
    <glyph glyph-name="uni0311" unicode="&#x311;" 
d="M-87 663.5q37 -34.5 38 -103.5h-41q-4 39 -28.5 58t-66.5 19t-66.5 -19t-28.5 -58h-41q1 69 38 103.5t98 34.5t98 -34.5z" />
    <glyph glyph-name="uni0312" unicode="&#x312;" 
d="M-50 768q-56 -37 -56 -100q24 0 40.5 -15.5t16.5 -39.5q0 -25 -15 -39.5t-39 -14.5q-25 0 -41 18.5t-16 46.5q0 49 28 94.5t72 68.5z" />
    <glyph glyph-name="uni0313" unicode="&#x313;" 
d="M-158 572q56 37 56 100q-24 0 -40.5 15.5t-16.5 39.5q0 25 15 39.5t39 14.5q25 0 41 -18.5t16 -46.5q0 -49 -28 -94.5t-72 -68.5z" />
    <glyph glyph-name="uni0314" unicode="&#x314;" 
d="M-132 621.5q-28 45.5 -28 94.5q0 28 16 46.5t41 18.5q24 0 39 -14.5t15 -39.5q0 -24 -16.5 -39.5t-40.5 -15.5q0 -63 56 -100l-10 -19q-44 23 -72 68.5z" />
    <glyph glyph-name="dotbelowcomb" unicode="&#x323;" 
d="M-142.5 -167q-15.5 16 -15.5 39q0 22 15.5 37.5t38.5 15.5q22 0 38 -15.5t16 -38.5q0 -22 -16 -38t-38 -16q-23 0 -38.5 16z" />
    <glyph glyph-name="uni0324" unicode="&#x324;" 
d="M-338.5 -167q-15.5 16 -15.5 39q0 22 15.5 37.5t38.5 15.5q22 0 38.5 -15.5t16.5 -38.5q0 -22 -16.5 -38t-38.5 -16q-23 0 -38.5 16zM-143 -167q-16 16 -16 39q0 22 16 37.5t39 15.5q22 0 38 -15.5t16 -38.5q0 -22 -16 -38t-38 -16q-23 0 -39 16z" />
    <glyph glyph-name="uni0325" unicode="&#x325;" 
d="M-220 -213q-29 29 -29 70t29 70.5t70 29.5t70.5 -29.5t29.5 -70.5t-29.5 -70t-70.5 -29t-70 29zM-114.5 -178q14.5 15 14.5 35q0 21 -14.5 35.5t-34.5 14.5q-21 0 -35.5 -14.5t-14.5 -34.5q0 -21 14.5 -36t35.5 -15q20 0 34.5 15z" />
    <glyph glyph-name="uni0326" unicode="&#x326;" 
d="M-158 -248q56 37 56 100q-24 0 -40.5 15.5t-16.5 39.5q0 25 15 39.5t39 14.5q25 0 41 -18.5t16 -46.5q0 -49 -28 -94.5t-72 -68.5z" />
    <glyph glyph-name="uni0327" unicode="&#x327;" 
d="M-255 -173q50 0 95 12q45 10 45 30q0 11 -8 16.5t-31 8.5t-69 3l48 103h51l-33 -68q51 0 79 -17t28 -40q0 -75 -205 -75v27z" />
    <glyph glyph-name="uni0328" unicode="&#x328;" 
d="M-243.5 -206.5q-23.5 16.5 -33.5 46.5q-6 16 -6 33q0 50 44.5 89.5t109.5 51.5v-14q-35 -16 -59 -44.5t-24 -64.5q0 -17 8 -39q7 -18 20.5 -27.5t32.5 -9.5q20 0 44 12l12 -22q-51 -28 -93 -28q-32 0 -55.5 16.5z" />
    <glyph glyph-name="uni0329" unicode="&#x329;" 
d="M-90 -265v197h40v-197h-40z" />
    <glyph glyph-name="uni032D" unicode="&#x32d;" 
d="M-302 -215l-19 34l135 124l136 -124l-19 -34l-117 77z" />
    <glyph glyph-name="uni032E" unicode="&#x32e;" 
d="M-283 -175.5q-37 34.5 -38 103.5h41q4 -39 28.5 -58t66.5 -19t66.5 19t28.5 58h41q-1 -69 -38 -103.5t-98 -34.5t-98 34.5z" />
    <glyph glyph-name="uni0330" unicode="&#x330;" 
d="M-358.5 -122.5q29.5 40.5 73.5 40.5q21 0 37 -8.5t39 -26.5q20 -16 33.5 -23.5t29.5 -7.5q21 0 34.5 19t15.5 47h46q-5 -52 -32.5 -91t-73.5 -39q-22 0 -36 8t-33 25q-18 16 -31.5 23.5t-33.5 7.5q-26 0 -39.5 -15.5t-18.5 -48.5h-45q5 49 34.5 89.5z" />
    <glyph glyph-name="uni0331" unicode="&#x331;" 
d="M-317 -114v45h267v-45h-267z" />
    <glyph glyph-name="uni0332" unicode="&#x332;" 
d="M-417 -139v45h367v-45h-367z" />
    <glyph glyph-name="uni0335" unicode="&#x335;" 
d="M-312 245v48h262v-48h-262z" />
    <glyph glyph-name="uni0336" unicode="&#x336;" 
d="M-547 245v48h497v-48h-497z" />
    <glyph glyph-name="uni0337" unicode="&#x337;" 
d="M-288 300l-27 41l238 167l27 -41z" />
    <glyph glyph-name="uni0338" unicode="&#x338;" 
d="M-673 0l560 682h63l-561 -682h-62z" />
    <glyph glyph-name="uni0342" unicode="&#x342;" 
d="M-128.5 643.5q29.5 40.5 73.5 40.5q21 0 37 -8.5t39 -26.5q20 -16 33.5 -23.5t29.5 -7.5q21 0 34.5 19t15.5 47h46q-5 -52 -32.5 -91t-73.5 -39q-22 0 -36 8t-33 25q-18 16 -31.5 23.5t-33.5 7.5q-26 0 -39.5 -15.5t-18.5 -48.5h-45q5 49 34.5 89.5z" />
    <glyph glyph-name="uni0343" unicode="&#x343;" 
d="M-54 572q56 37 56 100q-24 0 -40.5 15.5t-16.5 39.5q0 25 15 39.5t39 14.5q25 0 41 -18.5t16 -46.5q0 -49 -28 -94.5t-72 -68.5z" />
    <glyph glyph-name="uni0344" unicode="&#x344;" 
d="M11 559l-39 12l69 205l64 -21zM-148.5 576q-15.5 16 -15.5 39q0 22 15.5 37.5t38.5 15.5q22 0 38.5 -15.5t16.5 -38.5q0 -22 -16.5 -38t-38.5 -16q-23 0 -38.5 16zM107 576q-16 16 -16 39q0 22 16 37.5t39 15.5q22 0 38 -15.5t16 -38.5q0 -22 -16 -38t-38 -16
q-23 0 -39 16z" />
    <glyph glyph-name="uni0345" unicode="&#x345;" 
d="M29 -68q0 -39 15 -57.5t51 -18.5h10v-56h-10q-68 0 -96.5 33t-28.5 104v15h59v-20z" />
    <glyph glyph-name="uni035E" unicode="&#x35e;" 
d="M-825 586v45h775v-45h-775z" />
    <glyph glyph-name="uni035F" unicode="&#x35f;" 
d="M-825 -139v45h775v-45h-775z" />
    <glyph glyph-name="uni0374" unicode="&#x374;" horiz-adv-x="288" 
d="M97 498l-39 12l87 255l63 -20z" />
    <glyph glyph-name="uni0375" unicode="&#x375;" horiz-adv-x="288" 
d="M191 89l39 -12l-87 -255l-63 20z" />
    <glyph glyph-name="uni037A" unicode="&#x37a;" horiz-adv-x="231" 
d="M129 -68q0 -39 15 -57.5t51 -18.5h10v-56h-10q-68 0 -96.5 33t-28.5 104v15h59v-20z" />
    <glyph glyph-name="uni037E" unicode="&#x37e;" horiz-adv-x="220" 
d="M56 -108q56 37 56 100q-24 0 -40.5 15.5t-16.5 39.5q0 25 15 39.5t39 14.5q25 0 41 -18.5t16 -46.5q0 -49 -28 -94.5t-72 -68.5zM72 380q-16 16 -16 39q0 22 16 38t38 16q23 0 38.5 -16t15.5 -39q0 -22 -15.5 -38t-38.5 -16q-22 0 -38 16z" />
    <glyph glyph-name="tonos" unicode="&#x384;" horiz-adv-x="268" 
d="M97 548l-39 12l67 205l63 -20z" />
    <glyph glyph-name="dieresistonos" unicode="&#x385;" horiz-adv-x="524" 
d="M255 559l-39 12l69 205l64 -21zM95.5 576q-15.5 16 -15.5 39q0 22 15.5 37.5t38.5 15.5q22 0 38.5 -15.5t16.5 -38.5q0 -22 -16.5 -38t-38.5 -16q-23 0 -38.5 16zM351 576q-16 16 -16 39q0 22 16 37.5t39 15.5q22 0 38 -15.5t16 -38.5q0 -22 -16 -38t-38 -16
q-23 0 -39 16z" />
    <glyph glyph-name="Alphatonos" unicode="&#x386;" horiz-adv-x="585" 
d="M503 0l-70 191h-283l-63 -191h-75l242 682h70l249 -682h-70zM173 253h237l-122 331zM36 466l-39 12l67 205l63 -20z" />
    <glyph glyph-name="anoteleia" unicode="&#x387;" horiz-adv-x="220" 
d="M72 380q-16 16 -16 39q0 22 16 38t38 16q23 0 38.5 -16t15.5 -39q0 -22 -15.5 -38t-38.5 -16q-22 0 -38 16z" />
    <glyph glyph-name="Epsilontonos" unicode="&#x388;" horiz-adv-x="503" 
d="M79 0v682h382v-63h-307v-238h240v-61h-240v-258h310v-62h-385zM-121 466l-39 12l67 205l63 -20z" />
    <glyph glyph-name="Etatonos" unicode="&#x389;" horiz-adv-x="670" 
d="M80 0v682h75v-295h360v295h75v-682h-75v325h-360v-325h-75zM-91 466l-39 12l67 205l63 -20z" />
    <glyph glyph-name="Iotatonos" unicode="&#x38a;" horiz-adv-x="317" 
d="M55 0v66h66v550h-66v66h207v-66h-66v-550h66v-66h-207zM-121 466l-39 12l67 205l63 -20z" />
    <glyph glyph-name="Omicrontonos" unicode="&#x38c;" horiz-adv-x="696" 
d="M196.5 29.5q-66.5 45.5 -104 126.5t-37.5 184t37.5 184.5t104 127t151.5 45.5t151.5 -45.5t104 -127t37.5 -185.5q0 -103 -37.5 -183.5t-104 -126t-151.5 -45.5t-151.5 45.5zM459.5 89.5q49.5 36.5 77.5 102t28 148.5t-28 149t-77.5 103t-111.5 37t-111.5 -37t-77.5 -103
t-28 -149t28 -148.5t77.5 -102t111.5 -36.5t111.5 36.5zM-51 466l-39 12l67 205l63 -20z" />
    <glyph glyph-name="Upsilontonos" unicode="&#x38e;" horiz-adv-x="484" 
d="M430 682h69l-221 -403v-279h-74v282l-219 400h75l186 -340zM-146 466l-39 12l67 205l63 -20z" />
    <glyph glyph-name="Omegatonos" unicode="&#x38f;" horiz-adv-x="692" 
d="M91.5 548q36.5 71 102 110t152.5 39t152.5 -39t102 -110t36.5 -167q0 -222 -176 -309v-10h163v-62h-228v106q79 28 122 98.5t43 174.5q0 79 -28 135.5t-76.5 85.5t-110.5 30q-62 -1 -110.5 -30t-76.5 -85.5t-28 -135.5q0 -104 43 -174.5t122 -98.5v-106h-228v62h163v10
q-176 87 -176 309q0 96 36.5 167zM-71 466l-39 12l67 205l63 -20z" />
    <glyph glyph-name="iotadieresistonos" unicode="&#x390;" horiz-adv-x="273" 
d="M138 142q0 -38 21 -59t58 -21h30v-62h-30q-70 0 -108.5 39t-38.5 108v321h68v-326zM117 559l-39 12l69 205l64 -21zM-42.5 576q-15.5 16 -15.5 39q0 22 15.5 37.5t38.5 15.5q22 0 38.5 -15.5t16.5 -38.5q0 -22 -16.5 -38t-38.5 -16q-23 0 -38.5 16zM213 576
q-16 16 -16 39q0 22 16 37.5t39 15.5q22 0 38 -15.5t16 -38.5q0 -22 -16 -38t-38 -16q-23 0 -39 16z" />
    <glyph glyph-name="Alpha" unicode="&#x391;" horiz-adv-x="585" 
d="M503 0l-70 191h-283l-63 -191h-75l242 682h70l249 -682h-70zM173 253h237l-122 331z" />
    <glyph glyph-name="Beta" unicode="&#x392;" horiz-adv-x="574" 
d="M501 309q32 -43 32 -113q0 -91 -55 -143.5t-151 -52.5h-248v682h225q91 0 143 -47.5t52 -126.5q0 -51 -23 -87.5t-66 -53.5q59 -15 91 -58zM154 391h159q107 0 107 117q0 53 -31 82t-86 29h-149v-228zM417.5 98q36.5 36 36.5 98t-36.5 97.5t-100.5 35.5h-163v-267h163
q64 0 100.5 36z" />
    <glyph glyph-name="Gamma" unicode="&#x393;" horiz-adv-x="451" 
d="M79 0v682h372v-63h-297v-619h-75z" />
    <glyph glyph-name="uni0394" unicode="&#x394;" horiz-adv-x="570" 
d="M12 0v50l235 632h70l241 -630v-52h-546zM91 62h393l-203 521z" />
    <glyph glyph-name="Epsilon" unicode="&#x395;" horiz-adv-x="503" 
d="M79 0v682h382v-63h-307v-238h240v-61h-240v-258h310v-62h-385z" />
    <glyph glyph-name="Zeta" unicode="&#x396;" horiz-adv-x="503" 
d="M38 0v63l362 557h-352v62h426v-75l-356 -545h346v-62h-426z" />
    <glyph glyph-name="Eta" unicode="&#x397;" horiz-adv-x="670" 
d="M80 0v682h75v-295h360v295h75v-682h-75v325h-360v-325h-75z" />
    <glyph glyph-name="Theta" unicode="&#x398;" horiz-adv-x="696" 
d="M196.5 29.5q-66.5 45.5 -104 126.5t-37.5 184t37.5 184.5t104 127t151.5 45.5t151.5 -45.5t104 -127t37.5 -185.5q0 -103 -37.5 -183.5t-104 -126t-151.5 -45.5t-151.5 45.5zM459.5 89.5q49.5 36.5 77.5 102t28 148.5t-28 149t-77.5 103t-111.5 37t-111.5 -37t-77.5 -103
t-28 -149t28 -148.5t77.5 -102t111.5 -36.5t111.5 36.5zM200 310v61h296v-61h-296z" />
    <glyph glyph-name="Iota" unicode="&#x399;" horiz-adv-x="317" 
d="M55 0v66h66v550h-66v66h207v-66h-66v-550h66v-66h-207z" />
    <glyph glyph-name="Kappa" unicode="&#x39a;" horiz-adv-x="545" 
d="M460 0l-234 328l-72 -85v-243h-75v682h75v-345l288 345h83l-255 -302l275 -380h-85z" />
    <glyph glyph-name="Lambda" unicode="&#x39b;" horiz-adv-x="565" 
d="M553 0h-70l-205 582l-191 -582h-75l232 682h70z" />
    <glyph glyph-name="Mu" unicode="&#x39c;" horiz-adv-x="825" 
d="M661 682h84v-682h-74v545l-228 -545h-70l-218 543v-543h-75v682h92l239 -598z" />
    <glyph glyph-name="Nu" unicode="&#x39d;" horiz-adv-x="662" 
d="M80 0v682h80l347 -569v569h75v-682h-80l-347 567v-567h-75z" />
    <glyph glyph-name="Xi" unicode="&#x39e;" horiz-adv-x="511" 
d="M39 617v65h433v-65h-433zM79 319v63h353v-63h-353zM39 0v64h433v-64h-433z" />
    <glyph glyph-name="Omicron" unicode="&#x39f;" horiz-adv-x="696" 
d="M196.5 29.5q-66.5 45.5 -104 126.5t-37.5 184t37.5 184.5t104 127t151.5 45.5t151.5 -45.5t104 -127t37.5 -185.5q0 -103 -37.5 -183.5t-104 -126t-151.5 -45.5t-151.5 45.5zM459.5 89.5q49.5 36.5 77.5 102t28 148.5t-28 149t-77.5 103t-111.5 37t-111.5 -37t-77.5 -103
t-28 -149t28 -148.5t77.5 -102t111.5 -36.5t111.5 36.5z" />
    <glyph glyph-name="Pi" unicode="&#x3a0;" horiz-adv-x="661" 
d="M80 0v682h501v-682h-75v619h-351v-619h-75z" />
    <glyph glyph-name="Rho" unicode="&#x3a1;" horiz-adv-x="535" 
d="M80 682h228q92 0 147 -56t55 -155q0 -98 -57.5 -154t-152.5 -56h-145v-261h-75v682zM298 323q67 0 102 37.5t35 110.5t-35 111t-102 38h-143v-297h143z" />
    <glyph glyph-name="Sigma" unicode="&#x3a3;" horiz-adv-x="492" 
d="M40 0v63l179 283l-181 263v73h425v-62h-346l183 -267l-185 -291h348v-62h-423z" />
    <glyph glyph-name="Tau" unicode="&#x3a4;" horiz-adv-x="534" 
d="M230 0v620h-215v62h504v-62h-215v-620h-74z" />
    <glyph glyph-name="Upsilon" unicode="&#x3a5;" horiz-adv-x="484" 
d="M430 682h69l-221 -403v-279h-74v282l-219 400h75l186 -340z" />
    <glyph glyph-name="Phi" unicode="&#x3a6;" horiz-adv-x="776" 
d="M684 191.5q-37 -62.5 -103.5 -100t-153.5 -44.5v-64h-75v63q-88 7 -155 45t-104.5 101t-37.5 141q0 81 37 145t104.5 103t155.5 46v71h75v-72q87 -7 153.5 -46.5t103.5 -103.5t37 -144q0 -78 -37 -140.5zM159 222q28 -49 78 -79.5t115 -37.5v462q-65 -7 -115 -38.5
t-78 -82.5t-28 -114q0 -61 28 -110zM540.5 143q49.5 31 77 79.5t27.5 109.5q0 62 -27.5 113t-77 82.5t-113.5 39.5v-462q64 7 113.5 38z" />
    <glyph glyph-name="Chi" unicode="&#x3a7;" horiz-adv-x="516" 
d="M511 0h-84l-172 284l-161 -284h-84l197 337l-202 345h81l170 -291l174 291h78l-205 -338z" />
    <glyph glyph-name="Psi" unicode="&#x3a8;" horiz-adv-x="731" 
d="M75 682h75v-269q0 -87 45 -128.5t133 -51.5v449h75v-449q88 10 133 51.5t45 128.5v269h75v-269q0 -119 -67 -179.5t-186 -68.5v-165h-75v165q-119 8 -186 68.5t-67 179.5v269z" />
    <glyph glyph-name="uni03A9" unicode="&#x3a9;" horiz-adv-x="692" 
d="M91.5 548q36.5 71 102 110t152.5 39t152.5 -39t102 -110t36.5 -167q0 -222 -176 -309v-10h163v-62h-228v106q79 28 122 98.5t43 174.5q0 79 -28 135.5t-76.5 85.5t-110.5 30q-62 -1 -110.5 -30t-76.5 -85.5t-28 -135.5q0 -104 43 -174.5t122 -98.5v-106h-228v62h163v10
q-176 87 -176 309q0 96 36.5 167z" />
    <glyph glyph-name="Iotadieresis" unicode="&#x3aa;" horiz-adv-x="317" 
d="M55 0v66h66v550h-66v66h207v-66h-66v-550h66v-66h-207zM22.5 775q-15.5 16 -15.5 39q0 22 15.5 37.5t38.5 15.5q22 0 38.5 -15.5t16.5 -38.5q0 -22 -16.5 -38t-38.5 -16q-23 0 -38.5 16zM218 775q-16 16 -16 39q0 22 16 37.5t39 15.5q22 0 38 -15.5t16 -38.5
q0 -22 -16 -38t-38 -16q-23 0 -39 16z" />
    <glyph glyph-name="Upsilondieresis" unicode="&#x3ab;" horiz-adv-x="484" 
d="M430 682h69l-221 -403v-279h-74v282l-219 400h75l186 -340zM105.5 775q-15.5 16 -15.5 39q0 22 15.5 37.5t38.5 15.5q22 0 38.5 -15.5t16.5 -38.5q0 -22 -16.5 -38t-38.5 -16q-23 0 -38.5 16zM301 775q-16 16 -16 39q0 22 16 37.5t39 15.5q22 0 38 -15.5t16 -38.5
q0 -22 -16 -38t-38 -16q-23 0 -39 16z" />
    <glyph glyph-name="alphatonos" unicode="&#x3ac;" horiz-adv-x="628" 
d="M132 15.5q-47 31.5 -72 87t-25 126.5q0 111 53 183t162 72q74 0 125.5 -40t72.5 -124l46 148h67l-86 -257l16 -51l10 -33q15 -50 25 -66t33 -16q20 0 33 8l10 -49q-20 -20 -59 -20q-32 0 -51 17.5t-28 42.5t-25 81q-25 -69 -74 -105t-121 -36q-65 0 -112 31.5zM364.5 98
q41.5 52 41.5 129q0 91 -42 143t-114 52t-109.5 -53.5t-37.5 -139.5q0 -78 39 -130.5t106 -52.5q75 0 116.5 52zM269 548l-39 12l67 205l63 -20z" />
    <glyph glyph-name="epsilontonos" unicode="&#x3ad;" horiz-adv-x="463" 
d="M92 22.5q-50 39.5 -50 98.5q0 84 80 114q-72 33 -72 106q0 63 49 103.5t147 40.5q122 0 187 -71l-45 -45q-52 54 -142 54q-66 0 -97 -23.5t-31 -58.5q0 -32 25 -51t71 -19h115v-64h-115q-57 0 -80.5 -23.5t-23.5 -52.5q0 -40 31.5 -62.5t93.5 -22.5q101 0 168 70l45 -45
q-90 -88 -213 -88q-93 0 -143 39.5zM275 548l-39 12l67 205l63 -20z" />
    <glyph glyph-name="etatonos" unicode="&#x3ae;" horiz-adv-x="585" 
d="M424.5 464q41.5 -20 66 -59t24.5 -92v-513h-68v483q0 139 -124 139q-72 0 -108 -51t-36 -137v-234h-68v336q0 41 -13.5 60.5t-48.5 19.5h-7v62h7q106 0 125 -97q24 49 65 76t95 27q49 0 90.5 -20zM284 548l-39 12l67 205l63 -20z" />
    <glyph glyph-name="iotatonos" unicode="&#x3af;" horiz-adv-x="273" 
d="M138 142q0 -38 21 -59t58 -21h30v-62h-30q-70 0 -108.5 39t-38.5 108v321h68v-326zM125 548l-39 12l67 205l63 -20z" />
    <glyph glyph-name="upsilondieresistonos" unicode="&#x3b0;" horiz-adv-x="487" 
d="M110 33q-50 50 -50 139v296h67v-286q0 -62 31.5 -99t90.5 -37q67 0 102.5 48.5t35.5 157.5q0 64 -8 119.5t-22 96.5h67q14 -41 22 -96.5t8 -119.5q0 -269 -206 -269q-88 0 -138 50zM244 559l-39 12l69 205l64 -21zM84.5 576q-15.5 16 -15.5 39q0 22 15.5 37.5t38.5 15.5
q22 0 38.5 -15.5t16.5 -38.5q0 -22 -16.5 -38t-38.5 -16q-23 0 -38.5 16zM340 576q-16 16 -16 39q0 22 16 37.5t39 15.5q22 0 38 -15.5t16 -38.5q0 -22 -16 -38t-38 -16q-23 0 -39 16z" />
    <glyph glyph-name="alpha" unicode="&#x3b1;" horiz-adv-x="628" 
d="M132 15.5q-47 31.5 -72 87t-25 126.5q0 111 53 183t162 72q74 0 125.5 -40t72.5 -124l46 148h67l-86 -257l16 -51l10 -33q15 -50 25 -66t33 -16q20 0 33 8l10 -49q-20 -20 -59 -20q-32 0 -51 17.5t-28 42.5t-25 81q-25 -69 -74 -105t-121 -36q-65 0 -112 31.5zM364.5 98
q41.5 52 41.5 129q0 91 -42 143t-114 52t-109.5 -53.5t-37.5 -139.5q0 -78 39 -130.5t106 -52.5q75 0 116.5 52z" />
    <glyph glyph-name="beta" unicode="&#x3b2;" horiz-adv-x="561" 
d="M64 510q0 105 54.5 169t160.5 64q96 0 147.5 -50t51.5 -130q0 -52 -22 -94.5t-68 -69.5q72 -21 106 -71.5t34 -119.5q0 -63 -28.5 -114t-78.5 -80.5t-113 -29.5q-115 0 -176 86v-270h-68v710zM418.5 92.5q41.5 46.5 41.5 115.5q0 72 -46 114t-132 42h-57v62h54
q63 0 97.5 36.5t34.5 97.5q0 55 -34.5 88t-97.5 33q-66 0 -106.5 -44.5t-40.5 -144.5v-255q0 -63 24 -106t63 -64t83 -21q75 0 116.5 46.5z" />
    <glyph glyph-name="gamma" unicode="&#x3b3;" horiz-adv-x="470" 
d="M96 468l134 -430q47 85 78.5 203.5t42.5 226.5h74q-10 -121 -55 -256.5t-111 -251.5l2 -130h-68l-1 121l-171 517h75z" />
    <glyph glyph-name="delta" unicode="&#x3b4;" horiz-adv-x="528" 
d="M145 15q-52 30 -81.5 85.5t-29.5 130.5q0 104 54 168t142 75q-57 29 -83 62t-26 77q0 56 44.5 93t132.5 37q59 0 100.5 -12.5t66.5 -31.5l-25 -52q-70 36 -143 36q-60 0 -83 -19.5t-23 -48.5q0 -19 7.5 -35t32.5 -36t75 -44q73 -35 114 -72t58 -83.5t17 -113.5t-28 -123
t-81 -89.5t-124 -33.5q-65 0 -117 30zM357.5 73.5q37.5 27.5 55 69.5t17.5 85q0 58 -20.5 102.5t-56.5 68.5t-83 24q-78 0 -123.5 -53t-45.5 -135q0 -64 24.5 -106.5t62 -62.5t77.5 -20q55 0 92.5 27.5z" />
    <glyph glyph-name="epsilon" unicode="&#x3b5;" horiz-adv-x="463" 
d="M92 22.5q-50 39.5 -50 98.5q0 84 80 114q-72 33 -72 106q0 63 49 103.5t147 40.5q122 0 187 -71l-45 -45q-52 54 -142 54q-66 0 -97 -23.5t-31 -58.5q0 -32 25 -51t71 -19h115v-64h-115q-57 0 -80.5 -23.5t-23.5 -52.5q0 -40 31.5 -62.5t93.5 -22.5q101 0 168 70l45 -45
q-90 -88 -213 -88q-93 0 -143 39.5z" />
    <glyph glyph-name="zeta" unicode="&#x3b6;" horiz-adv-x="426" 
d="M112 462q78 112 199 202h-254v62h354v-57q-143 -110 -226.5 -214t-83.5 -216q0 -72 36 -117.5t123 -63.5q54 -11 85.5 -24t48.5 -37t17 -65q0 -52 -39 -89t-93 -43v63q31 6 50 23t19 41q0 23 -13 35.5t-31.5 17.5t-60.5 14q-209 40 -209 242q0 114 78 226z" />
    <glyph glyph-name="eta" unicode="&#x3b7;" horiz-adv-x="585" 
d="M424.5 464q41.5 -20 66 -59t24.5 -92v-513h-68v483q0 139 -124 139q-72 0 -108 -51t-36 -137v-234h-68v336q0 41 -13.5 60.5t-48.5 19.5h-7v62h7q106 0 125 -97q24 49 65 76t95 27q49 0 90.5 -20z" />
    <glyph glyph-name="theta" unicode="&#x3b8;" horiz-adv-x="544" 
d="M442 649q59 -93 59 -284q0 -381 -228 -381q-229 0 -229 381q0 191 58.5 284t169.5 93t170 -93zM155.5 609q-39.5 -72 -44.5 -206h323q-5 133 -45 205.5t-117 72.5t-116.5 -72zM390.5 120q39.5 74 43.5 221h-323q4 -147 43.5 -221t118.5 -74q78 0 117.5 74z" />
    <glyph glyph-name="iota" unicode="&#x3b9;" horiz-adv-x="273" 
d="M138 142q0 -38 21 -59t58 -21h30v-62h-30q-70 0 -108.5 39t-38.5 108v321h68v-326z" />
    <glyph glyph-name="kappa" unicode="&#x3ba;" horiz-adv-x="478" 
d="M224 233l-93 -111v-122h-68v468h68v-251l165 191q36 42 63.5 56t76.5 14h17v-62h-17q-28 0 -44 -7t-35 -28l-90 -98l191 -283h-76z" />
    <glyph glyph-name="lambda" unicode="&#x3bb;" horiz-adv-x="504" 
d="M203 495l-8 23q-17 49 -31.5 75t-30 35.5t-37.5 9.5q-7 0 -18.5 -2.5t-16.5 -5.5l-10 49q10 10 27.5 15t33.5 5q47 0 75 -23.5t48 -76.5l178 -477q13 -34 19 -46t16 -18t31 -6h10v-62h-10q-53 0 -78.5 20.5t-43.5 68.5l-122 325l-158 -404h-72z" />
    <glyph glyph-name="uni03BC" unicode="&#x3bc;" horiz-adv-x="576" 
d="M64 468h68v-276q0 -71 26 -108.5t97 -37.5q68 0 101.5 57t33.5 131v234h68v-309q0 -64 11.5 -89t39.5 -25q10 0 22.5 2.5t18.5 5.5l10 -49q-10 -10 -29 -15t-38 -5q-39 0 -63 24t-30 72q-23 -49 -58 -72.5t-86 -23.5q-44 0 -73.5 13.5t-50.5 41.5v-239h-68v668z" />
    <glyph glyph-name="nu" unicode="&#x3bd;" horiz-adv-x="490" 
d="M96 468l143 -420q48 89 83.5 198t48.5 222h74q-9 -94 -48.5 -217.5t-106.5 -250.5h-106l-163 468h75z" />
    <glyph glyph-name="xi" unicode="&#x3be;" horiz-adv-x="443" 
d="M64 282.5q20 34.5 46.5 53t48.5 24.5q-38 12 -67 48t-29 94q0 67 45 107.5t137 54.5h-186v62h358v-67q-99 -17 -159 -34t-94 -46t-34 -75q0 -57 38 -83.5t102 -26.5h103v-61h-105q-74 0 -115.5 -39t-41.5 -95q0 -43 14 -69t48 -42.5t97 -29.5q54 -11 85.5 -24t48.5 -37
t17 -65q0 -52 -39 -89t-93 -43v63q31 6 50 23t19 41q0 23 -13 35.5t-31.5 17.5t-60.5 14q-76 15 -121 39.5t-66 64t-22 101.5q0 49 20 83.5z" />
    <glyph glyph-name="omicron" unicode="&#x3bf;" horiz-adv-x="531" 
d="M147 16q-53 32 -83 89.5t-30 129.5t29.5 128.5t82 88.5t119.5 32t120 -32t83 -89t30 -129t-29.5 -129t-82 -89t-119.5 -32t-120 32zM350.5 70q37.5 24 58.5 67t21 97t-21 97t-58.5 67t-85.5 24q-47 0 -84 -24t-58 -66.5t-21 -96.5q0 -55 21 -98t58 -67t84 -24
q48 0 85.5 24z" />
    <glyph glyph-name="pi" unicode="&#x3c0;" horiz-adv-x="623" 
d="M25 468h563v-62h-108v-284q0 -38 16 -54t53 -16h8v-62h-8q-70 0 -103.5 34t-33.5 103v279h-216v-406h-68v406h-103v62z" />
    <glyph glyph-name="rho" unicode="&#x3c1;" horiz-adv-x="551" 
d="M54 224q0 81 31.5 140t84 89.5t115.5 30.5q67 0 120 -32t83 -89t30 -130q0 -72 -29.5 -128.5t-82 -88.5t-119.5 -32q-48 0 -91.5 24.5t-73.5 67.5v-276h-68v424zM143 137q21 -43 58.5 -67t85.5 -24q47 0 84 24t58 66.5t21 96.5q0 55 -21 98t-58 67t-84 24
q-48 0 -85.5 -24t-58.5 -67t-21 -97t21 -97z" />
    <glyph glyph-name="uni03C2" unicode="&#x3c2;" horiz-adv-x="466" 
d="M92.5 417.5q60.5 66.5 163.5 66.5q62 0 107 -22.5t78 -71.5l-50 -39q-22 32 -58 51.5t-77 19.5q-72 0 -114 -48.5t-43 -134.5q0 -72 36 -117.5t123 -63.5q54 -11 85.5 -24t48.5 -37t17 -65q0 -52 -39 -89t-93 -43v63q31 6 50 23t19 41q0 23 -13 35.5t-31.5 17.5t-60.5 14
q-108 22 -158 82.5t-51 157.5q0 117 60.5 183.5z" />
    <glyph glyph-name="sigma" unicode="&#x3c3;" horiz-adv-x="583" 
d="M63 353q29 55 80.5 85t115.5 30h289v-61h-133q35 -33 54 -79.5t19 -101.5q0 -69 -29.5 -124t-81.5 -86t-116 -31t-116 31t-81.5 86t-29.5 125q0 71 29 126zM124 133q20 -41 55.5 -64t81.5 -23t82.5 23t57.5 64t21 93q0 80 -44.5 130.5t-116.5 50.5q-45 0 -81 -23t-56 -64
t-20 -93q0 -53 20 -94z" />
    <glyph glyph-name="tau" unicode="&#x3c4;" horiz-adv-x="476" 
d="M15 468h436v-62h-191v-274q0 -37 22.5 -58.5t60.5 -21.5h60v-62h-60q-70 0 -110.5 39t-40.5 108v269h-177v62z" />
    <glyph glyph-name="upsilon" unicode="&#x3c5;" horiz-adv-x="487" 
d="M110 33q-50 50 -50 139v296h67v-286q0 -62 31.5 -99t90.5 -37q67 0 102.5 48.5t35.5 157.5q0 64 -8 119.5t-22 96.5h67q14 -41 22 -96.5t8 -119.5q0 -269 -206 -269q-88 0 -138 50z" />
    <glyph glyph-name="phi" unicode="&#x3c6;" horiz-adv-x="637" 
d="M536.5 52q-67.5 -64 -183.5 -68v-184h-68v184q-72 3 -129 32t-89.5 84.5t-32.5 134.5t32.5 134t89.5 84t129 31v139h68v-139q116 -3 183.5 -66.5t67.5 -182.5t-67.5 -183zM487.5 94q48.5 48 48.5 141q0 92 -48.5 139.5t-134.5 50.5v-382q86 3 134.5 51zM153 95
q51 -49 132 -52v382q-81 -3 -132 -51.5t-51 -138.5q0 -91 51 -140z" />
    <glyph glyph-name="chi" unicode="&#x3c7;" horiz-adv-x="495" 
d="M493 -210h-7q-49 0 -76.5 17t-53.5 65l-98 188l-129 -260h-75l172 323l-115 235q-17 36 -34 47t-45 11h-7l1 62h10q50 0 76.5 -16.5t50.5 -65.5l100 -210l141 282h75l-183 -345l113 -213q19 -36 34 -47t42 -11h7z" />
    <glyph glyph-name="psi" unicode="&#x3c8;" horiz-adv-x="603" 
d="M60 468h67v-276q0 -76 34.5 -107t111.5 -39v577h68v-577q61 5 95.5 24.5t50.5 62t16 119.5q0 64 -8 119.5t-22 96.5h67q14 -41 22 -96.5t8 -119.5q0 -95 -26.5 -152t-76.5 -83.5t-126 -33.5v-182h-68v182q-104 9 -158.5 58.5t-54.5 150.5v276z" />
    <glyph glyph-name="omega" unicode="&#x3c9;" horiz-adv-x="725" 
d="M68.5 360q29.5 71 86.5 118l46 -44q-46 -43 -70 -99.5t-24 -136.5q0 -71 28 -111.5t80 -40.5q57 0 85.5 36t28.5 128v121h68v-121q0 -92 28.5 -128t85.5 -36q52 0 80 40.5t28 111.5q0 80 -24 136.5t-70 99.5l46 44q57 -47 86.5 -118t29.5 -155q0 -100 -43.5 -160.5
t-132.5 -60.5q-56 0 -90.5 22.5t-55.5 70.5h-4q-21 -48 -55.5 -70.5t-90.5 -22.5q-89 0 -132.5 60.5t-43.5 160.5q0 84 29.5 155z" />
    <glyph glyph-name="iotadieresis" unicode="&#x3ca;" horiz-adv-x="273" 
d="M138 142q0 -38 21 -59t58 -21h30v-62h-30q-70 0 -108.5 39t-38.5 108v321h68v-326zM-30.5 575q-15.5 16 -15.5 39q0 22 15.5 37.5t38.5 15.5q22 0 38.5 -15.5t16.5 -38.5q0 -22 -16.5 -38t-38.5 -16q-23 0 -38.5 16zM165 575q-16 16 -16 39q0 22 16 37.5t39 15.5
q22 0 38 -15.5t16 -38.5q0 -22 -16 -38t-38 -16q-23 0 -39 16z" />
    <glyph glyph-name="upsilondieresis" unicode="&#x3cb;" horiz-adv-x="487" 
d="M110 33q-50 50 -50 139v296h67v-286q0 -62 31.5 -99t90.5 -37q67 0 102.5 48.5t35.5 157.5q0 64 -8 119.5t-22 96.5h67q14 -41 22 -96.5t8 -119.5q0 -269 -206 -269q-88 0 -138 50zM96.5 575q-15.5 16 -15.5 39q0 22 15.5 37.5t38.5 15.5q22 0 38.5 -15.5t16.5 -38.5
q0 -22 -16.5 -38t-38.5 -16q-23 0 -38.5 16zM292 575q-16 16 -16 39q0 22 16 37.5t39 15.5q22 0 38 -15.5t16 -38.5q0 -22 -16 -38t-38 -16q-23 0 -39 16z" />
    <glyph glyph-name="omicrontonos" unicode="&#x3cc;" horiz-adv-x="531" 
d="M147 16q-53 32 -83 89.5t-30 129.5t29.5 128.5t82 88.5t119.5 32t120 -32t83 -89t30 -129t-29.5 -129t-82 -89t-119.5 -32t-120 32zM350.5 70q37.5 24 58.5 67t21 97t-21 97t-58.5 67t-85.5 24q-47 0 -84 -24t-58 -66.5t-21 -96.5q0 -55 21 -98t58 -67t84 -24
q48 0 85.5 24zM295 548l-39 12l67 205l63 -20z" />
    <glyph glyph-name="upsilontonos" unicode="&#x3cd;" horiz-adv-x="487" 
d="M110 33q-50 50 -50 139v296h67v-286q0 -62 31.5 -99t90.5 -37q67 0 102.5 48.5t35.5 157.5q0 64 -8 119.5t-22 96.5h67q14 -41 22 -96.5t8 -119.5q0 -269 -206 -269q-88 0 -138 50zM252 548l-39 12l67 205l63 -20z" />
    <glyph glyph-name="omegatonos" unicode="&#x3ce;" horiz-adv-x="725" 
d="M68.5 360q29.5 71 86.5 118l46 -44q-46 -43 -70 -99.5t-24 -136.5q0 -71 28 -111.5t80 -40.5q57 0 85.5 36t28.5 128v121h68v-121q0 -92 28.5 -128t85.5 -36q52 0 80 40.5t28 111.5q0 80 -24 136.5t-70 99.5l46 44q57 -47 86.5 -118t29.5 -155q0 -100 -43.5 -160.5
t-132.5 -60.5q-56 0 -90.5 22.5t-55.5 70.5h-4q-21 -48 -55.5 -70.5t-90.5 -22.5q-89 0 -132.5 60.5t-43.5 160.5q0 84 29.5 155zM383 548l-39 12l67 205l63 -20z" />
    <glyph glyph-name="uni03CF" unicode="&#x3cf;" horiz-adv-x="545" 
d="M79 682h75v-345l288 345h83l-255 -302l275 -380q-23 -93 -91.5 -142.5t-193.5 -57.5v77q67 4 104.5 17.5t58.5 37.5t37 68l-234 328l-72 -85v-243h-75v682z" />
    <glyph glyph-name="uni03D7" unicode="&#x3d7;" horiz-adv-x="458" 
d="M63 468h68v-216l215 216h88l-186 -186l190 -282q0 -95 -51 -143.5t-174 -56.5v77q66 4 97.5 17t41.5 37t10 69l-160 236l-71 -70v-166h-68v468z" />
    <glyph glyph-name="uni0400" unicode="&#x400;" horiz-adv-x="503" 
d="M79 0v682h382v-63h-307v-238h240v-61h-240v-258h310v-62h-385zM387 725l-230 87l34 58l216 -111z" />
    <glyph glyph-name="uni0401" unicode="&#x401;" horiz-adv-x="503" 
d="M79 0v682h382v-63h-307v-238h240v-61h-240v-258h310v-62h-385zM145.5 775q-15.5 16 -15.5 39q0 22 15.5 37.5t38.5 15.5q22 0 38.5 -15.5t16.5 -38.5q0 -22 -16.5 -38t-38.5 -16q-23 0 -38.5 16zM341 775q-16 16 -16 39q0 22 16 37.5t39 15.5q22 0 38 -15.5t16 -38.5
q0 -22 -16 -38t-38 -16q-23 0 -39 16z" />
    <glyph glyph-name="uni0402" unicode="&#x402;" horiz-adv-x="684" 
d="M444 -10q-17 4 -40 13l32 62q21 -10 42 -10q40 0 63 40t23 117q0 78 -39 116t-120 38q-60 0 -105 -18.5t-45 -46.5v-301h-75v620h-165v62h494v-62h-254v-240q30 26 75.5 40.5t98.5 14.5q59 0 107 -26t75.5 -74t27.5 -111q0 -114 -42.5 -176t-114.5 -62q-21 0 -38 4z" />
    <glyph glyph-name="uni0403" unicode="&#x403;" horiz-adv-x="471" 
d="M79 0v682h382v-63h-307v-619h-75zM181 725l-20 34l216 111l34 -58z" />
    <glyph glyph-name="uni0404" unicode="&#x404;" horiz-adv-x="605" 
d="M570 144q-36 -78 -95.5 -119t-141.5 -41q-86 0 -148.5 42.5t-96 122t-33.5 190.5q0 112 32.5 192.5t93 123t143.5 42.5q85 0 145.5 -37.5t94.5 -105.5l-60 -35q-32 59 -75 84.5t-105 25.5q-84 0 -133.5 -67.5t-55.5 -189.5h250v-62h-250q6 -121 56.5 -189.5t131.5 -68.5
q71 0 110.5 31.5t73.5 98.5z" />
    <glyph glyph-name="uni0405" unicode="&#x405;" horiz-adv-x="583" 
d="M161 21.5q-71 37.5 -118 101.5l61 54q36 -57 92 -90.5t121 -33.5q71 0 108 31.5t37 85.5q0 59 -39.5 90.5t-125.5 55.5q-216 53 -216 196q0 89 58 137t161 48q75 0 134.5 -28t106.5 -86l-59 -50q-36 49 -79 72.5t-103 23.5q-63 0 -103 -29.5t-40 -80.5q0 -52 37 -82.5
t125 -51.5q104 -28 161.5 -77t57.5 -138q0 -55 -28 -97t-80.5 -65.5t-122.5 -23.5q-75 0 -146 37.5z" />
    <glyph glyph-name="uni0406" unicode="&#x406;" horiz-adv-x="317" 
d="M55 0v66h66v550h-66v66h207v-66h-66v-550h66v-66h-207z" />
    <glyph glyph-name="uni0407" unicode="&#x407;" horiz-adv-x="317" 
d="M55 0v66h66v550h-66v66h207v-66h-66v-550h66v-66h-207zM22.5 775q-15.5 16 -15.5 39q0 22 15.5 37.5t38.5 15.5q22 0 38.5 -15.5t16.5 -38.5q0 -22 -16.5 -38t-38.5 -16q-23 0 -38.5 16zM218 775q-16 16 -16 39q0 22 16 37.5t39 15.5q22 0 38 -15.5t16 -38.5
q0 -22 -16 -38t-38 -16q-23 0 -39 16z" />
    <glyph glyph-name="uni0408" unicode="&#x408;" horiz-adv-x="496" 
d="M92.5 21.5q-52.5 37.5 -80.5 105.5l63 30q15 -48 52.5 -75.5t83.5 -27.5q64 0 97 39.5t33 111.5v477h75v-477q0 -104 -54 -162.5t-147 -58.5q-70 0 -122.5 37.5z" />
    <glyph glyph-name="uni0409" unicode="&#x409;" horiz-adv-x="904" 
d="M10 62h21q47 0 75 42.5t41 132.5t13 235v210h379v-271h118q107 0 162 -55.5t55 -149.5q0 -95 -57.5 -150.5t-154.5 -55.5h-198v620h-234v-133q0 -155 -13.5 -257t-58 -166t-131.5 -64h-17v62zM662 62q64 0 100.5 39t36.5 105t-36.5 104.5t-100.5 38.5h-123v-287h123z" />
    <glyph glyph-name="uni040A" unicode="&#x40a;" horiz-adv-x="935" 
d="M80 682h75v-295h340v295h75v-271h118q107 0 162 -55.5t55 -149.5q0 -95 -57.5 -150.5t-154.5 -55.5h-198v325h-340v-325h-75v682zM693 62q64 0 100.5 39t36.5 105t-36.5 104.5t-100.5 38.5h-123v-287h123z" />
    <glyph glyph-name="uni040B" unicode="&#x40b;" horiz-adv-x="694" 
d="M581 387.5q58 -47.5 58 -143.5v-244h-75v222q0 59 -15.5 90t-49 42.5t-94.5 11.5q-60 0 -105 -18.5t-45 -46.5v-301h-75v620h-165v62h494v-62h-254v-240q30 26 75.5 40.5t98.5 14.5q94 0 152 -47.5z" />
    <glyph glyph-name="uni040C" unicode="&#x40c;" horiz-adv-x="604" 
d="M589 0h-95l-250 325h-89v-325h-75v682h75v-295h96l220 292h90l-245 -322zM197 725l-20 34l216 111l34 -58z" />
    <glyph glyph-name="uni040D" unicode="&#x40d;" horiz-adv-x="666" 
d="M80 0v682h72v-579l362 579h71l1 -682h-72v567l-362 -567h-72zM441 725l-230 87l34 58l216 -111z" />
    <glyph glyph-name="uni040E" unicode="&#x40e;" horiz-adv-x="541" 
d="M541 682l-220 -556q-47 -126 -207 -126v62q58 0 96 20.5t58 77.5l10 27l-268 495h81l218 -412l153 412h79zM185 772q-39 26 -39 70h68q0 -46 75 -46t75 46h68q0 -44 -39 -70t-104 -26t-104 26z" />
    <glyph glyph-name="uni040F" unicode="&#x40f;" horiz-adv-x="650" 
d="M290 -122v122h-210v682h75v-620h340v620h75v-682h-210v-122h-70z" />
    <glyph glyph-name="uni0410" unicode="&#x410;" horiz-adv-x="585" 
d="M503 0l-70 191h-283l-63 -191h-75l242 682h70l249 -682h-70zM173 253h237l-122 331z" />
    <glyph glyph-name="uni0411" unicode="&#x411;" horiz-adv-x="569" 
d="M80 682h402v-63h-327v-228h158q108 0 164.5 -53t56.5 -142q0 -91 -55 -143.5t-151 -52.5h-248v682zM318 62q64 0 100.5 36t36.5 98t-36.5 97.5t-100.5 35.5h-163v-267h163z" />
    <glyph glyph-name="uni0412" unicode="&#x412;" horiz-adv-x="574" 
d="M501 309q32 -43 32 -113q0 -91 -55 -143.5t-151 -52.5h-248v682h225q91 0 143 -47.5t52 -126.5q0 -51 -23 -87.5t-66 -53.5q59 -15 91 -58zM154 391h159q107 0 107 117q0 53 -31 82t-86 29h-149v-228zM417.5 98q36.5 36 36.5 98t-36.5 97.5t-100.5 35.5h-163v-267h163
q64 0 100.5 36z" />
    <glyph glyph-name="uni0413" unicode="&#x413;" horiz-adv-x="471" 
d="M79 0v682h382v-63h-307v-619h-75z" />
    <glyph glyph-name="uni0414" unicode="&#x414;" horiz-adv-x="674" 
d="M634 62v-184h-70v122h-469v-122h-70v184h25q66 0 95.5 97t29.5 313v210h399v-620h60zM499 62v558h-254v-133q0 -164 -17 -269t-69 -156h340z" />
    <glyph glyph-name="uni0415" unicode="&#x415;" horiz-adv-x="503" 
d="M79 0v682h382v-63h-307v-238h240v-61h-240v-258h310v-62h-385z" />
    <glyph glyph-name="uni0416" unicode="&#x416;" horiz-adv-x="973" 
d="M15 0l273 357l-245 322h90l220 -292h96v295h75v-295h96l220 292h90l-245 -322l273 -357h-95l-250 325h-89v-325h-75v325h-89l-250 -325h-95z" />
    <glyph glyph-name="uni0417" unicode="&#x417;" horiz-adv-x="553" 
d="M474.5 300q33.5 -46 33.5 -114q0 -58 -29.5 -104t-80.5 -72t-112 -26q-167 0 -236 160l60 35q30 -63 72 -96.5t104 -33.5q64 0 106 36t42 101q0 66 -41.5 104.5t-110.5 38.5h-48v62h44q64 0 101.5 33.5t37.5 93.5q0 53 -37.5 84.5t-96.5 31.5q-54 0 -92.5 -27.5
t-67.5 -87.5l-60 35q31 68 87 105.5t133 37.5q59 0 106 -23.5t73.5 -64.5t26.5 -91q0 -56 -29.5 -97t-80.5 -58q62 -17 95.5 -63z" />
    <glyph glyph-name="uni0418" unicode="&#x418;" horiz-adv-x="666" 
d="M80 0v682h72v-579l362 579h71l1 -682h-72v567l-362 -567h-72z" />
    <glyph glyph-name="uni0419" unicode="&#x419;" horiz-adv-x="666" 
d="M80 0v682h72v-579l362 579h71l1 -682h-72v567l-362 -567h-72zM232 772q-39 26 -39 70h68q0 -46 75 -46t75 46h68q0 -44 -39 -70t-104 -26t-104 26z" />
    <glyph glyph-name="uni041A" unicode="&#x41a;" horiz-adv-x="604" 
d="M589 0h-95l-250 325h-89v-325h-75v682h75v-295h96l220 292h90l-245 -322z" />
    <glyph glyph-name="uni041B" unicode="&#x41b;" horiz-adv-x="639" 
d="M10 62h21q47 0 75 42.5t41 132.5t13 235v210h399v-682h-75v620h-254v-133q0 -155 -13.5 -257t-58 -166t-131.5 -64h-17v62z" />
    <glyph glyph-name="uni041C" unicode="&#x41c;" horiz-adv-x="825" 
d="M661 682h84v-682h-74v545l-228 -545h-70l-218 543v-543h-75v682h92l239 -598z" />
    <glyph glyph-name="uni041D" unicode="&#x41d;" horiz-adv-x="670" 
d="M80 0v682h75v-295h360v295h75v-682h-75v325h-360v-325h-75z" />
    <glyph glyph-name="uni041E" unicode="&#x41e;" horiz-adv-x="696" 
d="M196.5 29.5q-66.5 45.5 -104 126.5t-37.5 184t37.5 184.5t104 127t151.5 45.5t151.5 -45.5t104 -127t37.5 -185.5q0 -103 -37.5 -183.5t-104 -126t-151.5 -45.5t-151.5 45.5zM459.5 89.5q49.5 36.5 77.5 102t28 148.5t-28 149t-77.5 103t-111.5 37t-111.5 -37t-77.5 -103
t-28 -149t28 -148.5t77.5 -102t111.5 -36.5t111.5 36.5z" />
    <glyph glyph-name="uni041F" unicode="&#x41f;" horiz-adv-x="651" 
d="M80 0v682h491v-682h-75v620h-341v-620h-75z" />
    <glyph glyph-name="uni0420" unicode="&#x420;" horiz-adv-x="535" 
d="M80 682h228q92 0 147 -56t55 -155q0 -98 -57.5 -154t-152.5 -56h-145v-261h-75v682zM298 323q67 0 102 37.5t35 110.5t-35 111t-102 38h-143v-297h143z" />
    <glyph glyph-name="uni0421" unicode="&#x421;" horiz-adv-x="605" 
d="M184.5 26.5q-62.5 42.5 -96 122t-33.5 190.5q0 112 32.5 192.5t93 123t143.5 42.5q85 0 145.5 -37.5t94.5 -105.5l-60 -35q-32 59 -75 84.5t-105 25.5q-89 0 -139.5 -76.5t-50.5 -212.5q0 -89 23 -154t66 -99.5t100 -34.5q71 0 110.5 31.5t73.5 98.5l63 -38
q-36 -78 -95.5 -119t-141.5 -41q-86 0 -148.5 42.5z" />
    <glyph glyph-name="uni0422" unicode="&#x422;" horiz-adv-x="534" 
d="M230 0v620h-215v62h504v-62h-215v-620h-74z" />
    <glyph glyph-name="uni0423" unicode="&#x423;" horiz-adv-x="541" 
d="M541 682l-220 -556q-47 -126 -207 -126v62q58 0 96 20.5t58 77.5l10 27l-268 495h81l218 -412l153 412h79z" />
    <glyph glyph-name="uni0424" unicode="&#x424;" horiz-adv-x="776" 
d="M684 191.5q-37 -62.5 -103.5 -100t-153.5 -44.5v-64h-75v63q-88 7 -155 45t-104.5 101t-37.5 141q0 81 37 145t104.5 103t155.5 46v71h75v-72q87 -7 153.5 -46.5t103.5 -103.5t37 -144q0 -78 -37 -140.5zM159 222q28 -49 78 -79.5t115 -37.5v462q-65 -7 -115 -38.5
t-78 -82.5t-28 -114q0 -61 28 -110zM540.5 143q49.5 31 77 79.5t27.5 109.5q0 62 -27.5 113t-77 82.5t-113.5 39.5v-462q64 7 113.5 38z" />
    <glyph glyph-name="uni0425" unicode="&#x425;" horiz-adv-x="516" 
d="M511 0h-84l-172 284l-161 -284h-84l197 337l-202 345h81l170 -291l174 291h78l-205 -338z" />
    <glyph glyph-name="uni0426" unicode="&#x426;" horiz-adv-x="670" 
d="M560 -122v122h-480v682h75v-620h340v620h75v-620h60v-184h-70z" />
    <glyph glyph-name="uni0427" unicode="&#x427;" horiz-adv-x="594" 
d="M514 682v-682h-75v302q-30 -26 -75.5 -40.5t-98.5 -14.5q-94 0 -152 47.5t-58 143.5v244h75v-222q0 -59 15.5 -90t49 -42.5t94.5 -11.5q60 0 105 18.5t45 46.5v301h75z" />
    <glyph glyph-name="uni0428" unicode="&#x428;" horiz-adv-x="925" 
d="M80 0v682h75v-620h270v620h75v-620h270v620h75v-682h-765z" />
    <glyph glyph-name="uni0429" unicode="&#x429;" horiz-adv-x="905" 
d="M795 -122v122h-715v682h75v-620h250v620h75v-620h250v620h75v-620h60v-184h-70z" />
    <glyph glyph-name="uni042A" unicode="&#x42a;" horiz-adv-x="611" 
d="M171 619h-171v63h246v-271h118q107 0 162 -55.5t55 -149.5q0 -95 -57.5 -150.5t-154.5 -55.5h-198v619zM369 62q64 0 100.5 39t36.5 105t-36.5 104.5t-100.5 38.5h-123v-287h123z" />
    <glyph glyph-name="uni042B" unicode="&#x42b;" horiz-adv-x="745" 
d="M80 682h75v-271h128q107 0 162 -55.5t55 -149.5q0 -95 -57.5 -150.5t-154.5 -55.5h-208v682zM590 0v682h75v-682h-75zM288 62q64 0 100.5 39t36.5 105t-36.5 104.5t-100.5 38.5h-133v-287h133z" />
    <glyph glyph-name="uni042C" unicode="&#x42c;" horiz-adv-x="539" 
d="M79 682h75v-271h138q107 0 162 -55.5t55 -149.5q0 -95 -57.5 -150.5t-154.5 -55.5h-218v682zM297 62q64 0 100.5 39t36.5 105t-36.5 104.5t-100.5 38.5h-143v-287h143z" />
    <glyph glyph-name="uni042D" unicode="&#x42d;" horiz-adv-x="615" 
d="M434.5 649.5q60.5 -42.5 93 -123t32.5 -192.5q0 -111 -33.5 -190.5t-96 -122t-148.5 -42.5q-82 0 -141.5 41t-95.5 119l63 38q34 -67 73.5 -98.5t110.5 -31.5q85 0 136 74t53 204h-284v62h282q-10 113 -59 175t-129 62q-62 0 -105 -25.5t-75 -84.5l-60 35
q34 68 94.5 105.5t145.5 37.5q83 0 143.5 -42.5z" />
    <glyph glyph-name="uni042E" unicode="&#x42e;" horiz-adv-x="897" 
d="M700.5 651.5q66.5 -45.5 104 -127t37.5 -185.5q0 -103 -37.5 -183.5t-104 -126t-151.5 -45.5q-75 0 -135 41t-96 115t-41 170h-122v-310h-75v682h75v-310h122q5 95 41 169t96 115t135 41q85 0 151.5 -45.5zM659.5 89.5q48.5 36.5 76 102t27.5 148.5t-27.5 149t-76 103
t-110.5 37q-56 0 -100 -37t-69 -103t-25 -149t25 -148.5t69 -102t100 -36.5q62 0 110.5 36.5z" />
    <glyph glyph-name="uni042F" unicode="&#x42f;" horiz-adv-x="589" 
d="M509 682v-682h-75v271h-138q-18 0 -27 1l-150 -272h-79l163 288q-59 24 -91.5 74.5t-32.5 113.5q0 95 57.5 150.5t154.5 55.5h218zM434 620h-143q-64 0 -100.5 -39t-36.5 -105q0 -67 38 -105t109 -38h133v287z" />
    <glyph glyph-name="uni0430" unicode="&#x430;" horiz-adv-x="561" 
d="M498 468v-468h-68v69q-29 -40 -71 -62.5t-92 -22.5q-67 0 -120 32t-83 89t-30 130q0 72 29.5 128.5t82 88.5t119.5 32q51 0 93.5 -22.5t71.5 -63.5v70h68zM350.5 70q37.5 24 58.5 67t21 97t-21 97t-58.5 67t-85.5 24q-47 0 -84 -24t-58 -66.5t-21 -96.5q0 -55 21 -98
t58 -67t84 -24q48 0 85.5 24z" />
    <glyph glyph-name="uni0431" unicode="&#x431;" horiz-adv-x="542" 
d="M403.5 433.5q50.5 -30.5 78 -85t27.5 -124.5q0 -69 -29.5 -124t-82 -85.5t-119.5 -30.5q-66 0 -118 29.5t-82.5 82t-32.5 119.5v112q0 124 36 197t114 119.5t227 94.5l20 -62q-129 -41 -196.5 -77t-100 -91t-36.5 -147q29 48 75.5 75.5t101.5 27.5q67 0 117.5 -30.5z
M361.5 69q37.5 23 58.5 63.5t21 91.5q0 79 -41.5 128.5t-113.5 49.5q-80 0 -126.5 -47t-46.5 -130q0 -52 21 -92.5t58 -63.5t84 -23q48 0 85.5 23z" />
    <glyph glyph-name="uni0432" unicode="&#x432;" horiz-adv-x="496" 
d="M437 215.5q24 -31.5 24 -80.5q0 -63 -43 -99t-119 -36h-229v468h213q71 0 113 -33t42 -87q0 -36 -17.5 -57.5t-53.5 -32.5q46 -11 70 -42.5zM138 280h152q73 0 73 68q0 28 -21 43t-59 15h-145v-126zM362 82q25 20 25 53q0 43 -25 67.5t-70 24.5h-154v-165h154q45 0 70 20
z" />
    <glyph glyph-name="uni0433" unicode="&#x433;" horiz-adv-x="397" 
d="M70 0v468h312v-62h-244v-406h-68z" />
    <glyph glyph-name="uni0434" unicode="&#x434;" horiz-adv-x="545" 
d="M508 62v-184h-64v122h-355v-122h-64v184h25q90 0 90 297v109h311v-406h57zM383 62v344h-179v-66q0 -203 -58 -278h237z" />
    <glyph glyph-name="uni0435" unicode="&#x435;" horiz-adv-x="525" 
d="M379 453q51 -31 80 -84.5t29 -119.5q0 -19 -1 -29h-385q4 -72 47 -123t117 -51q60 0 99.5 22.5t63.5 62.5l54 -36q-33 -52 -87 -81.5t-128 -29.5q-68 0 -121 32t-83 89t-30 129t29.5 129t82 89t119.5 32q63 0 114 -31zM420 276q-10 73 -49 109.5t-106 36.5
q-65 0 -106.5 -41.5t-52.5 -104.5h314z" />
    <glyph glyph-name="uni0436" unicode="&#x436;" horiz-adv-x="692" 
d="M15 0l179 246l-160 222h76l136 -194h66v194h68v-194h66l136 194h76l-160 -222l179 -246h-77l-155 212h-65v-212h-68v212h-65l-155 -212h-77z" />
    <glyph glyph-name="uni0437" unicode="&#x437;" horiz-adv-x="416" 
d="M117.5 7.5q-47.5 23.5 -77.5 66.5l53 37q20 -31 52 -48t73 -17q47 0 73 20t26 60q0 43 -25 67t-70 24h-38v53h36q83 0 83 78q0 37 -22.5 55.5t-62.5 18.5t-67.5 -17.5t-51.5 -52.5l-48 38q31 45 74 69.5t95 24.5q66 0 108.5 -36.5t42.5 -99.5q0 -36 -20.5 -62.5
t-57.5 -38.5q47 -13 72.5 -43.5t25.5 -78.5q0 -65 -46 -103t-127 -38q-53 0 -100.5 23.5z" />
    <glyph glyph-name="uni0438" unicode="&#x438;" horiz-adv-x="554" 
d="M416 468h68v-468h-68v373l-278 -373h-68v468h68v-378z" />
    <glyph glyph-name="uni0439" unicode="&#x439;" horiz-adv-x="554" 
d="M416 468h68v-468h-68v373l-278 -373h-68v468h68v-378zM168 568q-39 26 -39 70h68q0 -46 75 -46t75 46h68q0 -44 -39 -70t-104 -26t-104 26z" />
    <glyph glyph-name="uni043A" unicode="&#x43a;" horiz-adv-x="463" 
d="M448 0h-77l-165 212h-75v-212h-68v468h68v-194h76l146 194h76l-170 -222z" />
    <glyph glyph-name="uni043B" unicode="&#x43b;" horiz-adv-x="514" 
d="M25 62h31q42 0 66 73.5t24 223.5v109h308v-468h-68v406h-176v-66q0 -156 -34.5 -248t-122.5 -92h-28v62z" />
    <glyph glyph-name="uni043C" unicode="&#x43c;" horiz-adv-x="632" 
d="M490 468h72v-468h-68v364l-160 -309h-44l-152 302v-357h-68v468h77l169 -334z" />
    <glyph glyph-name="uni043D" unicode="&#x43d;" horiz-adv-x="554" 
d="M70 0v468h68v-194h278v194h68v-468h-68v212h-278v-212h-68z" />
    <glyph glyph-name="uni043E" unicode="&#x43e;" horiz-adv-x="531" 
d="M147 16q-53 32 -83 89.5t-30 129.5t29.5 128.5t82 88.5t119.5 32t120 -32t83 -89t30 -129t-29.5 -129t-82 -89t-119.5 -32t-120 32zM350.5 70q37.5 24 58.5 67t21 97t-21 97t-58.5 67t-85.5 24q-47 0 -84 -24t-58 -66.5t-21 -96.5q0 -55 21 -98t58 -67t84 -24
q48 0 85.5 24z" />
    <glyph glyph-name="uni043F" unicode="&#x43f;" horiz-adv-x="534" 
d="M70 0v468h394v-468h-68v406h-258v-406h-68z" />
    <glyph glyph-name="uni0440" unicode="&#x440;" horiz-adv-x="561" 
d="M415 452q53 -32 83 -89t30 -130q0 -72 -29.5 -128.5t-82 -88.5t-119.5 -32q-51 0 -93.5 22.5t-71.5 63.5v-270h-68v668h68v-69q29 40 71 62.5t92 22.5q67 0 120 -32zM381 70q37 24 58 66.5t21 96.5q0 55 -21 98t-58 67t-84 24q-48 0 -85.5 -24t-58.5 -67t-21 -97t21 -97
t58.5 -67t85.5 -24q47 0 84 24z" />
    <glyph glyph-name="uni0441" unicode="&#x441;" horiz-adv-x="477" 
d="M145 16q-53 32 -83 89t-30 129t29.5 129t82.5 89t120 32q57 0 99.5 -24.5t77.5 -69.5l-50 -39q-49 71 -127 71q-47 0 -84.5 -24t-58.5 -67t-21 -97t21 -97t58.5 -67t84.5 -24q48 0 79 16.5t56 48.5l53 -37q-33 -41 -81.5 -65.5t-104.5 -24.5q-68 0 -121 32z" />
    <glyph glyph-name="uni0442" unicode="&#x442;" horiz-adv-x="476" 
d="M15 468h436v-62h-191v-274q0 -37 22.5 -58.5t60.5 -21.5h60v-62h-60q-70 0 -110.5 39t-40.5 108v269h-177v62z" />
    <glyph glyph-name="uni0443" unicode="&#x443;" horiz-adv-x="449" 
d="M385 468h64l-253 -668h-68l74 191l-192 477h71l155 -388z" />
    <glyph glyph-name="uni0444" unicode="&#x444;" horiz-adv-x="637" 
d="M483 444.5q57 -29.5 89 -83.5t32 -126t-32 -126.5t-89 -84.5t-130 -30v-194h-68v194q-73 0 -130 30t-89 84.5t-32 126.5t32 126t89 83.5t130 29.5v208h68v-208q73 0 130 -29.5zM285 415q-81 0 -132 -49t-51 -131t51 -132t132 -50v362zM485 103q51 50 51 132t-51 131
t-132 49v-362q81 0 132 50z" />
    <glyph glyph-name="uni0445" unicode="&#x445;" horiz-adv-x="462" 
d="M430 0h-78l-122 195l-122 -195h-76l150 240l-141 228h77l113 -184l119 184h75l-147 -227z" />
    <glyph glyph-name="uni0446" unicode="&#x446;" horiz-adv-x="531" 
d="M442 -122v122h-372v468h68v-406h243v406h68v-406h57v-184h-64z" />
    <glyph glyph-name="uni0447" unicode="&#x447;" horiz-adv-x="503" 
d="M433 468v-468h-69v196q-24 -22 -60 -34t-78 -12q-77 0 -124 42.5t-47 128.5v147h68v-127q0 -53 12 -80.5t38.5 -38t74.5 -10.5q46 0 81 16.5t35 41.5v198h69z" />
    <glyph glyph-name="uni0448" unicode="&#x448;" horiz-adv-x="689" 
d="M63 0v468h68v-406h180v406h68v-406h180v406h68v-468h-564z" />
    <glyph glyph-name="uni0449" unicode="&#x449;" horiz-adv-x="712" 
d="M620 -122v122h-557v468h68v-406h180v406h68v-406h180v406h68v-406h57v-184h-64z" />
    <glyph glyph-name="uni044A" unicode="&#x44a;" horiz-adv-x="504" 
d="M133 406h-133v62h201v-159h110q79 0 121 -43t42 -111q0 -72 -44.5 -113.5t-127.5 -41.5h-169v406zM305 62q45 0 70 25.5t25 67.5q0 43 -25 67.5t-70 24.5h-104v-185h104z" />
    <glyph glyph-name="uni044B" unicode="&#x44b;" horiz-adv-x="632" 
d="M70 468h68v-159h110q79 0 121 -43t42 -111q0 -72 -44.5 -113.5t-127.5 -41.5h-169v468zM494 0v468h68v-468h-68zM242 62q45 0 70 25.5t25 67.5q0 43 -25 67.5t-70 24.5h-104v-185h104z" />
    <glyph glyph-name="uni044C" unicode="&#x44c;" horiz-adv-x="454" 
d="M63 468h68v-159h130q79 0 121 -43t42 -111q0 -72 -44.5 -113.5t-127.5 -41.5h-189v468zM255 62q45 0 70 25.5t25 67.5q0 43 -25 67.5t-70 24.5h-124v-185h124z" />
    <glyph glyph-name="uni044D" unicode="&#x44d;" horiz-adv-x="498" 
d="M355 452q53 -32 82.5 -89t29.5 -129t-30 -129t-83 -89t-121 -32q-56 0 -104.5 24.5t-81.5 65.5l53 37q25 -32 56 -48.5t79 -16.5q67 0 112 46t51 120h-242v62h240q-11 67 -55 107.5t-106 40.5q-78 0 -127 -71l-50 39q35 45 77.5 69.5t99.5 24.5q67 0 120 -32z" />
    <glyph glyph-name="uni044E" unicode="&#x44e;" horiz-adv-x="732" 
d="M586 452q53 -32 83 -89t30 -129t-29.5 -129t-82 -89t-119.5 -32q-61 0 -110 29t-78.5 80.5t-33.5 118.5h-108v-212h-68v468h68v-194h109q11 94 71.5 152t147.5 58q67 0 120 -32zM551.5 70q37.5 24 58.5 67t21 97t-21 97t-58.5 67t-85.5 24q-44 0 -79 -24t-54.5 -66.5
t-19.5 -96.5q0 -55 19.5 -98t54.5 -67t79 -24q48 0 85.5 24z" />
    <glyph glyph-name="uni044F" unicode="&#x44f;" horiz-adv-x="486" 
d="M416 468v-468h-68v169h-110l-110 -169h-83l119 182q-43 18 -69 54.5t-26 83.5q0 69 44.5 108.5t127.5 39.5h175zM348 406h-110q-45 0 -70 -23.5t-25 -62.5t28.5 -66.5t66.5 -27.5h110v180z" />
    <glyph glyph-name="uni0450" unicode="&#x450;" horiz-adv-x="525" 
d="M379 453q51 -31 80 -84.5t29 -119.5q0 -19 -1 -29h-385q4 -72 47 -123t117 -51q60 0 99.5 22.5t63.5 62.5l54 -36q-33 -52 -87 -81.5t-128 -29.5q-68 0 -121 32t-83 89t-30 129t29.5 129t82 89t119.5 32q63 0 114 -31zM420 276q-10 73 -49 109.5t-106 36.5
q-65 0 -106.5 -41.5t-52.5 -104.5h314zM338 537l-200 87l34 58l186 -111z" />
    <glyph glyph-name="uni0451" unicode="&#x451;" horiz-adv-x="525" 
d="M379 453q51 -31 80 -84.5t29 -119.5q0 -19 -1 -29h-385q4 -72 47 -123t117 -51q60 0 99.5 22.5t63.5 62.5l54 -36q-33 -52 -87 -81.5t-128 -29.5q-68 0 -121 32t-83 89t-30 129t29.5 129t82 89t119.5 32q63 0 114 -31zM420 276q-10 73 -49 109.5t-106 36.5
q-65 0 -106.5 -41.5t-52.5 -104.5h314zM126.5 575q-15.5 16 -15.5 39q0 22 15.5 37.5t38.5 15.5q22 0 38.5 -15.5t16.5 -38.5q0 -22 -16.5 -38t-38.5 -16q-23 0 -38.5 16zM322 575q-16 16 -16 39q0 22 16 37.5t39 15.5q22 0 38 -15.5t16 -38.5q0 -22 -16 -38t-38 -16
q-23 0 -39 16z" />
    <glyph glyph-name="uni0452" unicode="&#x452;" horiz-adv-x="557" 
d="M279 -67q48 0 85.5 39t58.5 102.5t21 132.5q0 92 -35.5 138.5t-103.5 46.5q-77 0 -115.5 -51t-38.5 -137v-204h-68v575h-73v48h73v103h68v-103h201v-48h-201v-215q24 45 63.5 69.5t91.5 24.5q101 0 153.5 -63t52.5 -184q0 -89 -30 -166.5t-83.5 -124t-119.5 -46.5v63z
" />
    <glyph glyph-name="uni0453" unicode="&#x453;" horiz-adv-x="397" 
d="M70 0v468h312v-62h-244v-406h-68zM203 537l-20 34l186 111l34 -58z" />
    <glyph glyph-name="uni0454" unicode="&#x454;" horiz-adv-x="477" 
d="M452 74q-33 -41 -81.5 -65.5t-104.5 -24.5q-68 0 -121 32t-83 89t-30 129t29.5 129t82.5 89t120 32q57 0 99.5 -24.5t77.5 -69.5l-50 -39q-49 71 -127 71q-62 0 -106 -40.5t-55 -107.5h236v-62h-238q6 -74 51 -120t112 -46q48 0 79 16.5t56 48.5z" />
    <glyph glyph-name="uni0455" unicode="&#x455;" horiz-adv-x="464" 
d="M108.5 13q-51.5 29 -78.5 82l61 30q37 -79 145 -79q52 0 86 19t34 59q0 41 -27.5 61t-96.5 26q-96 8 -137.5 43t-41.5 93q0 65 47 101t129 36q139 0 189 -110l-61 -30q-17 40 -49.5 59t-83.5 19q-52 0 -79.5 -19t-27.5 -54q0 -33 29.5 -53.5t101.5 -26.5
q89 -8 132.5 -43.5t43.5 -93.5q0 -47 -27 -80.5t-72 -50.5t-97 -17q-68 0 -119.5 29z" />
    <glyph glyph-name="uni0456" unicode="&#x456;" horiz-adv-x="268" 
d="M100 0v468h68v-468h-68zM95.5 575q-15.5 16 -15.5 39q0 22 15.5 37.5t38.5 15.5q22 0 38 -15.5t16 -38.5q0 -22 -16 -38t-38 -16q-23 0 -38.5 16z" />
    <glyph glyph-name="uni0457" unicode="&#x457;" horiz-adv-x="268" 
d="M100 0v468h68v-468h-68zM21 578.5q-14 14.5 -14 35.5q0 20 14 34t35 14q20 0 35 -14t15 -35q0 -19 -15 -34t-35 -15q-21 0 -35 14.5zM176.5 578.5q-14.5 14.5 -14.5 35.5q0 20 14.5 34t35.5 14q20 0 34.5 -14t14.5 -35q0 -19 -15 -34t-34 -15q-21 0 -35.5 14.5z" />
    <glyph glyph-name="uni0458" unicode="&#x458;" horiz-adv-x="193" 
d="M-45 -138h28q35 0 57.5 24t22.5 62v520h68v-520q0 -65 -41.5 -106.5t-106.5 -41.5h-28v62zM58.5 575q-15.5 16 -15.5 39q0 22 15.5 37.5t38.5 15.5q22 0 38 -15.5t16 -38.5q0 -22 -16 -38t-38 -16q-23 0 -38.5 16z" />
    <glyph glyph-name="uni0459" unicode="&#x459;" horiz-adv-x="737" 
d="M25 62h31q42 0 66 73.5t24 223.5v109h288v-159h110q79 0 121 -43t42 -111q0 -72 -44.5 -113.5t-127.5 -41.5h-169v406h-156v-66q0 -156 -34.5 -248t-122.5 -92h-28v62zM538 62q45 0 70 25.5t25 67.5q0 43 -25 67.5t-70 24.5h-104v-185h104z" />
    <glyph glyph-name="uni045A" unicode="&#x45a;" horiz-adv-x="767" 
d="M70 468h68v-194h258v194h68v-159h110q79 0 121 -43t42 -111q0 -72 -44.5 -113.5t-127.5 -41.5h-169v212h-258v-212h-68v468zM568 62q45 0 70 25.5t25 67.5q0 43 -25 67.5t-70 24.5h-104v-185h104z" />
    <glyph glyph-name="uni045B" unicode="&#x45b;" horiz-adv-x="534" 
d="M376.5 464q41.5 -20 66 -59t24.5 -92v-313h-68v283q0 139 -124 139q-72 0 -108 -51t-36 -137v-234h-68v575h-73v48h73v103h68v-103h201v-48h-201v-185q24 45 63.5 69.5t91.5 24.5q49 0 90.5 -20z" />
    <glyph glyph-name="uni045C" unicode="&#x45c;" horiz-adv-x="463" 
d="M448 0h-77l-165 212h-75v-212h-68v468h68v-194h76l146 194h76l-170 -222zM187 537l-20 34l186 111l34 -58z" />
    <glyph glyph-name="uni045D" unicode="&#x45d;" horiz-adv-x="554" 
d="M416 468h68v-468h-68v373l-278 -373h-68v468h68v-378zM347 537l-200 87l34 58l186 -111z" />
    <glyph glyph-name="uni045E" unicode="&#x45e;" horiz-adv-x="449" 
d="M385 468h64l-253 -668h-68l74 191l-192 477h71l155 -388zM138 568q-39 26 -39 70h68q0 -46 75 -46t75 46h68q0 -44 -39 -70t-104 -26t-104 26z" />
    <glyph glyph-name="uni045F" unicode="&#x45f;" horiz-adv-x="520" 
d="M228 -122v122h-158v468h68v-406h244v406h68v-468h-158v-122h-64z" />
    <glyph glyph-name="uni0462" unicode="&#x462;" horiz-adv-x="519" 
d="M434 355.5q55 -55.5 55 -149.5q0 -95 -57.5 -150.5t-154.5 -55.5h-198v520h-115v62h115v100h75v-100h154v-62h-154v-109h118q107 0 162 -55.5zM377.5 101q36.5 39 36.5 105t-36.5 104.5t-100.5 38.5h-123v-287h123q64 0 100.5 39z" />
    <glyph glyph-name="uni0463" unicode="&#x463;" horiz-adv-x="454" 
d="M382 283.5q42 -45.5 42 -118.5q0 -77 -44.5 -121t-127.5 -44h-179v420h-73v48h73v214h68v-214h121v-48h-121v-91h120q79 0 121 -45.5zM324.5 90q25.5 28 25.5 75q0 48 -25 75t-70 27h-114v-205h114q44 0 69.5 28z" />
    <glyph glyph-name="uni046A" unicode="&#x46a;" horiz-adv-x="743" 
d="M644 286.5q59 -76.5 59 -184.5v-102h-85v118q0 93 -53.5 150t-155.5 57v-325h-75v325q-102 0 -155.5 -57t-53.5 -150v-118h-85v102q0 109 59.5 185.5t176.5 92.5l-205 302h609l-211 -303q116 -16 175 -92.5zM374 355l184 265h-360z" />
    </font>
</defs>
</svg>
